<svg width="52" height="56" viewBox="0 0 52 56" fill="none" xmlns="http://www.w3.org/2000/svg">
<path d="M28.5117 43.2375C30.1618 44.3664 32.0278 45.1379 33.9909 45.5032C35.954 45.8684 37.9713 45.8193 39.9145 45.3589C41.8577 44.8986 43.6843 44.0371 45.278 42.8293C46.8717 41.6215 48.1977 40.0937 49.1717 38.3433C50.1457 36.5928 50.7463 34.6579 50.9353 32.6616C51.1244 30.6653 50.8978 28.6514 50.2698 26.7479C49.6419 24.8444 48.6264 23.0929 47.288 21.605C45.9496 20.117 44.3175 18.9251 42.4955 18.1051C42.0955 17.9031 41.7776 17.5679 41.5962 17.1567C40.4307 14.3679 38.4711 11.9869 35.9634 10.3125C33.4556 8.63811 30.5113 7.74487 27.5 7.74487C24.4887 7.74487 21.5444 8.63811 19.0366 10.3125C16.5289 11.9869 14.5693 14.3679 13.4038 17.1567C13.2224 17.5679 12.9045 17.9031 12.5045 18.1051C10.6825 18.9251 9.05045 20.117 7.71202 21.605C6.37359 23.0929 5.35812 24.8444 4.73018 26.7479C4.10225 28.6514 3.8756 30.6653 4.06465 32.6616C4.25371 34.6579 4.85432 36.5928 5.8283 38.3433C6.80227 40.0937 8.12829 41.6215 9.72202 42.8293C11.3157 44.0371 13.1423 44.8986 15.0855 45.3589C17.0287 45.8193 19.046 45.8684 21.0091 45.5032C22.9722 45.1379 24.8382 44.3664 26.4883 43.2375C26.7888 43.0394 27.1405 42.9338 27.5 42.9338C27.8595 42.9338 28.2112 43.0394 28.5117 43.2375Z" fill="#FC3C3C" stroke="#1C1F35" stroke-width="2" stroke-linecap="round" stroke-linejoin="round"/>
<path d="M45.5533 33.3874C44.4129 36.2356 41.6091 41.0017 33.9355 41.0017" stroke="#1C1F35" stroke-width="2" stroke-linecap="round" stroke-linejoin="round"/>
<path d="M9.88031 14.2233C11.1828 11.2487 14.2221 6.99936 20.8398 5.46851" stroke="#1C1F35" stroke-width="2" stroke-linecap="round" stroke-linejoin="round"/>
<path d="M27.8623 53.4112V22.2146" stroke="#1C1F35" stroke-width="2" stroke-linecap="round" stroke-linejoin="round"/>
<path d="M27.8622 36.08L17.2373 30.8806" stroke="#1C1F35" stroke-width="2" stroke-linecap="round" stroke-linejoin="round"/>
<path d="M18.1228 27.8587L21.5869 29.8162" stroke="white" stroke-linecap="round" stroke-linejoin="round"/>
<path d="M24.7744 21.9266L24.7744 25.8416" stroke="#1C1F35" stroke-linecap="round" stroke-linejoin="round"/>
<path d="M30.5654 46.7449L30.5654 51.7449" stroke="#1C1F35" stroke-width="1.5" stroke-linecap="round" stroke-linejoin="round"/>
<path d="M27.8623 30.8808L38.4872 25.6814" stroke="#1C1F35" stroke-width="2" stroke-linecap="round" stroke-linejoin="round"/>
</svg>
