<svg width="25" height="19" viewBox="0 0 25 19" fill="none" xmlns="http://www.w3.org/2000/svg">
<path d="M24.0453 6.14297C24.2281 5.99766 24.5 6.13359 24.5 6.36328V15.9492C24.5 17.1914 23.4922 18.1992 22.25 18.1992H2.75C1.50781 18.1992 0.5 17.1914 0.5 15.9492V6.36797C0.5 6.13359 0.767187 6.00234 0.954687 6.14766C2.00469 6.96328 3.39688 7.99922 8.17813 11.4727C9.16719 12.1945 10.8359 13.7133 12.5 13.7039C14.1734 13.718 15.875 12.1664 16.8266 11.4727C21.6078 7.99922 22.9953 6.95859 24.0453 6.14297ZM12.5 12.1992C13.5875 12.218 15.1531 10.8305 15.9406 10.2586C22.1609 5.74453 22.6344 5.35078 24.0687 4.22578C24.3406 4.01484 24.5 3.68672 24.5 3.33984V2.44922C24.5 1.20703 23.4922 0.199219 22.25 0.199219H2.75C1.50781 0.199219 0.5 1.20703 0.5 2.44922V3.33984C0.5 3.68672 0.659375 4.01016 0.93125 4.22578C2.36563 5.34609 2.83906 5.74453 9.05938 10.2586C9.84688 10.8305 11.4125 12.218 12.5 12.1992Z" fill="#1C1F35"/>
</svg>
