<svg width="40" height="40" viewBox="0 0 40 40" fill="none" xmlns="http://www.w3.org/2000/svg">
<path d="M20.3173 12.6979C24.5252 12.6979 27.9363 16.1091 27.9363 20.317C27.9363 24.5249 24.5252 27.936 20.3173 27.936C16.1094 27.936 12.6982 24.5249 12.6982 20.317C12.6982 16.1091 16.1094 12.6979 20.3173 12.6979Z" stroke="#FC3C3C" stroke-width="2" stroke-linecap="round" stroke-linejoin="round"/>
<path d="M13.333 22.8574H27.3013" stroke="#FC3C3C" stroke-width="2" stroke-linecap="round" stroke-linejoin="round"/>
<path d="M13.333 17.7773H27.3013" stroke="#FC3C3C" stroke-width="2" stroke-linecap="round" stroke-linejoin="round"/>
<path d="M20.318 12.6979C21.7206 12.6979 22.8577 16.1091 22.8577 20.317C22.8577 24.5249 21.7206 27.936 20.318 27.936C18.9154 27.936 17.7783 24.5249 17.7783 20.317C17.7783 16.1091 18.9154 12.6979 20.318 12.6979Z" stroke="#FC3C3C" stroke-width="2" stroke-linecap="round" stroke-linejoin="round"/>
</svg>
