<svg xmlns="http://www.w3.org/2000/svg" xmlns:xlink="http://www.w3.org/1999/xlink" width="160" zoomAndPan="magnify" viewBox="0 0 120 46.499999" height="62" preserveAspectRatio="xMidYMid meet" version="1.0"><defs><g/><clipPath id="a5819ffc57"><path d="M 16.679688 16.269531 L 44.753906 16.269531 L 44.753906 33.851562 L 16.679688 33.851562 Z M 16.679688 16.269531 " clip-rule="nonzero"/></clipPath></defs><g fill="#091242" fill-opacity="1"><g transform="translate(8.058512, 32.46997)"><g><path d="M 16.269531 -8.96875 L 23.613281 -18.078125 L 15.296875 -18.078125 L 12.039062 -13.882812 L 8.785156 -18.078125 L 0.46875 -18.078125 L 7.808594 -8.96875 L 0.46875 0 L 9.039062 0 L 12.039062 -3.976562 L 15.042969 0 L 23.613281 0 Z M 16.269531 -8.96875 "/></g></g></g><g fill="#091242" fill-opacity="1"><g transform="translate(31.883308, 32.46997)"><g><path d="M 17.898438 -2.746094 L 19.234375 0 L 26.9375 0 L 17.679688 -18.078125 L 9.652344 -18.078125 L 0.253906 0 L 7.992188 0 L 9.363281 -2.746094 Z M 15.621094 -7.269531 L 11.644531 -7.269531 L 13.667969 -11.75 Z M 15.621094 -7.269531 "/></g></g></g><g fill="#091242" fill-opacity="1"><g transform="translate(59.106486, 32.46997)"><g><path d="M 14.789062 0 L 23.105469 0 L 15.441406 -10.339844 L 22.960938 -18.078125 L 14.933594 -18.078125 L 9.507812 -12.367188 L 9.507812 -18.078125 L 1.484375 -18.078125 L 1.484375 0 L 9.507812 0 L 9.507812 -4.15625 L 10.738281 -5.496094 Z M 14.789062 0 "/></g></g></g><g fill="#091242" fill-opacity="1"><g transform="translate(82.208229, 32.46997)"><g><path d="M 17.898438 -2.746094 L 19.234375 0 L 26.9375 0 L 17.679688 -18.078125 L 9.652344 -18.078125 L 0.253906 0 L 7.992188 0 L 9.363281 -2.746094 Z M 15.621094 -7.269531 L 11.644531 -7.269531 L 13.667969 -11.75 Z M 15.621094 -7.269531 "/></g></g></g><g clip-path="url(#a5819ffc57)"><path fill="#ffffff" d="M 16.636719 26.328125 C 16.742188 26.273438 16.855469 26.535156 17.355469 26.816406 C 17.769531 27.050781 18.613281 27.09375 19.019531 26.988281 C 19.410156 26.882812 19.902344 26.644531 20.265625 26.042969 C 20.027344 26.171875 19.765625 26.265625 19.492188 26.332031 C 18.886719 26.476562 18.019531 26.429688 17.476562 25.980469 C 17.070312 25.640625 16.789062 25.273438 16.847656 25.242188 C 16.953125 25.1875 17.070312 25.449219 17.566406 25.734375 C 17.980469 25.96875 18.824219 26.007812 19.230469 25.902344 C 19.472656 25.839844 19.75 25.722656 20.015625 25.503906 C 20.257812 25.300781 20.402344 25.003906 20.429688 24.691406 C 20.527344 23.539062 20.867188 22.328125 21.625 21.332031 C 22.375 20.347656 23.617188 19.753906 24.6875 19.0625 C 25.535156 18.511719 26.632812 17.644531 27.53125 17.085938 C 28.828125 16.277344 30.511719 16.644531 31.753906 17.445312 C 33.277344 18.429688 34.726562 19.492188 36.359375 20.292969 C 37.804688 20.996094 39.398438 21.363281 40.816406 22.125 C 41.226562 22.34375 41.566406 22.601562 41.902344 22.808594 C 42.734375 23.324219 44.125 23.339844 43.71875 22.539062 C 43.359375 21.832031 41.921875 21.515625 41.320312 21.335938 C 40.660156 21.140625 39.78125 20.902344 39.542969 20.230469 C 39.304688 19.554688 39.632812 18.554688 40.066406 18.023438 C 40.414062 17.601562 40.753906 17.308594 41.15625 17.214844 C 41.457031 17.144531 42.207031 17.21875 42.203125 17.359375 C 42.199219 17.503906 41.34375 17.410156 41.414062 17.984375 C 41.457031 18.359375 41.375 18.867188 40.839844 18.914062 C 40.316406 18.957031 40.046875 18.851562 39.804688 19.46875 C 39.667969 19.8125 39.726562 20.238281 40.003906 20.511719 C 40.410156 20.917969 41.597656 21.167969 42.367188 21.355469 C 43.046875 21.523438 44.183594 21.941406 44.347656 22.773438 C 44.464844 23.375 43.796875 23.585938 43.324219 23.828125 C 43.144531 23.921875 43.066406 24.140625 43.144531 24.332031 C 43.4375 25.027344 43.503906 25.875 43.347656 26.96875 C 43.25 27.652344 43.246094 28 43.347656 28.699219 C 43.460938 29.46875 44.023438 29.800781 44.175781 30.339844 C 44.242188 30.574219 44.246094 30.828125 44.296875 31.238281 C 44.320312 31.445312 44.371094 31.601562 44.480469 31.789062 C 44.578125 31.949219 44.710938 32.03125 44.714844 32.15625 C 44.71875 32.277344 44.65625 32.402344 44.640625 32.519531 C 44.628906 32.617188 44.632812 32.730469 44.695312 32.882812 C 44.769531 33.078125 44.859375 33.449219 44.804688 33.605469 C 44.726562 33.820312 44.203125 33.816406 43.964844 33.8125 C 43.417969 33.804688 43.132812 33.710938 43.21875 33.402344 C 43.355469 32.921875 43.753906 32.714844 43.898438 32.414062 C 44.046875 32.097656 43.734375 31.867188 43.199219 31.050781 C 42.828125 30.476562 41.691406 30.164062 40.691406 29.34375 C 39.683594 28.519531 39.523438 27.882812 38.273438 27.546875 C 37.96875 27.46875 37.316406 27.363281 36.910156 27.40625 C 37.355469 27.472656 38.03125 27.605469 38.398438 27.777344 C 38.9375 28.027344 39.265625 28.261719 39.539062 28.542969 C 39.722656 28.730469 39.734375 29.027344 39.566406 29.230469 C 39.542969 29.257812 39.519531 29.285156 39.496094 29.308594 C 39.070312 29.808594 38.535156 30.179688 38.085938 30.53125 C 37.707031 30.824219 37.519531 31.0625 37.421875 31.25 C 37.304688 31.480469 37.382812 31.554688 37.3125 31.699219 C 37.214844 31.894531 37.0625 31.796875 37 32.003906 C 36.941406 32.210938 37.1875 32.492188 37.070312 32.824219 C 37.011719 32.984375 36.460938 33.03125 36.1875 33.027344 C 35.566406 33.019531 35.257812 32.945312 35.414062 32.648438 C 35.78125 31.933594 36.183594 31.78125 36.386719 31.355469 C 36.636719 30.839844 36.847656 30.371094 36.964844 30.042969 C 37.164062 29.492188 36.925781 28.898438 36.578125 28.46875 C 36.378906 28.222656 35.960938 27.980469 35.5 27.921875 C 35.105469 27.871094 34.453125 28.011719 33.796875 28.210938 C 33.664062 28.25 33.550781 28.109375 33.621094 27.988281 C 33.988281 27.339844 34.023438 26.640625 33.941406 26.019531 C 33.902344 26.65625 33.667969 27.351562 33.175781 27.914062 C 32.863281 28.269531 31.488281 29.308594 30.820312 30.140625 C 30.628906 30.375 30.570312 30.664062 30.429688 30.851562 C 30.3125 31.007812 30.085938 31.136719 29.933594 31.269531 C 29.679688 31.484375 29.554688 31.707031 29.480469 31.914062 C 29.394531 32.160156 29.453125 32.175781 29.386719 32.324219 C 29.296875 32.527344 29.152344 32.480469 29.101562 32.660156 C 29.042969 32.875 29.238281 33.253906 29.144531 33.632812 C 29.101562 33.800781 28.546875 33.832031 28.292969 33.828125 C 27.710938 33.820312 27.367188 33.734375 27.496094 33.417969 C 27.796875 32.675781 28.195312 32.398438 28.441406 31.980469 C 28.65625 31.613281 28.816406 31.398438 28.925781 31.054688 C 28.984375 30.871094 28.910156 30.519531 28.984375 30.238281 C 29.113281 29.773438 29.417969 29.609375 29.351562 29.242188 C 29.195312 28.378906 29.0625 26.667969 29.257812 25.183594 C 28.890625 26.105469 28.925781 27.449219 29.058594 28.621094 C 29.085938 28.867188 28.882812 29.082031 28.636719 29.066406 C 27.816406 29.011719 26.953125 28.628906 26.433594 28.246094 C 26.800781 28.585938 27.257812 28.878906 27.605469 29.042969 C 27.761719 29.117188 27.828125 29.300781 27.757812 29.457031 C 27.625 29.757812 27.390625 30.09375 27.226562 30.261719 C 27.089844 30.394531 26.882812 30.535156 26.726562 30.660156 C 26.476562 30.863281 26.347656 31.074219 26.277344 31.273438 C 26.191406 31.507812 26.246094 31.519531 26.179688 31.664062 C 26.089844 31.855469 25.945312 31.8125 25.898438 31.984375 C 25.835938 32.1875 26.035156 32.546875 25.941406 32.90625 C 25.898438 33.066406 25.34375 33.097656 25.089844 33.09375 C 24.503906 33.085938 24.160156 33.003906 24.289062 32.703125 C 24.589844 32 24.992188 31.734375 25.234375 31.335938 C 25.449219 30.988281 25.609375 30.78125 25.722656 30.457031 C 25.78125 30.28125 25.707031 29.945312 25.78125 29.679688 C 25.90625 29.234375 26.070312 29.027344 26.070312 28.671875 C 26.078125 28.109375 25.613281 27.953125 25.703125 27.414062 C 25.921875 26.136719 25.300781 24.820312 23.949219 24.429688 C 25.65625 25.171875 25.484375 26.554688 25.441406 27.046875 C 25.390625 27.609375 25.09375 28.050781 25.011719 28.59375 C 24.964844 28.910156 25.289062 29.140625 25.136719 29.355469 C 24.984375 29.574219 24.785156 29.519531 24.605469 29.683594 C 24.472656 29.804688 23.820312 30.277344 23.308594 30.085938 C 23.019531 29.980469 22.777344 29.660156 22.8125 29.339844 C 22.824219 29.234375 22.8125 29.125 22.761719 29.03125 C 22.65625 28.816406 22.148438 28.097656 22.027344 27.953125 C 21.941406 27.847656 21.859375 27.71875 21.710938 27.714844 C 21.625 27.714844 21.542969 27.726562 21.457031 27.710938 C 21.1875 27.660156 20.78125 27.074219 20.75 26.964844 C 20.726562 26.882812 20.722656 26.777344 20.777344 26.714844 C 20.929688 26.539062 21.117188 26.070312 21.128906 25.839844 C 21.089844 26.003906 21.019531 26.160156 20.941406 26.285156 C 20.5625 26.914062 19.960938 27.253906 19.28125 27.417969 C 18.675781 27.5625 17.808594 27.515625 17.265625 27.0625 C 16.859375 26.726562 16.578125 26.359375 16.636719 26.328125 " fill-opacity="1" fill-rule="nonzero"/></g><g fill="#091242" fill-opacity="1"><g transform="translate(9.026139, 41.858393)"><g><path d="M 3.109375 -3.902344 L 3.109375 -5.203125 L 0.21875 -5.203125 L 0.21875 -3.902344 L 1.125 -3.902344 L 1.125 0 L 2.207031 0 L 2.207031 -3.902344 Z M 3.109375 -3.902344 "/></g></g></g><g fill="#091242" fill-opacity="1"><g transform="translate(13.709378, 41.858393)"><g><path d="M 2.675781 -2.246094 C 2.976562 -2.519531 3.132812 -2.957031 3.132812 -3.539062 C 3.132812 -4.597656 2.632812 -5.203125 1.726562 -5.203125 L 0.25 -5.203125 L 0.25 0 L 1.332031 0 L 1.332031 -1.851562 L 1.644531 -1.851562 C 1.945312 -1.726562 2.113281 -1.425781 2.113281 -0.96875 L 2.113281 0 L 3.109375 0 L 3.109375 -0.863281 C 3.109375 -1.476562 2.964844 -1.945312 2.675781 -2.246094 Z M 1.75 -3.050781 L 1.332031 -3.050781 L 1.332031 -3.984375 L 1.75 -3.984375 C 2.019531 -3.984375 2.175781 -3.808594 2.175781 -3.507812 C 2.175781 -3.214844 2.019531 -3.050781 1.75 -3.050781 Z M 1.75 -3.050781 "/></g></g></g><g fill="#091242" fill-opacity="1"><g transform="translate(18.403015, 41.858393)"><g><path d="M 2.332031 -0.738281 L 2.488281 0 L 3.539062 0 L 2.351562 -5.203125 L 1.25 -5.203125 L 0.0625 0 L 1.113281 0 L 1.269531 -0.738281 Z M 2.058594 -1.933594 L 1.539062 -1.933594 L 1.800781 -3.484375 Z M 2.058594 -1.933594 "/></g></g></g><g fill="#091242" fill-opacity="1"><g transform="translate(23.356665, 41.858393)"><g><path d="M 0.25 0 L 1.332031 0 L 1.332031 -2.445312 L 2.246094 0 L 3.132812 0 L 3.132812 -5.203125 L 2.058594 -5.203125 L 2.058594 -2.769531 L 1.132812 -5.203125 L 0.25 -5.203125 Z M 0.25 0 "/></g></g></g><g fill="#091242" fill-opacity="1"><g transform="translate(28.091905, 41.858393)"><g><path d="M 1.726562 0.0625 C 0.914062 0.0742188 0.375 -0.511719 0.230469 -1.539062 L 1.125 -1.851562 C 1.195312 -1.425781 1.414062 -1.175781 1.726562 -1.175781 C 2.058594 -1.175781 2.238281 -1.300781 2.238281 -1.53125 C 2.238281 -2.089844 0.15625 -2.277344 0.15625 -3.808594 C 0.15625 -4.746094 0.707031 -5.265625 1.6875 -5.265625 C 2.496094 -5.265625 3.039062 -4.691406 3.183594 -3.664062 L 2.277344 -3.351562 C 2.226562 -3.796875 2.007812 -4.046875 1.6875 -4.046875 C 1.351562 -4.046875 1.164062 -3.921875 1.164062 -3.683594 C 1.164062 -3.195312 3.257812 -2.933594 3.257812 -1.40625 C 3.257812 -0.449219 2.707031 0.0820312 1.726562 0.0625 Z M 1.726562 0.0625 "/></g></g></g><g fill="#091242" fill-opacity="1"><g transform="translate(32.868745, 41.858393)"><g><path d="M 1.726562 -5.203125 L 0.25 -5.203125 L 0.25 0 L 1.332031 0 L 1.332031 -1.84375 L 1.925781 -1.84375 C 2.695312 -1.957031 3.132812 -2.539062 3.132812 -3.507812 C 3.132812 -4.589844 2.632812 -5.203125 1.726562 -5.203125 Z M 1.75 -3.050781 L 1.332031 -3.050781 L 1.332031 -3.984375 L 1.75 -3.984375 C 2.019531 -3.976562 2.175781 -3.808594 2.175781 -3.507812 C 2.175781 -3.214844 2.019531 -3.050781 1.75 -3.050781 Z M 1.75 -3.050781 "/></g></g></g><g fill="#091242" fill-opacity="1"><g transform="translate(37.541585, 41.858393)"><g><path d="M 1.738281 0.0625 C 2.714844 0.0625 3.277344 -0.894531 3.277344 -2.601562 C 3.277344 -4.308594 2.714844 -5.265625 1.738281 -5.265625 C 0.757812 -5.265625 0.207031 -4.308594 0.207031 -2.601562 C 0.207031 -0.894531 0.757812 0.0625 1.738281 0.0625 Z M 1.75 -1.238281 C 1.425781 -1.238281 1.25 -1.726562 1.25 -2.601562 C 1.25 -3.476562 1.425781 -3.964844 1.75 -3.964844 C 2.050781 -3.964844 2.214844 -3.476562 2.238281 -2.601562 C 2.214844 -1.726562 2.050781 -1.238281 1.75 -1.238281 Z M 1.75 -1.238281 "/></g></g></g><g fill="#091242" fill-opacity="1"><g transform="translate(42.380829, 41.858393)"><g><path d="M 2.675781 -2.246094 C 2.976562 -2.519531 3.132812 -2.957031 3.132812 -3.539062 C 3.132812 -4.597656 2.632812 -5.203125 1.726562 -5.203125 L 0.25 -5.203125 L 0.25 0 L 1.332031 0 L 1.332031 -1.851562 L 1.644531 -1.851562 C 1.945312 -1.726562 2.113281 -1.425781 2.113281 -0.96875 L 2.113281 0 L 3.109375 0 L 3.109375 -0.863281 C 3.109375 -1.476562 2.964844 -1.945312 2.675781 -2.246094 Z M 1.75 -3.050781 L 1.332031 -3.050781 L 1.332031 -3.984375 L 1.75 -3.984375 C 2.019531 -3.984375 2.175781 -3.808594 2.175781 -3.507812 C 2.175781 -3.214844 2.019531 -3.050781 1.75 -3.050781 Z M 1.75 -3.050781 "/></g></g></g><g fill="#091242" fill-opacity="1"><g transform="translate(47.074465, 41.858393)"><g><path d="M 3.109375 -3.902344 L 3.109375 -5.203125 L 0.21875 -5.203125 L 0.21875 -3.902344 L 1.125 -3.902344 L 1.125 0 L 2.207031 0 L 2.207031 -3.902344 Z M 3.109375 -3.902344 "/></g></g></g><g fill="#091242" fill-opacity="1"><g transform="translate(51.757702, 41.858393)"><g/></g></g><g fill="#091242" fill-opacity="1"><g transform="translate(54.184051, 41.858393)"><g><path d="M 2.332031 -0.738281 L 2.488281 0 L 3.539062 0 L 2.351562 -5.203125 L 1.25 -5.203125 L 0.0625 0 L 1.113281 0 L 1.269531 -0.738281 Z M 2.058594 -1.933594 L 1.539062 -1.933594 L 1.800781 -3.484375 Z M 2.058594 -1.933594 "/></g></g></g><g fill="#091242" fill-opacity="1"><g transform="translate(59.1377, 41.858393)"><g><path d="M 0.25 0 L 1.332031 0 L 1.332031 -2.445312 L 2.246094 0 L 3.132812 0 L 3.132812 -5.203125 L 2.058594 -5.203125 L 2.058594 -2.769531 L 1.132812 -5.203125 L 0.25 -5.203125 Z M 0.25 0 "/></g></g></g><g fill="#091242" fill-opacity="1"><g transform="translate(63.872938, 41.858393)"><g><path d="M 1.414062 -5.203125 L 0.25 -5.203125 L 0.25 0 L 1.414062 0 C 2.519531 0 3.132812 -0.9375 3.132812 -2.601562 C 3.132812 -4.265625 2.519531 -5.203125 1.414062 -5.203125 Z M 1.582031 -1.300781 L 1.332031 -1.300781 L 1.332031 -3.902344 L 1.582031 -3.902344 C 1.902344 -3.902344 2.089844 -3.433594 2.089844 -2.601562 C 2.089844 -1.769531 1.902344 -1.300781 1.582031 -1.300781 Z M 1.582031 -1.300781 "/></g></g></g><g fill="#091242" fill-opacity="1"><g transform="translate(68.556175, 41.858393)"><g/></g></g><g fill="#091242" fill-opacity="1"><g transform="translate(70.982524, 41.858393)"><g><path d="M 2.726562 -1.300781 L 1.332031 -1.300781 L 1.332031 -5.203125 L 0.25 -5.203125 L 0.25 0 L 2.726562 0 Z M 2.726562 -1.300781 "/></g></g></g><g fill="#091242" fill-opacity="1"><g transform="translate(75.270547, 41.858393)"><g><path d="M 1.738281 0.0625 C 2.714844 0.0625 3.277344 -0.894531 3.277344 -2.601562 C 3.277344 -4.308594 2.714844 -5.265625 1.738281 -5.265625 C 0.757812 -5.265625 0.207031 -4.308594 0.207031 -2.601562 C 0.207031 -0.894531 0.757812 0.0625 1.738281 0.0625 Z M 1.75 -1.238281 C 1.425781 -1.238281 1.25 -1.726562 1.25 -2.601562 C 1.25 -3.476562 1.425781 -3.964844 1.75 -3.964844 C 2.050781 -3.964844 2.214844 -3.476562 2.238281 -2.601562 C 2.214844 -1.726562 2.050781 -1.238281 1.75 -1.238281 Z M 1.75 -1.238281 "/></g></g></g><g fill="#091242" fill-opacity="1"><g transform="translate(80.109791, 41.858393)"><g><path d="M 3.234375 0 L 3.246094 -2.839844 L 1.6875 -2.839844 L 1.6875 -1.832031 L 2.039062 -1.832031 C 1.976562 -1.4375 1.863281 -1.238281 1.726562 -1.238281 C 1.425781 -1.238281 1.25 -1.726562 1.25 -2.601562 C 1.25 -3.476562 1.425781 -3.964844 1.726562 -3.964844 C 1.964844 -3.964844 2.132812 -3.664062 2.183594 -3.089844 L 3.214844 -3.339844 C 3.089844 -4.578125 2.558594 -5.265625 1.726562 -5.265625 C 0.75 -5.265625 0.207031 -4.308594 0.207031 -2.601562 C 0.207031 -0.894531 0.75 0.0625 1.726562 0.0625 C 2.070312 0.0625 2.363281 -0.167969 2.621094 -0.582031 L 2.738281 0 Z M 3.234375 0 "/></g></g></g><g fill="#091242" fill-opacity="1"><g transform="translate(84.959434, 41.858393)"><g><path d="M 1.332031 -5.203125 L 0.25 -5.203125 L 0.25 0 L 1.332031 0 Z M 1.332031 -5.203125 "/></g></g></g><g fill="#091242" fill-opacity="1"><g transform="translate(87.884998, 41.858393)"><g><path d="M 1.726562 0.0625 C 0.914062 0.0742188 0.375 -0.511719 0.230469 -1.539062 L 1.125 -1.851562 C 1.195312 -1.425781 1.414062 -1.175781 1.726562 -1.175781 C 2.058594 -1.175781 2.238281 -1.300781 2.238281 -1.53125 C 2.238281 -2.089844 0.15625 -2.277344 0.15625 -3.808594 C 0.15625 -4.746094 0.707031 -5.265625 1.6875 -5.265625 C 2.496094 -5.265625 3.039062 -4.691406 3.183594 -3.664062 L 2.277344 -3.351562 C 2.226562 -3.796875 2.007812 -4.046875 1.6875 -4.046875 C 1.351562 -4.046875 1.164062 -3.921875 1.164062 -3.683594 C 1.164062 -3.195312 3.257812 -2.933594 3.257812 -1.40625 C 3.257812 -0.449219 2.707031 0.0820312 1.726562 0.0625 Z M 1.726562 0.0625 "/></g></g></g><g fill="#091242" fill-opacity="1"><g transform="translate(92.661839, 41.858393)"><g><path d="M 3.109375 -3.902344 L 3.109375 -5.203125 L 0.21875 -5.203125 L 0.21875 -3.902344 L 1.125 -3.902344 L 1.125 0 L 2.207031 0 L 2.207031 -3.902344 Z M 3.109375 -3.902344 "/></g></g></g><g fill="#091242" fill-opacity="1"><g transform="translate(97.345076, 41.858393)"><g><path d="M 1.332031 -5.203125 L 0.25 -5.203125 L 0.25 0 L 1.332031 0 Z M 1.332031 -5.203125 "/></g></g></g><g fill="#091242" fill-opacity="1"><g transform="translate(100.270641, 41.858393)"><g><path d="M 2.121094 -2.121094 L 3.140625 -1.882812 C 2.976562 -0.632812 2.457031 0.0625 1.695312 0.0625 C 0.738281 0.0625 0.207031 -0.894531 0.207031 -2.601562 C 0.207031 -4.308594 0.738281 -5.265625 1.695312 -5.265625 C 2.464844 -5.265625 2.988281 -4.566406 3.140625 -3.320312 L 2.121094 -3.089844 C 2.058594 -3.652344 1.902344 -3.964844 1.695312 -3.964844 C 1.414062 -3.964844 1.25 -3.476562 1.25 -2.601562 C 1.25 -1.726562 1.414062 -1.238281 1.695312 -1.238281 C 1.925781 -1.238281 2.082031 -1.550781 2.121094 -2.121094 Z M 2.121094 -2.121094 "/></g></g></g><g fill="#091242" fill-opacity="1"><g transform="translate(104.97468, 41.858393)"><g><path d="M 1.726562 0.0625 C 0.914062 0.0742188 0.375 -0.511719 0.230469 -1.539062 L 1.125 -1.851562 C 1.195312 -1.425781 1.414062 -1.175781 1.726562 -1.175781 C 2.058594 -1.175781 2.238281 -1.300781 2.238281 -1.53125 C 2.238281 -2.089844 0.15625 -2.277344 0.15625 -3.808594 C 0.15625 -4.746094 0.707031 -5.265625 1.6875 -5.265625 C 2.496094 -5.265625 3.039062 -4.691406 3.183594 -3.664062 L 2.277344 -3.351562 C 2.226562 -3.796875 2.007812 -4.046875 1.6875 -4.046875 C 1.351562 -4.046875 1.164062 -3.921875 1.164062 -3.683594 C 1.164062 -3.195312 3.257812 -2.933594 3.257812 -1.40625 C 3.257812 -0.449219 2.707031 0.0820312 1.726562 0.0625 Z M 1.726562 0.0625 "/></g></g></g></svg>