<svg xmlns="http://www.w3.org/2000/svg" xmlns:xlink="http://www.w3.org/1999/xlink" width="494" zoomAndPan="magnify" viewBox="0 0 370.5 141.750002" height="189" preserveAspectRatio="xMidYMid meet" version="1.0"><defs><g/><clipPath id="05d42f4729"><path d="M 50.015625 50 L 137.972656 50 L 137.972656 104.863281 L 50.015625 104.863281 Z M 50.015625 50 " clip-rule="nonzero"/></clipPath></defs><g fill="#ffffff" fill-opacity="1"><g transform="translate(23.002592, 100.537135)"><g><path d="M 50.980469 -28.097656 L 73.976562 -56.644531 L 47.921875 -56.644531 L 37.726562 -43.503906 L 27.53125 -56.644531 L 1.472656 -56.644531 L 24.46875 -28.097656 L 1.472656 0 L 28.324219 0 L 37.726562 -12.460938 L 47.128906 0 L 73.976562 0 Z M 50.980469 -28.097656 "/></g></g></g><g fill="#ffffff" fill-opacity="1"><g transform="translate(97.649867, 100.537135)"><g><path d="M 56.078125 -8.609375 L 60.269531 0 L 84.402344 0 L 55.398438 -56.644531 L 30.25 -56.644531 L 0.792969 0 L 25.039062 0 L 29.34375 -8.609375 Z M 48.941406 -22.769531 L 36.480469 -22.769531 L 42.824219 -36.820312 Z M 48.941406 -22.769531 "/></g></g></g><g fill="#ffffff" fill-opacity="1"><g transform="translate(182.944869, 100.537135)"><g><path d="M 46.335938 0 L 72.390625 0 L 48.375 -32.402344 L 71.9375 -56.644531 L 46.789062 -56.644531 L 29.796875 -38.746094 L 29.796875 -56.644531 L 4.644531 -56.644531 L 4.644531 0 L 29.796875 0 L 29.796875 -13.027344 L 33.648438 -17.21875 Z M 46.335938 0 "/></g></g></g><g fill="#ffffff" fill-opacity="1"><g transform="translate(255.32669, 100.537135)"><g><path d="M 56.078125 -8.609375 L 60.269531 0 L 84.402344 0 L 55.398438 -56.644531 L 30.25 -56.644531 L 0.792969 0 L 25.039062 0 L 29.34375 -8.609375 Z M 48.941406 -22.769531 L 36.480469 -22.769531 L 42.824219 -36.820312 Z M 48.941406 -22.769531 "/></g></g></g><g clip-path="url(#05d42f4729)"><path fill="#091242" d="M 49.875 81.292969 C 50.207031 81.117188 50.570312 81.941406 52.132812 82.828125 C 53.421875 83.5625 56.070312 83.691406 57.34375 83.355469 C 58.566406 83.035156 60.117188 82.277344 61.246094 80.394531 C 60.496094 80.800781 59.679688 81.097656 58.824219 81.304688 C 56.925781 81.761719 54.210938 81.617188 52.507812 80.199219 C 51.234375 79.140625 50.355469 77.988281 50.539062 77.894531 C 50.871094 77.71875 51.234375 78.542969 52.796875 79.429688 C 54.085938 80.164062 56.734375 80.292969 58.007812 79.957031 C 58.761719 79.757812 59.636719 79.394531 60.464844 78.707031 C 61.222656 78.074219 61.679688 77.152344 61.761719 76.164062 C 62.074219 72.558594 63.132812 68.765625 65.503906 65.644531 C 67.855469 62.550781 71.757812 60.691406 75.097656 58.527344 C 77.757812 56.804688 81.199219 54.089844 84.011719 52.335938 C 88.082031 49.804688 93.359375 50.949219 97.246094 53.464844 C 102.019531 56.550781 106.554688 59.878906 111.675781 62.382812 C 116.195312 64.59375 121.199219 65.738281 125.632812 68.121094 C 126.921875 68.8125 127.992188 69.613281 129.042969 70.265625 C 131.644531 71.875 136.007812 71.925781 134.738281 69.425781 C 133.605469 67.199219 129.101562 66.21875 127.210938 65.652344 C 125.152344 65.035156 122.390625 64.296875 121.648438 62.195312 C 120.898438 60.074219 121.9375 56.933594 123.289062 55.28125 C 124.378906 53.945312 125.4375 53.039062 126.699219 52.746094 C 127.648438 52.523438 129.996094 52.753906 129.984375 53.191406 C 129.96875 53.640625 127.296875 53.351562 127.511719 55.15625 C 127.652344 56.328125 127.382812 57.914062 125.707031 58.058594 C 124.074219 58.203125 123.226562 57.867188 122.464844 59.804688 C 122.039062 60.886719 122.21875 62.214844 123.089844 63.074219 C 124.367188 64.34375 128.09375 65.121094 130.492188 65.714844 C 132.625 66.238281 136.1875 67.554688 136.699219 70.160156 C 137.066406 72.039062 134.976562 72.703125 133.503906 73.460938 C 132.929688 73.757812 132.6875 74.441406 132.9375 75.035156 C 133.851562 77.222656 134.0625 79.871094 133.574219 83.300781 C 133.265625 85.441406 133.25 86.539062 133.574219 88.726562 C 133.925781 91.136719 135.691406 92.179688 136.160156 93.855469 C 136.367188 94.601562 136.382812 95.398438 136.539062 96.675781 C 136.617188 97.328125 136.769531 97.820312 137.121094 98.398438 C 137.429688 98.90625 137.839844 99.164062 137.851562 99.554688 C 137.859375 99.929688 137.675781 100.328125 137.625 100.699219 C 137.582031 101 137.597656 101.347656 137.789062 101.832031 C 138.03125 102.441406 138.308594 103.605469 138.128906 104.097656 C 137.886719 104.769531 136.25 104.75 135.503906 104.742188 C 133.789062 104.71875 132.894531 104.421875 133.171875 103.457031 C 133.597656 101.953125 134.839844 101.308594 135.289062 100.363281 C 135.761719 99.375 134.777344 98.644531 133.109375 96.085938 C 131.941406 94.292969 128.386719 93.316406 125.246094 90.746094 C 122.09375 88.160156 121.59375 86.167969 117.671875 85.117188 C 116.71875 84.863281 114.675781 84.539062 113.394531 84.671875 C 114.796875 84.875 116.910156 85.292969 118.0625 85.832031 C 119.75 86.617188 120.78125 87.355469 121.640625 88.234375 C 122.214844 88.820312 122.246094 89.75 121.714844 90.382812 C 121.644531 90.46875 121.574219 90.554688 121.503906 90.636719 C 120.171875 92.203125 118.496094 93.367188 117.085938 94.460938 C 115.898438 95.378906 115.304688 96.128906 115.003906 96.71875 C 114.632812 97.433594 114.878906 97.675781 114.65625 98.128906 C 114.359375 98.730469 113.875 98.421875 113.683594 99.074219 C 113.496094 99.722656 114.265625 100.609375 113.898438 101.648438 C 113.722656 102.148438 111.992188 102.292969 111.140625 102.285156 C 109.1875 102.261719 108.226562 102.03125 108.707031 101.101562 C 109.867188 98.855469 111.117188 98.382812 111.761719 97.050781 C 112.542969 95.433594 113.207031 93.957031 113.574219 92.929688 C 114.199219 91.203125 113.445312 89.34375 112.359375 87.996094 C 111.734375 87.226562 110.421875 86.472656 108.976562 86.285156 C 107.75 86.125 105.703125 86.574219 103.644531 87.191406 C 103.230469 87.316406 102.875 86.871094 103.089844 86.492188 C 104.238281 84.464844 104.359375 82.277344 104.097656 80.320312 C 103.980469 82.320312 103.246094 84.496094 101.695312 86.265625 C 100.726562 87.371094 96.410156 90.632812 94.316406 93.238281 C 93.722656 93.972656 93.535156 94.875 93.09375 95.460938 C 92.730469 95.949219 92.023438 96.363281 91.539062 96.773438 C 90.746094 97.445312 90.351562 98.144531 90.125 98.789062 C 89.855469 99.570312 90.03125 99.609375 89.824219 100.085938 C 89.542969 100.714844 89.089844 100.570312 88.933594 101.132812 C 88.746094 101.808594 89.363281 102.992188 89.066406 104.175781 C 88.933594 104.707031 87.203125 104.804688 86.402344 104.796875 C 84.574219 104.773438 83.496094 104.496094 83.902344 103.503906 C 84.84375 101.1875 86.097656 100.320312 86.859375 99.007812 C 87.535156 97.851562 88.035156 97.175781 88.382812 96.101562 C 88.570312 95.523438 88.335938 94.421875 88.570312 93.550781 C 88.96875 92.085938 89.929688 91.574219 89.722656 90.421875 C 89.234375 87.714844 88.808594 82.359375 89.425781 77.714844 C 88.269531 80.589844 88.386719 84.808594 88.796875 88.476562 C 88.886719 89.253906 88.253906 89.925781 87.476562 89.875 C 84.90625 89.707031 82.199219 88.5 80.570312 87.300781 C 81.71875 88.375 83.164062 89.289062 84.246094 89.804688 C 84.730469 90.035156 84.945312 90.609375 84.726562 91.097656 C 84.304688 92.042969 83.570312 93.097656 83.054688 93.617188 C 82.636719 94.035156 81.980469 94.476562 81.5 94.863281 C 80.707031 95.503906 80.308594 96.171875 80.082031 96.78125 C 79.8125 97.523438 79.988281 97.5625 79.78125 98.011719 C 79.503906 98.613281 79.046875 98.472656 78.890625 99.011719 C 78.707031 99.652344 79.324219 100.777344 79.027344 101.902344 C 78.894531 102.410156 77.160156 102.503906 76.363281 102.492188 C 74.535156 102.472656 73.457031 102.207031 73.859375 101.265625 C 74.800781 99.0625 76.058594 98.234375 76.820312 96.988281 C 77.492188 95.890625 77.996094 95.246094 78.339844 94.226562 C 78.527344 93.675781 78.296875 92.628906 78.53125 91.796875 C 78.925781 90.402344 79.433594 89.75 79.441406 88.632812 C 79.460938 86.871094 78.003906 86.390625 78.292969 84.691406 C 78.964844 80.691406 77.03125 76.574219 72.785156 75.34375 C 78.132812 77.675781 77.605469 82.007812 77.46875 83.542969 C 77.3125 85.304688 76.375 86.695312 76.117188 88.394531 C 75.96875 89.378906 76.984375 90.105469 76.511719 90.777344 C 76.03125 91.464844 75.410156 91.289062 74.847656 91.808594 C 74.433594 92.191406 72.394531 93.664062 70.785156 93.070312 C 69.875 92.738281 69.121094 91.738281 69.234375 90.730469 C 69.269531 90.398438 69.226562 90.0625 69.074219 89.761719 C 68.738281 89.089844 67.144531 86.835938 66.769531 86.382812 C 66.5 86.054688 66.242188 85.65625 65.78125 85.640625 C 65.507812 85.632812 65.25 85.675781 64.984375 85.625 C 64.140625 85.464844 62.867188 83.628906 62.769531 83.292969 C 62.691406 83.03125 62.683594 82.703125 62.855469 82.507812 C 63.332031 81.957031 63.921875 80.488281 63.953125 79.769531 C 63.832031 80.273438 63.617188 80.761719 63.371094 81.164062 C 62.183594 83.125 60.292969 84.191406 58.160156 84.703125 C 56.265625 85.160156 53.550781 85.015625 51.84375 83.597656 C 50.574219 82.542969 49.691406 81.386719 49.875 81.292969 " fill-opacity="1" fill-rule="nonzero"/></g><g fill="#ffffff" fill-opacity="1"><g transform="translate(26.034341, 129.95272)"><g><path d="M 9.75 -12.226562 L 9.75 -16.300781 L 0.683594 -16.300781 L 0.683594 -12.226562 L 3.519531 -12.226562 L 3.519531 0 L 6.910156 0 L 6.910156 -12.226562 Z M 9.75 -12.226562 "/></g></g></g><g fill="#ffffff" fill-opacity="1"><g transform="translate(40.70775, 129.95272)"><g><path d="M 8.378906 -7.042969 C 9.324219 -7.890625 9.8125 -9.257812 9.8125 -11.085938 C 9.8125 -14.410156 8.25 -16.300781 5.410156 -16.300781 L 0.78125 -16.300781 L 0.78125 0 L 4.171875 0 L 4.171875 -5.804688 L 5.152344 -5.804688 C 6.097656 -5.410156 6.617188 -4.464844 6.617188 -3.03125 L 6.617188 0 L 9.75 0 L 9.75 -2.707031 C 9.75 -4.628906 9.292969 -6.097656 8.378906 -7.042969 Z M 5.476562 -9.550781 L 4.171875 -9.550781 L 4.171875 -12.488281 L 5.476562 -12.488281 C 6.324219 -12.488281 6.8125 -11.933594 6.8125 -10.988281 C 6.8125 -10.074219 6.324219 -9.550781 5.476562 -9.550781 Z M 5.476562 -9.550781 "/></g></g></g><g fill="#ffffff" fill-opacity="1"><g transform="translate(55.413737, 129.95272)"><g><path d="M 7.304688 -2.316406 L 7.792969 0 L 11.085938 0 L 7.367188 -16.300781 L 3.914062 -16.300781 L 0.195312 0 L 3.488281 0 L 3.976562 -2.316406 Z M 6.457031 -6.0625 L 4.824219 -6.0625 L 5.640625 -10.921875 Z M 6.457031 -6.0625 "/></g></g></g><g fill="#ffffff" fill-opacity="1"><g transform="translate(70.934395, 129.95272)"><g><path d="M 0.78125 0 L 4.171875 0 L 4.171875 -7.660156 L 7.042969 0 L 9.8125 0 L 9.8125 -16.300781 L 6.457031 -16.300781 L 6.457031 -8.671875 L 3.554688 -16.300781 L 0.78125 -16.300781 Z M 0.78125 0 "/></g></g></g><g fill="#ffffff" fill-opacity="1"><g transform="translate(85.770731, 129.95272)"><g><path d="M 5.410156 0.195312 C 2.867188 0.226562 1.171875 -1.597656 0.71875 -4.824219 L 3.519531 -5.804688 C 3.75 -4.464844 4.433594 -3.683594 5.410156 -3.683594 C 6.457031 -3.683594 7.007812 -4.074219 7.007812 -4.792969 C 7.007812 -6.554688 0.488281 -7.140625 0.488281 -11.933594 C 0.488281 -14.867188 2.21875 -16.496094 5.28125 -16.496094 C 7.824219 -16.496094 9.519531 -14.703125 9.976562 -11.476562 L 7.140625 -10.5 C 6.976562 -11.898438 6.292969 -12.683594 5.28125 -12.683594 C 4.238281 -12.683594 3.652344 -12.292969 3.652344 -11.542969 C 3.652344 -10.007812 10.203125 -9.195312 10.203125 -4.402344 C 10.203125 -1.402344 8.476562 0.261719 5.410156 0.195312 Z M 5.410156 0.195312 "/></g></g></g><g fill="#ffffff" fill-opacity="1"><g transform="translate(100.737411, 129.95272)"><g><path d="M 5.410156 -16.300781 L 0.78125 -16.300781 L 0.78125 0 L 4.171875 0 L 4.171875 -5.769531 L 6.03125 -5.769531 C 8.445312 -6.128906 9.8125 -7.953125 9.8125 -10.988281 C 9.8125 -14.378906 8.25 -16.300781 5.410156 -16.300781 Z M 5.476562 -9.550781 L 4.171875 -9.550781 L 4.171875 -12.488281 L 5.476562 -12.488281 C 6.324219 -12.453125 6.8125 -11.933594 6.8125 -10.988281 C 6.8125 -10.074219 6.324219 -9.550781 5.476562 -9.550781 Z M 5.476562 -9.550781 "/></g></g></g><g fill="#ffffff" fill-opacity="1"><g transform="translate(115.378237, 129.95272)"><g><path d="M 5.445312 0.195312 C 8.507812 0.195312 10.269531 -2.804688 10.269531 -8.152344 C 10.269531 -13.496094 8.507812 -16.496094 5.445312 -16.496094 C 2.378906 -16.496094 0.652344 -13.496094 0.652344 -8.152344 C 0.652344 -2.804688 2.378906 0.195312 5.445312 0.195312 Z M 5.476562 -3.878906 C 4.464844 -3.878906 3.914062 -5.410156 3.914062 -8.152344 C 3.914062 -10.890625 4.464844 -12.421875 5.476562 -12.421875 C 6.421875 -12.421875 6.945312 -10.890625 7.007812 -8.152344 C 6.945312 -5.410156 6.421875 -3.878906 5.476562 -3.878906 Z M 5.476562 -3.878906 "/></g></g></g><g fill="#ffffff" fill-opacity="1"><g transform="translate(130.54044, 129.95272)"><g><path d="M 8.378906 -7.042969 C 9.324219 -7.890625 9.8125 -9.257812 9.8125 -11.085938 C 9.8125 -14.410156 8.25 -16.300781 5.410156 -16.300781 L 0.78125 -16.300781 L 0.78125 0 L 4.171875 0 L 4.171875 -5.804688 L 5.152344 -5.804688 C 6.097656 -5.410156 6.617188 -4.464844 6.617188 -3.03125 L 6.617188 0 L 9.75 0 L 9.75 -2.707031 C 9.75 -4.628906 9.292969 -6.097656 8.378906 -7.042969 Z M 5.476562 -9.550781 L 4.171875 -9.550781 L 4.171875 -12.488281 L 5.476562 -12.488281 C 6.324219 -12.488281 6.8125 -11.933594 6.8125 -10.988281 C 6.8125 -10.074219 6.324219 -9.550781 5.476562 -9.550781 Z M 5.476562 -9.550781 "/></g></g></g><g fill="#ffffff" fill-opacity="1"><g transform="translate(145.246423, 129.95272)"><g><path d="M 9.75 -12.226562 L 9.75 -16.300781 L 0.683594 -16.300781 L 0.683594 -12.226562 L 3.519531 -12.226562 L 3.519531 0 L 6.910156 0 L 6.910156 -12.226562 Z M 9.75 -12.226562 "/></g></g></g><g fill="#ffffff" fill-opacity="1"><g transform="translate(159.919828, 129.95272)"><g/></g></g><g fill="#ffffff" fill-opacity="1"><g transform="translate(167.522005, 129.95272)"><g><path d="M 7.304688 -2.316406 L 7.792969 0 L 11.085938 0 L 7.367188 -16.300781 L 3.914062 -16.300781 L 0.195312 0 L 3.488281 0 L 3.976562 -2.316406 Z M 6.457031 -6.0625 L 4.824219 -6.0625 L 5.640625 -10.921875 Z M 6.457031 -6.0625 "/></g></g></g><g fill="#ffffff" fill-opacity="1"><g transform="translate(183.042658, 129.95272)"><g><path d="M 0.78125 0 L 4.171875 0 L 4.171875 -7.660156 L 7.042969 0 L 9.8125 0 L 9.8125 -16.300781 L 6.457031 -16.300781 L 6.457031 -8.671875 L 3.554688 -16.300781 L 0.78125 -16.300781 Z M 0.78125 0 "/></g></g></g><g fill="#ffffff" fill-opacity="1"><g transform="translate(197.878989, 129.95272)"><g><path d="M 4.433594 -16.300781 L 0.78125 -16.300781 L 0.78125 0 L 4.433594 0 C 7.890625 0 9.8125 -2.933594 9.8125 -8.152344 C 9.8125 -13.367188 7.890625 -16.300781 4.433594 -16.300781 Z M 4.957031 -4.074219 L 4.171875 -4.074219 L 4.171875 -12.226562 L 4.957031 -12.226562 C 5.964844 -12.226562 6.554688 -10.757812 6.554688 -8.152344 C 6.554688 -5.542969 5.964844 -4.074219 4.957031 -4.074219 Z M 4.957031 -4.074219 "/></g></g></g><g fill="#ffffff" fill-opacity="1"><g transform="translate(212.552394, 129.95272)"><g/></g></g><g fill="#ffffff" fill-opacity="1"><g transform="translate(220.154571, 129.95272)"><g><path d="M 8.542969 -4.074219 L 4.171875 -4.074219 L 4.171875 -16.300781 L 0.78125 -16.300781 L 0.78125 0 L 8.542969 0 Z M 8.542969 -4.074219 "/></g></g></g><g fill="#ffffff" fill-opacity="1"><g transform="translate(233.589699, 129.95272)"><g><path d="M 5.445312 0.195312 C 8.507812 0.195312 10.269531 -2.804688 10.269531 -8.152344 C 10.269531 -13.496094 8.507812 -16.496094 5.445312 -16.496094 C 2.378906 -16.496094 0.652344 -13.496094 0.652344 -8.152344 C 0.652344 -2.804688 2.378906 0.195312 5.445312 0.195312 Z M 5.476562 -3.878906 C 4.464844 -3.878906 3.914062 -5.410156 3.914062 -8.152344 C 3.914062 -10.890625 4.464844 -12.421875 5.476562 -12.421875 C 6.421875 -12.421875 6.945312 -10.890625 7.007812 -8.152344 C 6.945312 -5.410156 6.421875 -3.878906 5.476562 -3.878906 Z M 5.476562 -3.878906 "/></g></g></g><g fill="#ffffff" fill-opacity="1"><g transform="translate(248.751902, 129.95272)"><g><path d="M 10.140625 0 L 10.171875 -8.902344 L 5.28125 -8.902344 L 5.28125 -5.738281 L 6.390625 -5.738281 C 6.195312 -4.5 5.835938 -3.878906 5.410156 -3.878906 C 4.464844 -3.878906 3.914062 -5.410156 3.914062 -8.152344 C 3.914062 -10.890625 4.464844 -12.421875 5.410156 -12.421875 C 6.160156 -12.421875 6.683594 -11.476562 6.847656 -9.683594 L 10.074219 -10.464844 C 9.683594 -14.34375 8.019531 -16.496094 5.410156 -16.496094 C 2.347656 -16.496094 0.652344 -13.496094 0.652344 -8.152344 C 0.652344 -2.804688 2.347656 0.195312 5.410156 0.195312 C 6.488281 0.195312 7.402344 -0.523438 8.214844 -1.824219 L 8.574219 0 Z M 10.140625 0 "/></g></g></g><g fill="#ffffff" fill-opacity="1"><g transform="translate(263.946683, 129.95272)"><g><path d="M 4.171875 -16.300781 L 0.78125 -16.300781 L 0.78125 0 L 4.171875 0 Z M 4.171875 -16.300781 "/></g></g></g><g fill="#ffffff" fill-opacity="1"><g transform="translate(273.112991, 129.95272)"><g><path d="M 5.410156 0.195312 C 2.867188 0.226562 1.171875 -1.597656 0.71875 -4.824219 L 3.519531 -5.804688 C 3.75 -4.464844 4.433594 -3.683594 5.410156 -3.683594 C 6.457031 -3.683594 7.007812 -4.074219 7.007812 -4.792969 C 7.007812 -6.554688 0.488281 -7.140625 0.488281 -11.933594 C 0.488281 -14.867188 2.21875 -16.496094 5.28125 -16.496094 C 7.824219 -16.496094 9.519531 -14.703125 9.976562 -11.476562 L 7.140625 -10.5 C 6.976562 -11.898438 6.292969 -12.683594 5.28125 -12.683594 C 4.238281 -12.683594 3.652344 -12.292969 3.652344 -11.542969 C 3.652344 -10.007812 10.203125 -9.195312 10.203125 -4.402344 C 10.203125 -1.402344 8.476562 0.261719 5.410156 0.195312 Z M 5.410156 0.195312 "/></g></g></g><g fill="#ffffff" fill-opacity="1"><g transform="translate(288.079671, 129.95272)"><g><path d="M 9.75 -12.226562 L 9.75 -16.300781 L 0.683594 -16.300781 L 0.683594 -12.226562 L 3.519531 -12.226562 L 3.519531 0 L 6.910156 0 L 6.910156 -12.226562 Z M 9.75 -12.226562 "/></g></g></g><g fill="#ffffff" fill-opacity="1"><g transform="translate(302.753076, 129.95272)"><g><path d="M 4.171875 -16.300781 L 0.78125 -16.300781 L 0.78125 0 L 4.171875 0 Z M 4.171875 -16.300781 "/></g></g></g><g fill="#ffffff" fill-opacity="1"><g transform="translate(311.919383, 129.95272)"><g><path d="M 6.652344 -6.652344 L 9.847656 -5.902344 C 9.324219 -1.988281 7.695312 0.195312 5.3125 0.195312 C 2.316406 0.195312 0.652344 -2.804688 0.652344 -8.152344 C 0.652344 -13.496094 2.316406 -16.496094 5.3125 -16.496094 C 7.726562 -16.496094 9.355469 -14.3125 9.847656 -10.398438 L 6.652344 -9.683594 C 6.457031 -11.445312 5.964844 -12.421875 5.3125 -12.421875 C 4.433594 -12.421875 3.914062 -10.890625 3.914062 -8.152344 C 3.914062 -5.410156 4.433594 -3.878906 5.3125 -3.878906 C 6.03125 -3.878906 6.519531 -4.859375 6.652344 -6.652344 Z M 6.652344 -6.652344 "/></g></g></g><g fill="#ffffff" fill-opacity="1"><g transform="translate(326.657962, 129.95272)"><g><path d="M 5.410156 0.195312 C 2.867188 0.226562 1.171875 -1.597656 0.71875 -4.824219 L 3.519531 -5.804688 C 3.75 -4.464844 4.433594 -3.683594 5.410156 -3.683594 C 6.457031 -3.683594 7.007812 -4.074219 7.007812 -4.792969 C 7.007812 -6.554688 0.488281 -7.140625 0.488281 -11.933594 C 0.488281 -14.867188 2.21875 -16.496094 5.28125 -16.496094 C 7.824219 -16.496094 9.519531 -14.703125 9.976562 -11.476562 L 7.140625 -10.5 C 6.976562 -11.898438 6.292969 -12.683594 5.28125 -12.683594 C 4.238281 -12.683594 3.652344 -12.292969 3.652344 -11.542969 C 3.652344 -10.007812 10.203125 -9.195312 10.203125 -4.402344 C 10.203125 -1.402344 8.476562 0.261719 5.410156 0.195312 Z M 5.410156 0.195312 "/></g></g></g></svg>