<svg xmlns="http://www.w3.org/2000/svg" xmlns:xlink="http://www.w3.org/1999/xlink" width="161" zoomAndPan="magnify" viewBox="0 0 120.75 46.499999" height="62" preserveAspectRatio="xMidYMid meet" version="1.0"><defs><g/><clipPath id="592374deae"><path d="M 16.632812 16.046875 L 44.933594 16.046875 L 44.933594 33.773438 L 16.632812 33.773438 Z M 16.632812 16.046875 " clip-rule="nonzero"/></clipPath></defs><g fill="#ffffff" fill-opacity="1"><g transform="translate(7.938831, 32.381462)"><g><path d="M 16.402344 -9.039062 L 23.804688 -18.226562 L 15.417969 -18.226562 L 12.140625 -14 L 8.859375 -18.226562 L 0.472656 -18.226562 L 7.875 -9.039062 L 0.472656 0 L 9.113281 0 L 12.140625 -4.011719 L 15.164062 0 L 23.804688 0 Z M 16.402344 -9.039062 "/></g></g></g><g fill="#ffffff" fill-opacity="1"><g transform="translate(31.958088, 32.381462)"><g><path d="M 18.042969 -2.769531 L 19.394531 0 L 27.15625 0 L 17.824219 -18.226562 L 9.734375 -18.226562 L 0.253906 0 L 8.054688 0 L 9.441406 -2.769531 Z M 15.746094 -7.328125 L 11.738281 -7.328125 L 13.78125 -11.847656 Z M 15.746094 -7.328125 "/></g></g></g><g fill="#ffffff" fill-opacity="1"><g transform="translate(59.403464, 32.381462)"><g><path d="M 14.910156 0 L 23.292969 0 L 15.566406 -10.425781 L 23.148438 -18.226562 L 15.054688 -18.226562 L 9.585938 -12.46875 L 9.585938 -18.226562 L 1.496094 -18.226562 L 1.496094 0 L 9.585938 0 L 9.585938 -4.191406 L 10.828125 -5.539062 Z M 14.910156 0 "/></g></g></g><g fill="#ffffff" fill-opacity="1"><g transform="translate(82.693766, 32.381462)"><g><path d="M 18.042969 -2.769531 L 19.394531 0 L 27.15625 0 L 17.824219 -18.226562 L 9.734375 -18.226562 L 0.253906 0 L 8.054688 0 L 9.441406 -2.769531 Z M 15.746094 -7.328125 L 11.738281 -7.328125 L 13.78125 -11.847656 Z M 15.746094 -7.328125 "/></g></g></g><g clip-path="url(#592374deae)"><path fill="#091242" d="M 16.585938 26.1875 C 16.691406 26.132812 16.808594 26.398438 17.3125 26.683594 C 17.726562 26.917969 18.578125 26.960938 18.988281 26.851562 C 19.382812 26.75 19.882812 26.507812 20.246094 25.898438 C 20.003906 26.03125 19.742188 26.125 19.464844 26.191406 C 18.855469 26.339844 17.980469 26.292969 17.433594 25.835938 C 17.023438 25.496094 16.738281 25.125 16.796875 25.09375 C 16.90625 25.039062 17.023438 25.304688 17.523438 25.589844 C 17.941406 25.828125 18.792969 25.867188 19.203125 25.761719 C 19.445312 25.695312 19.726562 25.578125 19.992188 25.355469 C 20.238281 25.152344 20.382812 24.855469 20.410156 24.539062 C 20.511719 23.378906 20.851562 22.15625 21.613281 21.15625 C 22.371094 20.160156 23.625 19.5625 24.703125 18.863281 C 25.558594 18.308594 26.664062 17.4375 27.570312 16.871094 C 28.878906 16.058594 30.578125 16.425781 31.828125 17.234375 C 33.363281 18.226562 34.824219 19.296875 36.472656 20.105469 C 37.925781 20.816406 39.535156 21.183594 40.960938 21.949219 C 41.378906 22.171875 41.722656 22.429688 42.058594 22.640625 C 42.894531 23.160156 44.300781 23.175781 43.890625 22.371094 C 43.527344 21.65625 42.078125 21.339844 41.46875 21.15625 C 40.808594 20.957031 39.917969 20.71875 39.679688 20.042969 C 39.4375 19.359375 39.773438 18.351562 40.207031 17.820312 C 40.558594 17.390625 40.898438 17.097656 41.304688 17.003906 C 41.609375 16.933594 42.367188 17.007812 42.363281 17.148438 C 42.359375 17.292969 41.496094 17.199219 41.566406 17.777344 C 41.613281 18.15625 41.527344 18.667969 40.984375 18.714844 C 40.460938 18.757812 40.1875 18.652344 39.941406 19.273438 C 39.804688 19.621094 39.863281 20.050781 40.144531 20.328125 C 40.554688 20.734375 41.753906 20.984375 42.527344 21.175781 C 43.210938 21.34375 44.359375 21.769531 44.523438 22.605469 C 44.640625 23.210938 43.96875 23.425781 43.496094 23.667969 C 43.308594 23.765625 43.230469 23.984375 43.3125 24.175781 C 43.605469 24.878906 43.675781 25.730469 43.515625 26.835938 C 43.417969 27.523438 43.414062 27.875 43.515625 28.582031 C 43.632812 29.355469 44.199219 29.691406 44.347656 30.230469 C 44.414062 30.472656 44.421875 30.726562 44.472656 31.140625 C 44.496094 31.347656 44.546875 31.507812 44.660156 31.695312 C 44.757812 31.855469 44.890625 31.9375 44.894531 32.066406 C 44.894531 32.1875 44.835938 32.316406 44.820312 32.433594 C 44.808594 32.53125 44.8125 32.644531 44.875 32.796875 C 44.949219 32.992188 45.039062 33.367188 44.984375 33.527344 C 44.90625 33.742188 44.378906 33.738281 44.136719 33.734375 C 43.585938 33.726562 43.300781 33.632812 43.386719 33.320312 C 43.527344 32.835938 43.925781 32.628906 44.070312 32.324219 C 44.222656 32.007812 43.90625 31.773438 43.367188 30.949219 C 42.992188 30.371094 41.847656 30.058594 40.835938 29.230469 C 39.824219 28.398438 39.664062 27.757812 38.402344 27.417969 C 38.09375 27.335938 37.4375 27.234375 37.023438 27.277344 C 37.476562 27.34375 38.15625 27.476562 38.527344 27.648438 C 39.070312 27.902344 39.402344 28.140625 39.675781 28.421875 C 39.863281 28.613281 39.871094 28.910156 39.703125 29.113281 C 39.679688 29.140625 39.65625 29.167969 39.632812 29.195312 C 39.203125 29.699219 38.664062 30.074219 38.210938 30.425781 C 37.828125 30.722656 37.640625 30.964844 37.542969 31.152344 C 37.421875 31.382812 37.503906 31.460938 37.429688 31.605469 C 37.335938 31.800781 37.179688 31.699219 37.117188 31.910156 C 37.058594 32.117188 37.304688 32.402344 37.1875 32.738281 C 37.128906 32.898438 36.574219 32.945312 36.300781 32.941406 C 35.671875 32.9375 35.363281 32.863281 35.515625 32.5625 C 35.890625 31.839844 36.292969 31.6875 36.5 31.257812 C 36.75 30.738281 36.964844 30.265625 37.082031 29.933594 C 37.28125 29.378906 37.042969 28.78125 36.691406 28.347656 C 36.492188 28.097656 36.066406 27.855469 35.601562 27.796875 C 35.207031 27.742188 34.550781 27.886719 33.886719 28.085938 C 33.753906 28.128906 33.640625 27.984375 33.707031 27.863281 C 34.078125 27.210938 34.117188 26.503906 34.03125 25.875 C 33.996094 26.519531 33.757812 27.21875 33.257812 27.789062 C 32.949219 28.144531 31.558594 29.195312 30.886719 30.03125 C 30.695312 30.269531 30.632812 30.558594 30.492188 30.75 C 30.375 30.90625 30.148438 31.039062 29.992188 31.171875 C 29.738281 31.386719 29.609375 31.613281 29.535156 31.820312 C 29.449219 32.070312 29.507812 32.082031 29.4375 32.234375 C 29.351562 32.4375 29.203125 32.390625 29.152344 32.574219 C 29.09375 32.789062 29.292969 33.171875 29.195312 33.550781 C 29.152344 33.722656 28.597656 33.753906 28.339844 33.75 C 27.75 33.746094 27.402344 33.65625 27.535156 33.335938 C 27.835938 32.589844 28.242188 32.3125 28.488281 31.890625 C 28.703125 31.515625 28.863281 31.300781 28.976562 30.953125 C 29.035156 30.769531 28.960938 30.414062 29.035156 30.132812 C 29.164062 29.660156 29.472656 29.496094 29.40625 29.125 C 29.25 28.257812 29.113281 26.53125 29.3125 25.039062 C 28.941406 25.964844 28.976562 27.320312 29.109375 28.5 C 29.136719 28.75 28.933594 28.96875 28.683594 28.949219 C 27.859375 28.894531 26.988281 28.507812 26.464844 28.121094 C 26.832031 28.46875 27.296875 28.761719 27.644531 28.925781 C 27.800781 29 27.871094 29.1875 27.800781 29.34375 C 27.664062 29.648438 27.429688 29.988281 27.261719 30.15625 C 27.128906 30.289062 26.917969 30.429688 26.761719 30.554688 C 26.503906 30.761719 26.378906 30.976562 26.304688 31.171875 C 26.21875 31.410156 26.277344 31.425781 26.207031 31.570312 C 26.117188 31.761719 25.972656 31.71875 25.921875 31.890625 C 25.863281 32.097656 26.0625 32.460938 25.964844 32.820312 C 25.921875 32.984375 25.363281 33.015625 25.109375 33.011719 C 24.519531 33.003906 24.171875 32.917969 24.304688 32.617188 C 24.605469 31.90625 25.011719 31.640625 25.253906 31.238281 C 25.472656 30.886719 25.632812 30.679688 25.746094 30.351562 C 25.804688 30.171875 25.730469 29.835938 25.804688 29.570312 C 25.933594 29.121094 26.097656 28.910156 26.097656 28.550781 C 26.105469 27.984375 25.636719 27.828125 25.730469 27.285156 C 25.945312 25.996094 25.324219 24.671875 23.957031 24.273438 C 25.679688 25.027344 25.507812 26.417969 25.464844 26.914062 C 25.414062 27.480469 25.113281 27.925781 25.03125 28.472656 C 24.980469 28.789062 25.308594 29.027344 25.15625 29.242188 C 25 29.460938 24.800781 29.40625 24.621094 29.574219 C 24.488281 29.695312 23.832031 30.171875 23.3125 29.980469 C 23.019531 29.871094 22.777344 29.550781 22.816406 29.226562 C 22.828125 29.121094 22.8125 29.011719 22.765625 28.914062 C 22.65625 28.699219 22.144531 27.972656 22.023438 27.828125 C 21.933594 27.722656 21.851562 27.59375 21.703125 27.589844 C 21.617188 27.585938 21.53125 27.601562 21.449219 27.582031 C 21.175781 27.53125 20.765625 26.941406 20.734375 26.832031 C 20.710938 26.75 20.707031 26.644531 20.761719 26.578125 C 20.914062 26.402344 21.105469 25.929688 21.117188 25.699219 C 21.078125 25.863281 21.007812 26.019531 20.929688 26.148438 C 20.546875 26.777344 19.9375 27.121094 19.253906 27.285156 C 18.640625 27.433594 17.769531 27.386719 17.21875 26.929688 C 16.808594 26.589844 16.527344 26.21875 16.585938 26.1875 " fill-opacity="1" fill-rule="nonzero"/></g><g fill="#ffffff" fill-opacity="1"><g transform="translate(8.914356, 41.846516)"><g><path d="M 3.136719 -3.933594 L 3.136719 -5.246094 L 0.21875 -5.246094 L 0.21875 -3.933594 L 1.132812 -3.933594 L 1.132812 0 L 2.222656 0 L 2.222656 -3.933594 Z M 3.136719 -3.933594 "/></g></g></g><g fill="#ffffff" fill-opacity="1"><g transform="translate(13.63582, 41.846516)"><g><path d="M 2.695312 -2.265625 C 3 -2.539062 3.15625 -2.980469 3.15625 -3.566406 C 3.15625 -4.636719 2.652344 -5.246094 1.742188 -5.246094 L 0.25 -5.246094 L 0.25 0 L 1.34375 0 L 1.34375 -1.867188 L 1.65625 -1.867188 C 1.960938 -1.742188 2.128906 -1.4375 2.128906 -0.976562 L 2.128906 0 L 3.136719 0 L 3.136719 -0.871094 C 3.136719 -1.488281 2.988281 -1.960938 2.695312 -2.265625 Z M 1.761719 -3.074219 L 1.34375 -3.074219 L 1.34375 -4.019531 L 1.761719 -4.019531 C 2.035156 -4.019531 2.191406 -3.839844 2.191406 -3.535156 C 2.191406 -3.242188 2.035156 -3.074219 1.761719 -3.074219 Z M 1.761719 -3.074219 "/></g></g></g><g fill="#ffffff" fill-opacity="1"><g transform="translate(18.367766, 41.846516)"><g><path d="M 2.351562 -0.746094 L 2.507812 0 L 3.566406 0 L 2.371094 -5.246094 L 1.257812 -5.246094 L 0.0625 0 L 1.121094 0 L 1.28125 -0.746094 Z M 2.078125 -1.953125 L 1.550781 -1.953125 L 1.816406 -3.515625 Z M 2.078125 -1.953125 "/></g></g></g><g fill="#ffffff" fill-opacity="1"><g transform="translate(23.361849, 41.846516)"><g><path d="M 0.25 0 L 1.34375 0 L 1.34375 -2.464844 L 2.265625 0 L 3.15625 0 L 3.15625 -5.246094 L 2.078125 -5.246094 L 2.078125 -2.789062 L 1.144531 -5.246094 L 0.25 -5.246094 Z M 0.25 0 "/></g></g></g><g fill="#ffffff" fill-opacity="1"><g transform="translate(28.135737, 41.846516)"><g><path d="M 1.742188 0.0625 C 0.921875 0.0742188 0.378906 -0.515625 0.230469 -1.550781 L 1.132812 -1.867188 C 1.207031 -1.4375 1.425781 -1.183594 1.742188 -1.183594 C 2.078125 -1.183594 2.253906 -1.3125 2.253906 -1.542969 C 2.253906 -2.109375 0.15625 -2.296875 0.15625 -3.839844 C 0.15625 -4.785156 0.714844 -5.308594 1.699219 -5.308594 C 2.519531 -5.308594 3.0625 -4.730469 3.210938 -3.691406 L 2.296875 -3.378906 C 2.246094 -3.828125 2.023438 -4.082031 1.699219 -4.082031 C 1.363281 -4.082031 1.175781 -3.953125 1.175781 -3.714844 C 1.175781 -3.21875 3.285156 -2.957031 3.285156 -1.417969 C 3.285156 -0.449219 2.726562 0.0820312 1.742188 0.0625 Z M 1.742188 0.0625 "/></g></g></g><g fill="#ffffff" fill-opacity="1"><g transform="translate(32.951567, 41.846516)"><g><path d="M 1.742188 -5.246094 L 0.25 -5.246094 L 0.25 0 L 1.34375 0 L 1.34375 -1.855469 L 1.941406 -1.855469 C 2.71875 -1.972656 3.15625 -2.558594 3.15625 -3.535156 C 3.15625 -4.625 2.652344 -5.246094 1.742188 -5.246094 Z M 1.761719 -3.074219 L 1.34375 -3.074219 L 1.34375 -4.019531 L 1.761719 -4.019531 C 2.035156 -4.007812 2.191406 -3.839844 2.191406 -3.535156 C 2.191406 -3.242188 2.035156 -3.074219 1.761719 -3.074219 Z M 1.761719 -3.074219 "/></g></g></g><g fill="#ffffff" fill-opacity="1"><g transform="translate(37.662547, 41.846516)"><g><path d="M 1.75 0.0625 C 2.738281 0.0625 3.304688 -0.902344 3.304688 -2.621094 C 3.304688 -4.34375 2.738281 -5.308594 1.75 -5.308594 C 0.765625 -5.308594 0.210938 -4.34375 0.210938 -2.621094 C 0.210938 -0.902344 0.765625 0.0625 1.75 0.0625 Z M 1.761719 -1.25 C 1.4375 -1.25 1.257812 -1.742188 1.257812 -2.621094 C 1.257812 -3.503906 1.4375 -3.996094 1.761719 -3.996094 C 2.066406 -3.996094 2.234375 -3.503906 2.253906 -2.621094 C 2.234375 -1.742188 2.066406 -1.25 1.761719 -1.25 Z M 1.761719 -1.25 "/></g></g></g><g fill="#ffffff" fill-opacity="1"><g transform="translate(42.54129, 41.846516)"><g><path d="M 2.695312 -2.265625 C 3 -2.539062 3.15625 -2.980469 3.15625 -3.566406 C 3.15625 -4.636719 2.652344 -5.246094 1.742188 -5.246094 L 0.25 -5.246094 L 0.25 0 L 1.34375 0 L 1.34375 -1.867188 L 1.65625 -1.867188 C 1.960938 -1.742188 2.128906 -1.4375 2.128906 -0.976562 L 2.128906 0 L 3.136719 0 L 3.136719 -0.871094 C 3.136719 -1.488281 2.988281 -1.960938 2.695312 -2.265625 Z M 1.761719 -3.074219 L 1.34375 -3.074219 L 1.34375 -4.019531 L 1.761719 -4.019531 C 2.035156 -4.019531 2.191406 -3.839844 2.191406 -3.535156 C 2.191406 -3.242188 2.035156 -3.074219 1.761719 -3.074219 Z M 1.761719 -3.074219 "/></g></g></g><g fill="#ffffff" fill-opacity="1"><g transform="translate(47.273235, 41.846516)"><g><path d="M 3.136719 -3.933594 L 3.136719 -5.246094 L 0.21875 -5.246094 L 0.21875 -3.933594 L 1.132812 -3.933594 L 1.132812 0 L 2.222656 0 L 2.222656 -3.933594 Z M 3.136719 -3.933594 "/></g></g></g><g fill="#ffffff" fill-opacity="1"><g transform="translate(51.994697, 41.846516)"><g/></g></g><g fill="#ffffff" fill-opacity="1"><g transform="translate(54.44085, 41.846516)"><g><path d="M 2.351562 -0.746094 L 2.507812 0 L 3.566406 0 L 2.371094 -5.246094 L 1.257812 -5.246094 L 0.0625 0 L 1.121094 0 L 1.28125 -0.746094 Z M 2.078125 -1.953125 L 1.550781 -1.953125 L 1.816406 -3.515625 Z M 2.078125 -1.953125 "/></g></g></g><g fill="#ffffff" fill-opacity="1"><g transform="translate(59.434931, 41.846516)"><g><path d="M 0.25 0 L 1.34375 0 L 1.34375 -2.464844 L 2.265625 0 L 3.15625 0 L 3.15625 -5.246094 L 2.078125 -5.246094 L 2.078125 -2.789062 L 1.144531 -5.246094 L 0.25 -5.246094 Z M 0.25 0 "/></g></g></g><g fill="#ffffff" fill-opacity="1"><g transform="translate(64.208818, 41.846516)"><g><path d="M 1.425781 -5.246094 L 0.25 -5.246094 L 0.25 0 L 1.425781 0 C 2.539062 0 3.15625 -0.945312 3.15625 -2.621094 C 3.15625 -4.300781 2.539062 -5.246094 1.425781 -5.246094 Z M 1.59375 -1.3125 L 1.34375 -1.3125 L 1.34375 -3.933594 L 1.59375 -3.933594 C 1.917969 -3.933594 2.109375 -3.460938 2.109375 -2.621094 C 2.109375 -1.785156 1.917969 -1.3125 1.59375 -1.3125 Z M 1.59375 -1.3125 "/></g></g></g><g fill="#ffffff" fill-opacity="1"><g transform="translate(68.930281, 41.846516)"><g/></g></g><g fill="#ffffff" fill-opacity="1"><g transform="translate(71.376434, 41.846516)"><g><path d="M 2.75 -1.3125 L 1.34375 -1.3125 L 1.34375 -5.246094 L 0.25 -5.246094 L 0.25 0 L 2.75 0 Z M 2.75 -1.3125 "/></g></g></g><g fill="#ffffff" fill-opacity="1"><g transform="translate(75.699455, 41.846516)"><g><path d="M 1.75 0.0625 C 2.738281 0.0625 3.304688 -0.902344 3.304688 -2.621094 C 3.304688 -4.34375 2.738281 -5.308594 1.75 -5.308594 C 0.765625 -5.308594 0.210938 -4.34375 0.210938 -2.621094 C 0.210938 -0.902344 0.765625 0.0625 1.75 0.0625 Z M 1.761719 -1.25 C 1.4375 -1.25 1.257812 -1.742188 1.257812 -2.621094 C 1.257812 -3.503906 1.4375 -3.996094 1.761719 -3.996094 C 2.066406 -3.996094 2.234375 -3.503906 2.253906 -2.621094 C 2.234375 -1.742188 2.066406 -1.25 1.761719 -1.25 Z M 1.761719 -1.25 "/></g></g></g><g fill="#ffffff" fill-opacity="1"><g transform="translate(80.578198, 41.846516)"><g><path d="M 3.261719 0 L 3.273438 -2.863281 L 1.699219 -2.863281 L 1.699219 -1.847656 L 2.054688 -1.847656 C 1.992188 -1.449219 1.878906 -1.25 1.742188 -1.25 C 1.4375 -1.25 1.257812 -1.742188 1.257812 -2.621094 C 1.257812 -3.503906 1.4375 -3.996094 1.742188 -3.996094 C 1.984375 -3.996094 2.152344 -3.691406 2.203125 -3.117188 L 3.242188 -3.367188 C 3.117188 -4.617188 2.582031 -5.308594 1.742188 -5.308594 C 0.753906 -5.308594 0.210938 -4.34375 0.210938 -2.621094 C 0.210938 -0.902344 0.753906 0.0625 1.742188 0.0625 C 2.085938 0.0625 2.382812 -0.167969 2.644531 -0.585938 L 2.757812 0 Z M 3.261719 0 "/></g></g></g><g fill="#ffffff" fill-opacity="1"><g transform="translate(85.467424, 41.846516)"><g><path d="M 1.34375 -5.246094 L 0.25 -5.246094 L 0.25 0 L 1.34375 0 Z M 1.34375 -5.246094 "/></g></g></g><g fill="#ffffff" fill-opacity="1"><g transform="translate(88.416868, 41.846516)"><g><path d="M 1.742188 0.0625 C 0.921875 0.0742188 0.378906 -0.515625 0.230469 -1.550781 L 1.132812 -1.867188 C 1.207031 -1.4375 1.425781 -1.183594 1.742188 -1.183594 C 2.078125 -1.183594 2.253906 -1.3125 2.253906 -1.542969 C 2.253906 -2.109375 0.15625 -2.296875 0.15625 -3.839844 C 0.15625 -4.785156 0.714844 -5.308594 1.699219 -5.308594 C 2.519531 -5.308594 3.0625 -4.730469 3.210938 -3.691406 L 2.296875 -3.378906 C 2.246094 -3.828125 2.023438 -4.082031 1.699219 -4.082031 C 1.363281 -4.082031 1.175781 -3.953125 1.175781 -3.714844 C 1.175781 -3.21875 3.285156 -2.957031 3.285156 -1.417969 C 3.285156 -0.449219 2.726562 0.0820312 1.742188 0.0625 Z M 1.742188 0.0625 "/></g></g></g><g fill="#ffffff" fill-opacity="1"><g transform="translate(93.232697, 41.846516)"><g><path d="M 3.136719 -3.933594 L 3.136719 -5.246094 L 0.21875 -5.246094 L 0.21875 -3.933594 L 1.132812 -3.933594 L 1.132812 0 L 2.222656 0 L 2.222656 -3.933594 Z M 3.136719 -3.933594 "/></g></g></g><g fill="#ffffff" fill-opacity="1"><g transform="translate(97.954159, 41.846516)"><g><path d="M 1.34375 -5.246094 L 0.25 -5.246094 L 0.25 0 L 1.34375 0 Z M 1.34375 -5.246094 "/></g></g></g><g fill="#ffffff" fill-opacity="1"><g transform="translate(100.903603, 41.846516)"><g><path d="M 2.140625 -2.140625 L 3.167969 -1.898438 C 3 -0.640625 2.476562 0.0625 1.710938 0.0625 C 0.746094 0.0625 0.210938 -0.902344 0.210938 -2.621094 C 0.210938 -4.34375 0.746094 -5.308594 1.710938 -5.308594 C 2.484375 -5.308594 3.011719 -4.605469 3.167969 -3.347656 L 2.140625 -3.117188 C 2.078125 -3.683594 1.917969 -3.996094 1.710938 -3.996094 C 1.425781 -3.996094 1.257812 -3.503906 1.257812 -2.621094 C 1.257812 -1.742188 1.425781 -1.25 1.710938 -1.25 C 1.941406 -1.25 2.097656 -1.5625 2.140625 -2.140625 Z M 2.140625 -2.140625 "/></g></g></g><g fill="#ffffff" fill-opacity="1"><g transform="translate(105.646036, 41.846516)"><g><path d="M 1.742188 0.0625 C 0.921875 0.0742188 0.378906 -0.515625 0.230469 -1.550781 L 1.132812 -1.867188 C 1.207031 -1.4375 1.425781 -1.183594 1.742188 -1.183594 C 2.078125 -1.183594 2.253906 -1.3125 2.253906 -1.542969 C 2.253906 -2.109375 0.15625 -2.296875 0.15625 -3.839844 C 0.15625 -4.785156 0.714844 -5.308594 1.699219 -5.308594 C 2.519531 -5.308594 3.0625 -4.730469 3.210938 -3.691406 L 2.296875 -3.378906 C 2.246094 -3.828125 2.023438 -4.082031 1.699219 -4.082031 C 1.363281 -4.082031 1.175781 -3.953125 1.175781 -3.714844 C 1.175781 -3.21875 3.285156 -2.957031 3.285156 -1.417969 C 3.285156 -0.449219 2.726562 0.0820312 1.742188 0.0625 Z M 1.742188 0.0625 "/></g></g></g></svg>