<svg width="40" height="40" viewBox="0 0 40 40" fill="none" xmlns="http://www.w3.org/2000/svg">
<path d="M32.9659 13.4252C32.8853 13.2943 32.7789 13.1652 32.5571 13.0668L29.3888 11.4604C29.3451 11.4384 29.2982 11.4217 29.2495 11.4105C29.2331 11.4073 29.217 11.4073 29.2002 11.405C29.1677 11.4001 29.1352 11.3948 29.1028 11.3951L29.096 11.3948V11.3961C29.0022 11.3975 28.9102 11.4197 28.8287 11.4607L21.7028 15.0736L21.6961 15.0634L21.1203 15.3552C20.4273 15.7068 19.5732 15.7068 18.8802 15.3552L15.7653 13.7763C15.592 13.6882 15.4854 13.5258 15.4854 13.3501C15.4854 13.1743 15.592 13.0119 15.7653 12.9239L18.8802 11.3456C19.5732 10.994 20.4273 10.994 21.1203 11.3456L21.8708 11.7259C22.0442 11.8134 22.2575 11.8134 22.4308 11.7259L25.3318 10.2552C25.5051 10.1674 25.6118 10.005 25.6118 9.82935C25.6118 9.65366 25.5051 9.49132 25.3318 9.40347L21.1203 7.26822C20.4272 6.9171 19.5734 6.9171 18.8802 7.26822L8.56428 12.4983C7.81756 12.877 7.81756 13.8235 8.56428 14.2018L18.8802 19.4319C19.5734 19.783 20.4272 19.783 21.1203 19.4319L29.096 15.388V24.5988L26.5326 25.902L21.1203 28.6542C20.9493 28.7406 20.7662 28.807 20.5756 28.8519C20.0031 28.9854 19.3936 28.9143 18.8806 28.6542L11.4645 24.8948C11.1179 24.7192 10.9043 24.3945 10.9045 24.0431V18.674C10.9045 18.4982 10.7973 18.3356 10.6245 18.2484L7.72385 16.777C7.55051 16.6892 7.33695 16.6892 7.16365 16.7771C6.99035 16.865 6.88366 17.0275 6.88379 17.2032V26.0813C6.88379 26.4331 7.09735 26.7576 7.44383 26.9337L18.8798 32.7316C19.2161 32.9017 19.5969 32.9921 19.985 32.9939V32.9946L19.9924 32.9942C20.0477 32.9946 20.1015 32.9893 20.1563 32.9857C20.1989 32.9834 20.2415 32.9834 20.2833 32.9792C20.3415 32.9719 20.3983 32.9601 20.455 32.9497C20.4935 32.9424 20.5334 32.9385 20.5711 32.9293C20.6327 32.9156 20.6929 32.8952 20.7526 32.8762C20.7858 32.8657 20.8194 32.8588 20.8512 32.847C20.943 32.8142 21.0326 32.7759 21.12 32.7316L30.9856 27.7297L32.55 26.9504C32.9004 26.7756 33.117 26.449 33.1171 26.0951V13.9179C33.1171 13.7419 33.0634 13.5727 32.9659 13.4252Z" fill="url(#paint0_linear_123_954)"/>
<path d="M21.0917 4.32721C20.7596 4.15894 20.3837 4.06885 20.0004 4.06566C19.6168 4.06888 19.2407 4.15897 18.9083 4.32721L5.12696 11.3139C4.4359 11.6644 4.01015 12.3119 4.00998 13.0127V26.9865C4.00985 27.6873 4.43568 28.3349 5.12696 28.6852L18.9083 35.672C19.2453 35.8428 19.6273 35.9333 20.0164 35.9345C20.4054 35.9334 20.7874 35.843 21.1244 35.6723L34.8447 28.7163C35.5359 28.3661 35.9617 27.7186 35.9617 27.0178V22.9801C35.9616 22.8048 36.0681 22.6428 36.241 22.5551L39.1623 21.0741C39.3351 20.9864 39.5481 20.9865 39.7209 21.0742C39.8937 21.1618 40.0001 21.3238 40 21.4991V29.0197C39.9989 29.3403 39.9081 29.6558 39.7356 29.9384C39.6928 30.1241 39.4631 30.3428 39.1381 30.5665C39.1306 30.572 39.122 30.5769 39.1142 30.5828C38.2888 31.1458 36.9238 31.7284 36.6818 31.851L21.1244 39.7381C20.7759 39.9143 20.3797 40.0046 19.9777 39.9997V40L19.9717 39.9997L19.9602 40V39.9987C19.5903 39.9901 19.2287 39.9005 18.9083 39.7378L1.11699 30.7182C0.425925 30.3678 0.000153275 29.7204 0 29.0197V10.9801C0 10.6653 0.0454241 10.3445 0.202919 10.0729C0.224514 10.0026 0.440092 9.65601 0.88428 9.37092C1.05183 9.27186 1.34783 9.13879 1.62521 8.99788L18.8577 0.261709C19.205 0.0861365 19.5997 -0.00420162 20.0004 0.000156809C20.4009 -0.00429345 20.7953 0.0860549 21.1423 0.261709L37.0433 8.32242C37.0802 8.34171 37.1081 8.36492 37.1387 8.38716L37.3405 8.48851C37.8815 8.74025 38.7289 9.12375 39.1868 9.4301L39.2252 9.45494C39.231 9.45902 39.237 9.46295 39.2431 9.46671C39.2598 9.47848 39.271 9.49025 39.2866 9.50268C39.4542 9.62659 39.5979 9.77208 39.7096 9.93489C39.7122 9.93685 39.7144 9.9398 39.717 9.94241L39.7163 9.94274C39.9018 10.2152 39.9998 10.5267 40 10.8441V17.4499C40.0001 17.6253 39.8937 17.7873 39.7208 17.875L36.7991 19.356C36.6262 19.4436 36.4133 19.4436 36.2404 19.3559C36.0676 19.2682 35.9612 19.1062 35.9614 18.931V12.9745C35.9613 12.2727 35.5344 11.6244 34.8418 11.2744L21.0917 4.32688V4.32721Z" fill="url(#paint1_linear_123_954)"/>
<defs>
<linearGradient id="paint0_linear_123_954" x1="20.0005" y1="7.00488" x2="20.0005" y2="32.9946" gradientUnits="userSpaceOnUse">
<stop stop-color="#FC3C3C"/>
<stop offset="0.489583" stop-color="#FC3C3C" stop-opacity="0.5"/>
<stop offset="0.979167" stop-color="#FC3C3C" stop-opacity="0.25"/>
</linearGradient>
<linearGradient id="paint1_linear_123_954" x1="20" y1="0" x2="20" y2="40" gradientUnits="userSpaceOnUse">
<stop stop-color="#FF8989"/>
<stop offset="0.510417" stop-color="#FF8989" stop-opacity="0.5"/>
<stop offset="1" stop-color="#FF8989" stop-opacity="0"/>
<stop offset="1" stop-color="#FF8989" stop-opacity="0.25"/>
</linearGradient>
</defs>
</svg>
