<svg xmlns="http://www.w3.org/2000/svg" width="1024" viewBox="0 0 768 767.999994" height="1024" preserveAspectRatio="xMidYMid meet"><defs><clipPath id="1db0d89936"><path d="M 397 257.21875 L 767.316406 257.21875 L 767.316406 685.472656 L 397 685.472656 Z M 397 257.21875 " clip-rule="nonzero"/></clipPath><clipPath id="4596d335e5"><path d="M 115.679688 82.558594 L 564 82.558594 L 564 685.472656 L 115.679688 685.472656 Z M 115.679688 82.558594 " clip-rule="nonzero"/></clipPath><clipPath id="aecb8d8c6e"><path d="M 0.683594 161.371094 L 256 161.371094 L 256 685.472656 L 0.683594 685.472656 Z M 0.683594 161.371094 " clip-rule="nonzero"/></clipPath></defs><g clip-path="url(#1db0d89936)"><path fill="#000000" d="M 691.75 501.386719 L 677.875 620.359375 C 677.035156 627.496094 670.988281 632.753906 663.957031 632.753906 C 663.425781 632.753906 662.878906 632.730469 662.320312 632.664062 C 654.617188 631.765625 649.109375 624.800781 650.007812 617.105469 L 663.882812 498.140625 C 664.78125 490.445312 671.621094 484.960938 679.441406 485.828125 C 687.132812 486.734375 692.640625 493.691406 691.75 501.386719 Z M 426.023438 424.605469 C 426.023438 420.820312 429.109375 417.734375 432.90625 417.734375 L 732.386719 417.734375 C 736.179688 417.734375 739.265625 420.820312 739.265625 424.605469 L 739.265625 430.855469 C 739.265625 434.648438 736.179688 437.734375 732.386719 437.734375 L 432.90625 437.734375 C 429.109375 437.734375 426.023438 434.648438 426.023438 430.855469 Z M 582.636719 285.824219 C 642.796875 285.824219 692.464844 331.304688 699.277344 389.679688 L 466.019531 389.679688 C 472.816406 331.304688 522.484375 285.824219 582.636719 285.824219 Z M 732.386719 389.679688 L 727.496094 389.679688 C 720.582031 315.800781 658.277344 257.769531 582.636719 257.769531 C 507.003906 257.769531 444.714844 315.800781 437.796875 389.679688 L 432.90625 389.679688 C 413.648438 389.679688 397.976562 405.34375 397.976562 424.605469 L 397.976562 430.855469 C 397.976562 445.324219 406.816406 457.753906 419.371094 463.054688 L 427.382812 510.679688 C 427.597656 511.953125 428.695312 512.875 429.984375 512.875 L 505.617188 512.875 C 533.117188 512.875 555.410156 535.175781 555.410156 562.679688 L 555.410156 586.542969 C 555.410156 588.796875 555.144531 591.011719 554.613281 593.160156 C 553.988281 595.722656 554.328125 598.433594 555.167969 600.9375 L 575.699219 662.558594 C 577.828125 668.964844 577.4375 675.804688 574.917969 681.910156 C 574.210938 683.617188 575.632812 685.472656 577.480469 685.472656 L 666.238281 685.472656 C 690.246094 685.472656 710.285156 670.3125 713.878906 649.421875 L 745.886719 463.0625 C 758.464844 457.78125 767.316406 445.332031 767.316406 430.855469 L 767.316406 424.605469 C 767.316406 405.34375 751.644531 389.679688 732.386719 389.679688 " fill-opacity="1" fill-rule="nonzero"/></g><g clip-path="url(#4596d335e5)"><path fill="#000000" d="M 517.644531 657.40625 L 500.808594 600.570312 L 510.691406 600.570312 L 529.640625 657.40625 Z M 471.453125 657.40625 L 456.730469 600.570312 L 471.550781 600.570312 L 488.390625 657.40625 Z M 425.699219 657.40625 L 415.175781 600.570312 L 427.746094 600.570312 L 442.480469 657.40625 Z M 377.378906 657.40625 L 373.167969 600.570312 L 386.652344 600.570312 L 397.175781 657.40625 Z M 364.792969 526.902344 L 314.25 526.902344 L 314.25 512.769531 L 364.792969 512.769531 Z M 329.78125 657.40625 L 333.996094 600.570312 L 345.035156 600.570312 L 349.253906 657.40625 Z M 301.65625 657.40625 L 281.855469 657.40625 L 292.386719 600.570312 L 305.863281 600.570312 Z M 253.332031 657.40625 L 236.554688 657.40625 L 251.285156 600.570312 L 263.863281 600.570312 Z M 207.582031 657.40625 L 190.644531 657.40625 L 207.480469 600.570312 L 222.304688 600.570312 Z M 161.390625 657.40625 L 149.402344 657.40625 L 168.351562 600.570312 L 178.226562 600.570312 Z M 538.425781 595.070312 C 540.253906 592.699219 541.386719 589.773438 541.386719 586.542969 L 541.386719 562.671875 C 541.386719 542.953125 525.339844 526.902344 505.617188 526.902344 L 392.84375 526.902344 L 392.84375 506.628906 C 392.84375 497.175781 386.785156 489.171875 378.375 486.101562 L 378.375 121.441406 C 378.375 100 360.949219 82.570312 339.519531 82.570312 C 318.085938 82.570312 300.65625 100 300.65625 121.441406 L 300.65625 486.101562 C 292.246094 489.171875 286.199219 497.175781 286.199219 506.628906 L 286.199219 526.902344 L 173.417969 526.902344 C 153.703125 526.902344 137.65625 542.953125 137.65625 562.671875 L 137.65625 586.542969 C 137.65625 589.765625 138.789062 592.699219 140.617188 595.070312 L 116.636719 667 C 115.210938 671.277344 115.929688 675.976562 118.566406 679.640625 C 121.203125 683.300781 125.429688 685.464844 129.945312 685.464844 L 549.089844 685.464844 C 553.605469 685.464844 557.832031 683.300781 560.46875 679.640625 C 563.105469 675.988281 563.820312 671.277344 562.398438 667 L 538.425781 595.070312 " fill-opacity="1" fill-rule="nonzero"/></g><g clip-path="url(#aecb8d8c6e)"><path fill="#000000" d="M 34.914062 201.871094 L 22.828125 201.871094 L 22.828125 183.851562 L 34.914062 183.851562 Z M 106.820312 267.21875 L 141.722656 267.21875 L 141.722656 280.042969 C 137.65625 280.742188 131.691406 281.363281 123.382812 281.363281 C 116.425781 281.363281 110.878906 280.675781 106.820312 279.910156 Z M 103.335938 662.566406 L 123.871094 600.9375 C 124.710938 598.433594 125.0625 595.722656 124.429688 593.160156 C 123.898438 591.011719 123.632812 588.796875 123.632812 586.542969 L 123.632812 562.671875 C 123.632812 535.175781 145.925781 512.875 173.417969 512.875 L 252.941406 512.875 C 254.722656 512.875 256.019531 511.203125 255.496094 509.507812 C 243.21875 469.835938 220.101562 416.820312 190.828125 381.390625 C 172.003906 358.609375 172.617188 335.679688 176.085938 314.289062 C 177.851562 303.453125 174.457031 295.566406 169.773438 290.109375 L 169.773438 257.136719 C 169.773438 249.8125 165.363281 243.523438 159.066406 240.726562 C 165.40625 236.933594 175.148438 235.613281 188.714844 235.152344 C 199.6875 234.78125 208.347656 234.480469 212.523438 227.566406 C 213.8125 225.425781 215.542969 220.96875 212.679688 215.019531 C 198.957031 186.648438 166.371094 165.578125 131.601562 162.625 C 100.605469 159.957031 49.015625 164.65625 43.863281 165.148438 L 13.476562 165.148438 C 8.3125 165.148438 4.128906 169.332031 4.128906 174.5 L 4.128906 211.226562 C 4.128906 216.382812 8.3125 220.578125 13.476562 220.578125 L 44.265625 220.578125 C 44.347656 220.578125 44.414062 220.527344 44.496094 220.527344 C 44.570312 220.527344 44.648438 220.558594 44.722656 220.558594 C 44.972656 220.550781 46.003906 220.527344 47.535156 220.570312 C 38.640625 251.0625 21.320312 276.066406 10.515625 291.558594 L 7.007812 296.632812 C 4.761719 299.910156 5.074219 304.285156 7.769531 307.042969 C 9.144531 308.457031 10.90625 309.171875 12.695312 309.171875 C 14.027344 309.171875 15.367188 308.78125 16.597656 307.988281 C 38.273438 293.851562 67.730469 270.957031 83.011719 233.53125 C 85.292969 235.613281 87.378906 238.050781 89.242188 240.851562 C 83.078125 243.699219 78.769531 249.90625 78.769531 257.136719 L 78.769531 290.433594 C 78.769531 291.347656 78.984375 292.222656 79.152344 293.097656 C 76.847656 296.132812 75.257812 299.328125 74.59375 302.722656 C 72.324219 314.113281 79.851562 324.480469 84.816406 331.34375 C 85.949219 332.902344 87.378906 334.878906 88.144531 336.195312 C 74.875 349.40625 78.546875 366.921875 86.53125 379.359375 C 79.617188 386.351562 72.324219 400.1875 78.511719 418.53125 C 42.25 441.304688 20.039062 464.683594 10.683594 489.921875 C -15.296875 559.976562 16.363281 641.933594 26.769531 668.863281 L 27.410156 670.527344 C 30.964844 679.746094 38.675781 685.472656 47.542969 685.472656 L 101.554688 685.472656 C 103.402344 685.472656 104.824219 683.617188 104.117188 681.902344 C 101.605469 675.804688 101.210938 668.957031 103.335938 662.566406 " fill-opacity="1" fill-rule="nonzero"/></g></svg>
