<svg xmlns="http://www.w3.org/2000/svg" width="1024" viewBox="0 0 768 767.999994" height="1024" preserveAspectRatio="xMidYMid meet"><defs><clipPath id="f2a39f05a7"><path d="M 5.28125 9 L 762.78125 9 L 762.78125 768 L 5.28125 768 Z M 5.28125 9 " clip-rule="nonzero"/></clipPath></defs><g clip-path="url(#f2a39f05a7)"><path fill="#000000" d="M 176.816406 595.933594 C 266.140625 595.933594 339.566406 664.03125 347.992188 751.140625 C 348.421875 755.585938 347.09375 759.578125 344.089844 762.886719 C 341.085938 766.195312 337.238281 767.898438 332.769531 767.898438 L 20.859375 767.898438 C 16.390625 767.898438 12.546875 766.195312 9.539062 762.886719 C 6.539062 759.578125 5.210938 755.585938 5.640625 751.140625 C 14.066406 664.03125 87.488281 595.933594 176.816406 595.933594 Z M 176.816406 406.757812 C 224.839844 406.757812 263.769531 445.6875 263.769531 493.703125 C 263.769531 541.722656 224.839844 580.648438 176.816406 580.648438 C 128.792969 580.648438 89.863281 541.71875 89.863281 493.703125 C 89.863281 445.6875 128.792969 406.757812 176.816406 406.757812 Z M 591.097656 595.933594 C 680.421875 595.933594 753.84375 664.03125 762.269531 751.140625 C 762.703125 755.585938 761.375 759.578125 758.371094 762.886719 C 755.367188 766.195312 751.519531 767.898438 747.050781 767.898438 L 435.140625 767.898438 C 430.671875 767.898438 426.824219 766.195312 423.820312 762.886719 C 420.816406 759.578125 419.492188 755.585938 419.921875 751.140625 C 428.347656 664.03125 501.765625 595.933594 591.097656 595.933594 Z M 591.097656 406.757812 C 639.117188 406.757812 678.046875 445.6875 678.046875 493.703125 C 678.046875 541.722656 639.117188 580.648438 591.097656 580.648438 C 543.074219 580.648438 504.144531 541.71875 504.144531 493.703125 C 504.144531 445.6875 543.074219 406.757812 591.097656 406.757812 Z M 388.042969 349.835938 C 408.503906 353.949219 430.101562 354.144531 451.835938 349.746094 C 478.902344 344.269531 503.003906 332.320312 522.863281 315.835938 L 572.671875 333.300781 C 575.667969 334.351562 578.828125 333.527344 580.929688 331.148438 C 583.03125 328.769531 583.457031 325.527344 582.042969 322.6875 L 558.183594 274.738281 C 578.296875 241.351562 586.457031 200.632812 578.117188 159.417969 C 565.886719 98.992188 521.398438 53.335938 466.21875 36.734375 C 507.429688 75.792969 530.28125 133.203125 522.867188 193.761719 C 513.480469 270.414062 458.25 330.46875 388.042969 349.835938 Z M 358.65625 10.941406 C 447.203125 21.78125 510.191406 102.34375 499.347656 190.882812 C 488.503906 279.417969 407.9375 342.402344 319.394531 331.558594 C 291.984375 328.203125 267.027344 318.164062 245.949219 303.277344 L 197.648438 324.558594 C 194.742188 325.839844 191.527344 325.261719 189.246094 323.054688 C 186.964844 320.84375 186.289062 317.648438 187.476562 314.703125 L 207.539062 265.042969 C 184.890625 233.320312 173.589844 193.359375 178.699219 151.621094 C 189.542969 63.082031 270.113281 0.101562 358.65625 10.941406 Z M 338.851562 155.964844 C 330.410156 155.964844 323.566406 162.808594 323.566406 171.25 C 323.566406 179.695312 330.40625 186.539062 338.851562 186.539062 C 347.296875 186.539062 354.140625 179.695312 354.140625 171.25 C 354.140625 162.808594 347.296875 155.964844 338.851562 155.964844 Z M 269.230469 155.964844 C 260.789062 155.964844 253.945312 162.808594 253.945312 171.25 C 253.945312 179.695312 260.789062 186.539062 269.230469 186.539062 C 277.675781 186.539062 284.519531 179.695312 284.519531 171.25 C 284.519531 162.808594 277.675781 155.964844 269.230469 155.964844 Z M 408.816406 155.964844 C 417.261719 155.964844 424.105469 162.808594 424.105469 171.25 C 424.105469 179.695312 417.261719 186.539062 408.816406 186.539062 C 400.375 186.539062 393.53125 179.695312 393.53125 171.25 C 393.53125 162.808594 400.375 155.964844 408.816406 155.964844 Z M 408.816406 155.964844 " fill-opacity="1" fill-rule="evenodd"/></g></svg>
