<svg xmlns="http://www.w3.org/2000/svg" xmlns:xlink="http://www.w3.org/1999/xlink" width="500" zoomAndPan="magnify" viewBox="0 0 375 374.999991" height="500" preserveAspectRatio="xMidYMid meet" version="1.0"><defs><filter x="0%" y="0%" width="100%" height="100%" id="a3ac2bb13b"><feColorMatrix values="0 0 0 0 1 0 0 0 0 1 0 0 0 0 1 0 0 0 1 0" color-interpolation-filters="sRGB"/></filter><mask id="a88c3021b5"><g filter="url(#a3ac2bb13b)"><rect x="-37.5" width="450" fill="#000000" y="-37.499999" height="449.999989" fill-opacity="0.2"/></g></mask><clipPath id="99d8e8ab17"><path d="M 0.679688 18 L 119 18 L 119 199 L 0.679688 199 Z M 0.679688 18 " clip-rule="nonzero"/></clipPath><clipPath id="c0d58f2ff8"><path d="M 3 0.574219 L 314 0.574219 L 314 122 L 3 122 Z M 3 0.574219 " clip-rule="nonzero"/></clipPath><clipPath id="67de7b0460"><path d="M 4 116 L 312 116 L 312 214.324219 L 4 214.324219 Z M 4 116 " clip-rule="nonzero"/></clipPath><clipPath id="a0a915197d"><path d="M 201 18 L 316.429688 18 L 316.429688 199 L 201 199 Z M 201 18 " clip-rule="nonzero"/></clipPath><clipPath id="75ee152f1c"><rect x="0" width="317" y="0" height="215"/></clipPath></defs><g mask="url(#a88c3021b5)"><g transform="matrix(1, 0, 0, 1, 29, 80)"><g clip-path="url(#75ee152f1c)"><g clip-path="url(#99d8e8ab17)"><path fill="#164e63" d="M 118.648438 108.453125 L 0.667969 18.835938 L 0.667969 198.058594 Z M 118.648438 108.453125 " fill-opacity="1" fill-rule="nonzero"/></g><g clip-path="url(#c0d58f2ff8)"><path fill="#164e63" d="M 167.039062 119.300781 L 313.144531 4.402344 C 310.980469 2.113281 307.925781 0.667969 304.566406 0.667969 L 12.515625 0.667969 C 8.929688 0.667969 5.765625 2.292969 3.570312 4.804688 L 154.492188 119.414062 C 157.804688 121.9375 163.773438 121.886719 167.039062 119.300781 " fill-opacity="1" fill-rule="nonzero"/></g><g clip-path="url(#67de7b0460)"><path fill="#164e63" d="M 175.050781 129.476562 C 171.03125 132.625 165.859375 134.207031 160.671875 134.207031 C 155.636719 134.207031 150.617188 132.707031 146.664062 129.71875 L 129.347656 116.578125 L 4.703125 211.234375 C 6.804688 213.078125 9.515625 214.234375 12.515625 214.234375 L 304.566406 214.234375 C 307.359375 214.234375 309.921875 213.207031 311.964844 211.574219 L 191.300781 116.675781 L 175.050781 129.476562 " fill-opacity="1" fill-rule="nonzero"/></g><g clip-path="url(#a0a915197d)"><path fill="#164e63" d="M 316.410156 198.617188 L 316.410156 18.289062 L 201.765625 108.460938 L 316.410156 198.617188 " fill-opacity="1" fill-rule="nonzero"/></g></g></g></g></svg>