<svg xmlns="http://www.w3.org/2000/svg" width="1024" viewBox="0 0 768 767.999994" height="1024" preserveAspectRatio="xMidYMid meet"><defs><clipPath id="6db2c25dd8"><path d="M 110 55.199219 L 439 55.199219 L 439 275 L 110 275 Z M 110 55.199219 " clip-rule="nonzero"/></clipPath><clipPath id="e94ba6cf27"><path d="M 312 533 L 658 533 L 658 712.949219 L 312 712.949219 Z M 312 533 " clip-rule="nonzero"/></clipPath></defs><g clip-path="url(#6db2c25dd8)"><path fill="#040606" d="M 110 55.199219 L 110 274.449219 L 438.800781 274.449219 L 438.800781 55.199219 Z M 178.5 123.714844 L 205.902344 151.121094 L 233.300781 123.714844 L 260.699219 151.121094 L 247 151.121094 L 247 192.230469 L 260.699219 192.230469 L 260.699219 219.636719 L 151.101562 219.636719 L 151.101562 192.230469 L 164.800781 192.230469 L 164.800781 151.121094 L 151.101562 151.121094 Z M 205.902344 151.121094 L 192.199219 151.121094 L 192.199219 192.230469 L 219.601562 192.230469 L 219.601562 151.121094 L 205.902344 151.121094 " fill-opacity="1" fill-rule="nonzero"/></g><path fill="#040606" d="M 0.402344 329.261719 L 0.402344 466.292969 L 82.601562 466.292969 L 82.601562 329.261719 Z M 41.179688 356.5625 C 48.78125 356.347656 54.988281 362.449219 55.203125 369.945312 C 55.203125 370.050781 55.203125 370.15625 55.203125 370.371094 C 55.203125 377.867188 49.101562 384.074219 41.5 384.074219 C 33.902344 384.074219 27.800781 377.867188 27.800781 370.371094 C 27.800781 362.878906 33.6875 356.777344 41.179688 356.5625 " fill-opacity="1" fill-rule="nonzero"/><path fill="#040606" d="M 423.496094 316.949219 L 326.417969 384.074219 L 247 384.074219 C 239.402344 383.96875 233.300781 377.867188 233.300781 370.265625 C 233.40625 362.769531 239.507812 356.667969 247 356.667969 L 318.925781 356.667969 C 330.269531 356.667969 339.476562 347.460938 339.476562 336.113281 C 339.476562 324.765625 330.269531 315.558594 318.925781 315.558594 L 168.011719 315.558594 L 110 344.570312 L 110 461.15625 L 279.214844 492.308594 C 287.777344 493.808594 296.554688 491.34375 302.871094 485.351562 L 449.183594 348.855469 C 457.421875 341.144531 457.957031 328.085938 450.144531 319.839844 C 443.1875 312.347656 431.84375 311.171875 423.496094 316.949219 " fill-opacity="1" fill-rule="nonzero"/><g clip-path="url(#e94ba6cf27)"><path fill="#040606" d="M 318.816406 569.066406 C 310.46875 561.359375 310.042969 548.296875 317.855469 539.949219 C 324.8125 532.5625 336.15625 531.277344 344.503906 537.058594 L 441.582031 604.289062 L 521 604.289062 C 528.597656 604.179688 534.59375 598.078125 534.59375 590.476562 C 534.59375 582.984375 528.492188 576.882812 521 576.882812 L 449.074219 576.882812 C 437.730469 576.882812 428.523438 567.675781 428.523438 556.328125 C 428.523438 544.871094 437.730469 535.773438 449.074219 535.773438 L 599.988281 535.773438 L 658 564.785156 L 658 681.261719 L 488.785156 712.523438 C 480.222656 714.019531 471.445312 711.453125 465.128906 705.5625 L 318.816406 569.066406 " fill-opacity="1" fill-rule="nonzero"/></g><path fill="#040606" d="M 685.398438 549.476562 L 685.398438 686.507812 L 767.597656 686.507812 L 767.597656 549.476562 Z M 726.070312 576.882812 C 733.667969 576.5625 739.984375 582.554688 740.199219 590.15625 C 740.199219 590.265625 740.199219 590.371094 740.199219 590.585938 C 740.304688 598.078125 734.203125 604.289062 726.605469 604.394531 C 719.007812 604.394531 712.90625 598.292969 712.796875 590.800781 C 712.796875 590.691406 712.796875 590.585938 712.796875 590.585938 C 712.796875 583.089844 718.683594 577.097656 726.070312 576.882812 " fill-opacity="1" fill-rule="nonzero"/></svg>
