<svg width="2917" height="682" viewBox="0 0 2917 682" fill="none" xmlns="http://www.w3.org/2000/svg">
<path d="M168.711 80.5C162.911 68.3 154.511 58.9 143.511 52.3C132.511 45.5 119.711 42.1 105.111 42.1C90.5109 42.1 77.3109 45.5 65.5109 52.3C53.9109 58.9 44.7109 68.5 37.9109 81.1C31.3109 93.5 28.0109 107.9 28.0109 124.3C28.0109 140.7 31.3109 155.1 37.9109 167.5C44.7109 179.9 53.9109 189.5 65.5109 196.3C77.3109 202.9 90.5109 206.2 105.111 206.2C125.511 206.2 142.311 200.1 155.511 187.9C168.711 175.7 176.411 159.2 178.611 138.4H95.2109V116.2H207.711V137.2C206.111 154.4 200.711 170.2 191.511 184.6C182.311 198.8 170.211 210.1 155.211 218.5C140.211 226.7 123.511 230.8 105.111 230.8C85.7109 230.8 68.0109 226.3 52.0109 217.3C36.0109 208.1 23.3109 195.4 13.9109 179.2C4.71094 163 0.110938 144.7 0.110938 124.3C0.110938 103.9 4.71094 85.6 13.9109 69.4C23.3109 53 36.0109 40.3 52.0109 31.3C68.0109 22.1 85.7109 17.5 105.111 17.5C127.311 17.5 146.911 23 163.911 34C181.111 45 193.611 60.5 201.411 80.5H168.711ZM315.507 231.7C300.107 231.7 286.107 228.2 273.507 221.2C261.107 214.2 251.307 204.3 244.107 191.5C237.107 178.5 233.607 163.5 233.607 146.5C233.607 129.7 237.207 114.9 244.407 102.1C251.807 89.1 261.807 79.2 274.407 72.4C287.007 65.4 301.107 61.9 316.707 61.9C332.307 61.9 346.407 65.4 359.007 72.4C371.607 79.2 381.507 89 388.707 101.8C396.107 114.6 399.807 129.5 399.807 146.5C399.807 163.5 396.007 178.5 388.407 191.5C381.007 204.3 370.907 214.2 358.107 221.2C345.307 228.2 331.107 231.7 315.507 231.7ZM315.507 207.7C325.307 207.7 334.507 205.4 343.107 200.8C351.707 196.2 358.607 189.3 363.807 180.1C369.207 170.9 371.907 159.7 371.907 146.5C371.907 133.3 369.307 122.1 364.107 112.9C358.907 103.7 352.107 96.9 343.707 92.5C335.307 87.9 326.207 85.6 316.407 85.6C306.407 85.6 297.207 87.9 288.807 92.5C280.607 96.9 274.007 103.7 269.007 112.9C264.007 122.1 261.507 133.3 261.507 146.5C261.507 159.9 263.907 171.2 268.707 180.4C273.707 189.6 280.307 196.5 288.507 201.1C296.707 205.5 305.707 207.7 315.507 207.7ZM463.002 7V229H435.702V7H463.002ZM499.33 146.2C499.33 129.4 502.73 114.7 509.53 102.1C516.33 89.3 525.63 79.4 537.43 72.4C549.43 65.4 562.83 61.9 577.63 61.9C590.43 61.9 602.33 64.9 613.33 70.9C624.33 76.7 632.73 84.4 638.53 94V7H666.13V229H638.53V198.1C633.13 207.9 625.13 216 614.53 222.4C603.93 228.6 591.53 231.7 577.33 231.7C562.73 231.7 549.43 228.1 537.43 220.9C525.63 213.7 516.33 203.6 509.53 190.6C502.73 177.6 499.33 162.8 499.33 146.2ZM638.53 146.5C638.53 134.1 636.03 123.3 631.03 114.1C626.03 104.9 619.23 97.9 610.63 93.1C602.23 88.1 592.93 85.6 582.73 85.6C572.53 85.6 563.23 88 554.83 92.8C546.43 97.6 539.73 104.6 534.73 113.8C529.73 123 527.23 133.8 527.23 146.2C527.23 158.8 529.73 169.8 534.73 179.2C539.73 188.4 546.43 195.5 554.83 200.5C563.23 205.3 572.53 207.7 582.73 207.7C592.93 207.7 602.23 205.3 610.63 200.5C619.23 195.5 626.03 188.4 631.03 179.2C636.03 169.8 638.53 158.9 638.53 146.5ZM862.264 140.5C862.264 145.7 861.964 151.2 861.364 157H729.964C730.964 173.2 736.464 185.9 746.464 195.1C756.664 204.1 768.964 208.6 783.364 208.6C795.164 208.6 804.964 205.9 812.764 200.5C820.764 194.9 826.364 187.5 829.564 178.3H858.964C854.564 194.1 845.764 207 832.564 217C819.364 226.8 802.964 231.7 783.364 231.7C767.764 231.7 753.764 228.2 741.364 221.2C729.164 214.2 719.564 204.3 712.564 191.5C705.564 178.5 702.064 163.5 702.064 146.5C702.064 129.5 705.464 114.6 712.264 101.8C719.064 89 728.564 79.2 740.764 72.4C753.164 65.4 767.364 61.9 783.364 61.9C798.964 61.9 812.764 65.3 824.764 72.1C836.764 78.9 845.964 88.3 852.364 100.3C858.964 112.1 862.264 125.5 862.264 140.5ZM834.064 134.8C834.064 124.4 831.764 115.5 827.164 108.1C822.564 100.5 816.264 94.8 808.264 91C800.464 87 791.764 85 782.164 85C768.364 85 756.564 89.4 746.764 98.2C737.164 107 731.664 119.2 730.264 134.8H834.064ZM978.399 61.6C998.399 61.6 1014.6 67.7 1027 79.9C1039.4 91.9 1045.6 109.3 1045.6 132.1V229H1018.6V136C1018.6 119.6 1014.5 107.1 1006.3 98.5C998.099 89.7 986.899 85.3 972.699 85.3C958.299 85.3 946.799 89.8 938.199 98.8C929.799 107.8 925.599 120.9 925.599 138.1V229H898.299V64.6H925.599V88C930.999 79.6 938.299 73.1 947.499 68.5C956.899 63.9 967.199 61.6 978.399 61.6ZM1382.27 21.4V229H1354.97V74.2L1285.97 229H1266.77L1197.47 73.9V229H1170.17V21.4H1199.57L1276.37 193L1353.17 21.4H1382.27ZM1442.67 37.9C1437.47 37.9 1433.07 36.1 1429.47 32.5C1425.87 28.9 1424.07 24.5 1424.07 19.3C1424.07 14.1 1425.87 9.69999 1429.47 6.09999C1433.07 2.49999 1437.47 0.699989 1442.67 0.699989C1447.67 0.699989 1451.87 2.49999 1455.27 6.09999C1458.87 9.69999 1460.67 14.1 1460.67 19.3C1460.67 24.5 1458.87 28.9 1455.27 32.5C1451.87 36.1 1447.67 37.9 1442.67 37.9ZM1455.87 64.6V229H1428.57V64.6H1455.87ZM1492.2 146.5C1492.2 129.5 1495.6 114.7 1502.4 102.1C1509.2 89.3 1518.6 79.4 1530.6 72.4C1542.8 65.4 1556.7 61.9 1572.3 61.9C1592.5 61.9 1609.1 66.8 1622.1 76.6C1635.3 86.4 1644 100 1648.2 117.4H1618.8C1616 107.4 1610.5 99.5 1602.3 93.7C1594.3 87.9 1584.3 85 1572.3 85C1556.7 85 1544.1 90.4 1534.5 101.2C1524.9 111.8 1520.1 126.9 1520.1 146.5C1520.1 166.3 1524.9 181.6 1534.5 192.4C1544.1 203.2 1556.7 208.6 1572.3 208.6C1584.3 208.6 1594.3 205.8 1602.3 200.2C1610.3 194.6 1615.8 186.6 1618.8 176.2H1648.2C1643.8 193 1635 206.5 1621.8 216.7C1608.6 226.7 1592.1 231.7 1572.3 231.7C1556.7 231.7 1542.8 228.2 1530.6 221.2C1518.6 214.2 1509.2 204.3 1502.4 191.5C1495.6 178.7 1492.2 163.7 1492.2 146.5ZM1711.93 91.3C1716.73 81.9 1723.53 74.6 1732.33 69.4C1741.33 64.2 1752.23 61.6 1765.03 61.6V89.8H1757.83C1727.23 89.8 1711.93 106.4 1711.93 139.6V229H1684.63V64.6H1711.93V91.3ZM1868.24 231.7C1852.84 231.7 1838.84 228.2 1826.24 221.2C1813.84 214.2 1804.04 204.3 1796.84 191.5C1789.84 178.5 1786.34 163.5 1786.34 146.5C1786.34 129.7 1789.94 114.9 1797.14 102.1C1804.54 89.1 1814.54 79.2 1827.14 72.4C1839.74 65.4 1853.84 61.9 1869.44 61.9C1885.04 61.9 1899.14 65.4 1911.74 72.4C1924.34 79.2 1934.24 89 1941.44 101.8C1948.84 114.6 1952.54 129.5 1952.54 146.5C1952.54 163.5 1948.74 178.5 1941.14 191.5C1933.74 204.3 1923.64 214.2 1910.84 221.2C1898.04 228.2 1883.84 231.7 1868.24 231.7ZM1868.24 207.7C1878.04 207.7 1887.24 205.4 1895.84 200.8C1904.44 196.2 1911.34 189.3 1916.54 180.1C1921.94 170.9 1924.64 159.7 1924.64 146.5C1924.64 133.3 1922.04 122.1 1916.84 112.9C1911.64 103.7 1904.84 96.9 1896.44 92.5C1888.04 87.9 1878.94 85.6 1869.14 85.6C1859.14 85.6 1849.94 87.9 1841.54 92.5C1833.34 96.9 1826.74 103.7 1821.74 112.9C1816.74 122.1 1814.24 133.3 1814.24 146.5C1814.24 159.9 1816.64 171.2 1821.44 180.4C1826.44 189.6 1833.04 196.5 1841.24 201.1C1849.44 205.5 1858.44 207.7 1868.24 207.7ZM2015.74 94.9C2021.14 85.5 2029.14 77.7 2039.74 71.5C2050.54 65.1 2063.04 61.9 2077.24 61.9C2091.84 61.9 2105.04 65.4 2116.84 72.4C2128.84 79.4 2138.24 89.3 2145.04 102.1C2151.84 114.7 2155.24 129.4 2155.24 146.2C2155.24 162.8 2151.84 177.6 2145.04 190.6C2138.24 203.6 2128.84 213.7 2116.84 220.9C2105.04 228.1 2091.84 231.7 2077.24 231.7C2063.24 231.7 2050.84 228.6 2040.04 222.4C2029.44 216 2021.34 208.1 2015.74 198.7V307H1988.44V64.6H2015.74V94.9ZM2127.34 146.2C2127.34 133.8 2124.84 123 2119.84 113.8C2114.84 104.6 2108.04 97.6 2099.44 92.8C2091.04 88 2081.74 85.6 2071.54 85.6C2061.54 85.6 2052.24 88.1 2043.64 93.1C2035.24 97.9 2028.44 105 2023.24 114.4C2018.24 123.6 2015.74 134.3 2015.74 146.5C2015.74 158.9 2018.24 169.8 2023.24 179.2C2028.44 188.4 2035.24 195.5 2043.64 200.5C2052.24 205.3 2061.54 207.7 2071.54 207.7C2081.74 207.7 2091.04 205.3 2099.44 200.5C2108.04 195.5 2114.84 188.4 2119.84 179.2C2124.84 169.8 2127.34 158.8 2127.34 146.2ZM2272.77 61.6C2285.17 61.6 2296.37 64.3 2306.37 69.7C2316.37 74.9 2324.17 82.8 2329.77 93.4C2335.57 104 2338.47 116.9 2338.47 132.1V229H2311.47V136C2311.47 119.6 2307.37 107.1 2299.17 98.5C2290.97 89.7 2279.77 85.3 2265.57 85.3C2251.17 85.3 2239.67 89.8 2231.07 98.8C2222.67 107.8 2218.47 120.9 2218.47 138.1V229H2191.17V7H2218.47V88C2223.87 79.6 2231.27 73.1 2240.67 68.5C2250.27 63.9 2260.97 61.6 2272.77 61.6ZM2454.76 231.7C2439.36 231.7 2425.36 228.2 2412.76 221.2C2400.36 214.2 2390.56 204.3 2383.36 191.5C2376.36 178.5 2372.86 163.5 2372.86 146.5C2372.86 129.7 2376.46 114.9 2383.66 102.1C2391.06 89.1 2401.06 79.2 2413.66 72.4C2426.26 65.4 2440.36 61.9 2455.96 61.9C2471.56 61.9 2485.66 65.4 2498.26 72.4C2510.86 79.2 2520.76 89 2527.96 101.8C2535.36 114.6 2539.06 129.5 2539.06 146.5C2539.06 163.5 2535.26 178.5 2527.66 191.5C2520.26 204.3 2510.16 214.2 2497.36 221.2C2484.56 228.2 2470.36 231.7 2454.76 231.7ZM2454.76 207.7C2464.56 207.7 2473.76 205.4 2482.36 200.8C2490.96 196.2 2497.86 189.3 2503.06 180.1C2508.46 170.9 2511.16 159.7 2511.16 146.5C2511.16 133.3 2508.56 122.1 2503.36 112.9C2498.16 103.7 2491.36 96.9 2482.96 92.5C2474.56 87.9 2465.46 85.6 2455.66 85.6C2445.66 85.6 2436.46 87.9 2428.06 92.5C2419.86 96.9 2413.26 103.7 2408.26 112.9C2403.26 122.1 2400.76 133.3 2400.76 146.5C2400.76 159.9 2403.16 171.2 2407.96 180.4C2412.96 189.6 2419.56 196.5 2427.76 201.1C2435.96 205.5 2444.96 207.7 2454.76 207.7ZM2655.06 61.6C2675.06 61.6 2691.26 67.7 2703.66 79.9C2716.06 91.9 2722.26 109.3 2722.26 132.1V229H2695.26V136C2695.26 119.6 2691.16 107.1 2682.96 98.5C2674.76 89.7 2663.56 85.3 2649.36 85.3C2634.96 85.3 2623.46 89.8 2614.86 98.8C2606.46 107.8 2602.26 120.9 2602.26 138.1V229H2574.96V64.6H2602.26V88C2607.66 79.6 2614.96 73.1 2624.16 68.5C2633.56 63.9 2643.86 61.6 2655.06 61.6ZM2916.85 140.5C2916.85 145.7 2916.55 151.2 2915.95 157H2784.55C2785.55 173.2 2791.05 185.9 2801.05 195.1C2811.25 204.1 2823.55 208.6 2837.95 208.6C2849.75 208.6 2859.55 205.9 2867.35 200.5C2875.35 194.9 2880.95 187.5 2884.15 178.3H2913.55C2909.15 194.1 2900.35 207 2887.15 217C2873.95 226.8 2857.55 231.7 2837.95 231.7C2822.35 231.7 2808.35 228.2 2795.95 221.2C2783.75 214.2 2774.15 204.3 2767.15 191.5C2760.15 178.5 2756.65 163.5 2756.65 146.5C2756.65 129.5 2760.05 114.6 2766.85 101.8C2773.65 89 2783.15 79.2 2795.35 72.4C2807.75 65.4 2821.95 61.9 2837.95 61.9C2853.55 61.9 2867.35 65.3 2879.35 72.1C2891.35 78.9 2900.55 88.3 2906.95 100.3C2913.55 112.1 2916.85 125.5 2916.85 140.5ZM2888.65 134.8C2888.65 124.4 2886.35 115.5 2881.75 108.1C2877.15 100.5 2870.85 94.8 2862.85 91C2855.05 87 2846.35 85 2836.75 85C2822.95 85 2811.15 89.4 2801.35 98.2C2791.75 107 2786.25 119.2 2784.85 134.8H2888.65ZM996.679 681.1C982.879 681.1 970.479 678.7 959.479 673.9C948.679 668.9 940.179 662.1 933.979 653.5C927.779 644.7 924.579 634.6 924.379 623.2H953.479C954.479 633 958.479 641.3 965.479 648.1C972.679 654.7 983.079 658 996.679 658C1009.68 658 1019.88 654.8 1027.28 648.4C1034.88 641.8 1038.68 633.4 1038.68 623.2C1038.68 615.2 1036.48 608.7 1032.08 603.7C1027.68 598.7 1022.18 594.9 1015.58 592.3C1008.98 589.7 1000.08 586.9 988.879 583.9C975.079 580.3 963.979 576.7 955.579 573.1C947.379 569.5 940.279 563.9 934.279 556.3C928.479 548.5 925.579 538.1 925.579 525.1C925.579 513.7 928.479 503.6 934.279 494.8C940.079 486 948.179 479.2 958.579 474.4C969.179 469.6 981.279 467.2 994.879 467.2C1014.48 467.2 1030.48 472.1 1042.88 481.9C1055.48 491.7 1062.58 504.7 1064.18 520.9H1034.18C1033.18 512.9 1028.98 505.9 1021.58 499.9C1014.18 493.7 1004.38 490.6 992.179 490.6C980.779 490.6 971.479 493.6 964.279 499.6C957.079 505.4 953.479 513.6 953.479 524.2C953.479 531.8 955.579 538 959.779 542.8C964.179 547.6 969.479 551.3 975.679 553.9C982.079 556.3 990.979 559.1 1002.38 562.3C1016.18 566.1 1027.28 569.9 1035.68 573.7C1044.08 577.3 1051.28 583 1057.28 590.8C1063.28 598.4 1066.28 608.8 1066.28 622C1066.28 632.2 1063.58 641.8 1058.18 650.8C1052.78 659.8 1044.78 667.1 1034.18 672.7C1023.58 678.3 1011.08 681.1 996.679 681.1ZM1139.75 537.1V634C1139.75 642 1141.45 647.7 1144.85 651.1C1148.25 654.3 1154.15 655.9 1162.55 655.9H1182.65V679H1158.05C1142.85 679 1131.45 675.5 1123.85 668.5C1116.25 661.5 1112.45 650 1112.45 634V537.1H1091.15V514.6H1112.45V473.2H1139.75V514.6H1182.65V537.1H1139.75ZM1361.53 514.6V679H1334.23V654.7C1329.03 663.1 1321.73 669.7 1312.33 674.5C1303.13 679.1 1292.93 681.4 1281.73 681.4C1268.93 681.4 1257.43 678.8 1247.23 673.6C1237.03 668.2 1228.93 660.2 1222.93 649.6C1217.13 639 1214.23 626.1 1214.23 610.9V514.6H1241.23V607.3C1241.23 623.5 1245.33 636 1253.53 644.8C1261.73 653.4 1272.93 657.7 1287.13 657.7C1301.73 657.7 1313.23 653.2 1321.63 644.2C1330.03 635.2 1334.23 622.1 1334.23 604.9V514.6H1361.53ZM1397.43 596.2C1397.43 579.4 1400.83 564.7 1407.63 552.1C1414.43 539.3 1423.73 529.4 1435.53 522.4C1447.53 515.4 1460.93 511.9 1475.73 511.9C1488.53 511.9 1500.43 514.9 1511.43 520.9C1522.43 526.7 1530.83 534.4 1536.63 544V457H1564.23V679H1536.63V648.1C1531.23 657.9 1523.23 666 1512.63 672.4C1502.03 678.6 1489.63 681.7 1475.43 681.7C1460.83 681.7 1447.53 678.1 1435.53 670.9C1423.73 663.7 1414.43 653.6 1407.63 640.6C1400.83 627.6 1397.43 612.8 1397.43 596.2ZM1536.63 596.5C1536.63 584.1 1534.13 573.3 1529.13 564.1C1524.13 554.9 1517.33 547.9 1508.73 543.1C1500.33 538.1 1491.03 535.6 1480.83 535.6C1470.63 535.6 1461.33 538 1452.93 542.8C1444.53 547.6 1437.83 554.6 1432.83 563.8C1427.83 573 1425.33 583.8 1425.33 596.2C1425.33 608.8 1427.83 619.8 1432.83 629.2C1437.83 638.4 1444.53 645.5 1452.93 650.5C1461.33 655.3 1470.63 657.7 1480.83 657.7C1491.03 657.7 1500.33 655.3 1508.73 650.5C1517.33 645.5 1524.13 638.4 1529.13 629.2C1534.13 619.8 1536.63 608.9 1536.63 596.5ZM1624.46 487.9C1619.26 487.9 1614.86 486.1 1611.26 482.5C1607.66 478.9 1605.86 474.5 1605.86 469.3C1605.86 464.1 1607.66 459.7 1611.26 456.1C1614.86 452.5 1619.26 450.7 1624.46 450.7C1629.46 450.7 1633.66 452.5 1637.06 456.1C1640.66 459.7 1642.46 464.1 1642.46 469.3C1642.46 474.5 1640.66 478.9 1637.06 482.5C1633.66 486.1 1629.46 487.9 1624.46 487.9ZM1637.66 514.6V679H1610.36V514.6H1637.66ZM1755.89 681.7C1740.49 681.7 1726.49 678.2 1713.89 671.2C1701.49 664.2 1691.69 654.3 1684.49 641.5C1677.49 628.5 1673.99 613.5 1673.99 596.5C1673.99 579.7 1677.59 564.9 1684.79 552.1C1692.19 539.1 1702.19 529.2 1714.79 522.4C1727.39 515.4 1741.49 511.9 1757.09 511.9C1772.69 511.9 1786.79 515.4 1799.39 522.4C1811.99 529.2 1821.89 539 1829.09 551.8C1836.49 564.6 1840.19 579.5 1840.19 596.5C1840.19 613.5 1836.39 628.5 1828.79 641.5C1821.39 654.3 1811.29 664.2 1798.49 671.2C1785.69 678.2 1771.49 681.7 1755.89 681.7ZM1755.89 657.7C1765.69 657.7 1774.89 655.4 1783.49 650.8C1792.09 646.2 1798.99 639.3 1804.19 630.1C1809.59 620.9 1812.29 609.7 1812.29 596.5C1812.29 583.3 1809.69 572.1 1804.49 562.9C1799.29 553.7 1792.49 546.9 1784.09 542.5C1775.69 537.9 1766.59 535.6 1756.79 535.6C1746.79 535.6 1737.59 537.9 1729.19 542.5C1720.99 546.9 1714.39 553.7 1709.39 562.9C1704.39 572.1 1701.89 583.3 1701.89 596.5C1701.89 609.9 1704.29 621.2 1709.09 630.4C1714.09 639.6 1720.69 646.5 1728.89 651.1C1737.09 655.5 1746.09 657.7 1755.89 657.7ZM1934.28 681.7C1921.68 681.7 1910.38 679.6 1900.38 675.4C1890.38 671 1882.48 665 1876.68 657.4C1870.88 649.6 1867.68 640.7 1867.08 630.7H1895.28C1896.08 638.9 1899.88 645.6 1906.68 650.8C1913.68 656 1922.78 658.6 1933.98 658.6C1944.38 658.6 1952.58 656.3 1958.58 651.7C1964.58 647.1 1967.58 641.3 1967.58 634.3C1967.58 627.1 1964.38 621.8 1957.98 618.4C1951.58 614.8 1941.68 611.3 1928.28 607.9C1916.08 604.7 1906.08 601.5 1898.28 598.3C1890.68 594.9 1884.08 590 1878.48 583.6C1873.08 577 1870.38 568.4 1870.38 557.8C1870.38 549.4 1872.88 541.7 1877.88 534.7C1882.88 527.7 1889.98 522.2 1899.18 518.2C1908.38 514 1918.88 511.9 1930.68 511.9C1948.88 511.9 1963.58 516.5 1974.78 525.7C1985.98 534.9 1991.98 547.5 1992.78 563.5H1965.48C1964.88 554.9 1961.38 548 1954.98 542.8C1948.78 537.6 1940.38 535 1929.78 535C1919.98 535 1912.18 537.1 1906.38 541.3C1900.58 545.5 1897.68 551 1897.68 557.8C1897.68 563.2 1899.38 567.7 1902.78 571.3C1906.38 574.7 1910.78 577.5 1915.98 579.7C1921.38 581.7 1928.78 584 1938.18 586.6C1949.98 589.8 1959.58 593 1966.98 596.2C1974.38 599.2 1980.68 603.8 1985.88 610C1991.28 616.2 1994.08 624.3 1994.28 634.3C1994.28 643.3 1991.78 651.4 1986.78 658.6C1981.78 665.8 1974.68 671.5 1965.48 675.7C1956.48 679.7 1946.08 681.7 1934.28 681.7Z" fill="white"/>
</svg>
