<svg xmlns="http://www.w3.org/2000/svg" xmlns:xlink="http://www.w3.org/1999/xlink" width="500" zoomAndPan="magnify" viewBox="0 0 375 374.999991" height="500" preserveAspectRatio="xMidYMid meet" version="1.0"><defs><filter x="0%" y="0%" width="100%" height="100%" id="a0edb6bda6"><feColorMatrix values="0 0 0 0 1 0 0 0 0 1 0 0 0 0 1 0 0 0 1 0" color-interpolation-filters="sRGB"/></filter><mask id="b1026b9f2e"><g filter="url(#a0edb6bda6)"><rect x="-37.5" width="450" fill="#000000" y="-37.499999" height="449.999989" fill-opacity="0.2"/></g></mask><clipPath id="5a96b0f785"><path d="M 0.121094 1.023438 L 309 1.023438 L 309 310.023438 L 0.121094 310.023438 Z M 0.121094 1.023438 " clip-rule="nonzero"/></clipPath><clipPath id="da2b099302"><rect x="0" width="310" y="0" height="311"/></clipPath></defs><g mask="url(#b1026b9f2e)"><g transform="matrix(1, 0, 0, 1, 33, 32)"><g clip-path="url(#da2b099302)"><g clip-path="url(#5a96b0f785)"><path fill="#164e63" d="M 283.207031 1.023438 L 25.992188 1.023438 C 11.769531 1.023438 0.332031 12.617188 0.332031 26.683594 L 0.332031 284.363281 C 0.332031 298.582031 11.925781 310.023438 25.992188 310.023438 L 283.054688 310.023438 C 297.273438 310.023438 308.714844 298.429688 308.714844 284.363281 L 308.714844 26.683594 C 308.867188 12.617188 297.429688 1.023438 283.207031 1.023438 Z M 91.6875 255.921875 L 46.085938 255.921875 L 46.085938 118.964844 L 91.6875 118.964844 Z M 68.808594 102.425781 C 54.433594 102.425781 42.839844 90.832031 42.839844 76.457031 C 42.839844 62.082031 54.433594 50.488281 68.808594 50.488281 C 83.183594 50.488281 94.777344 62.082031 94.777344 76.457031 C 94.777344 90.832031 83.183594 102.425781 68.808594 102.425781 Z M 263.265625 255.921875 L 217.511719 255.921875 L 216.429688 174.613281 C 216.429688 174.613281 217.511719 152.972656 193.863281 153.125 C 170.210938 153.28125 166.964844 174.613281 166.964844 174.613281 L 166.964844 255.921875 L 120.902344 255.921875 L 120.902344 118.964844 L 165.109375 118.964844 L 165.109375 137.824219 C 165.109375 137.824219 166.964844 131.640625 177.167969 124.375 C 187.371094 117.109375 204.21875 115.5625 211.484375 115.875 C 218.75 116.183594 228.640625 114.945312 245.183594 126.382812 C 262.957031 138.597656 263.421875 170.59375 263.421875 170.59375 Z M 263.265625 255.921875 " fill-opacity="1" fill-rule="nonzero"/></g></g></g></g></svg>