<svg xmlns="http://www.w3.org/2000/svg" width="500" viewBox="0 0 375 374.999991" height="500" preserveAspectRatio="xMidYMid meet"><defs><clipPath id="7a78dddfc4"><path d="M 46 52.269531 L 352 52.269531 L 352 274 L 46 274 Z M 46 52.269531 " clip-rule="nonzero"/></clipPath><clipPath id="d246e1c657"><path d="M 49.4375 129.773438 L 360.824219 129.773438 L 360.824219 278.769531 L 49.4375 278.769531 Z M 49.4375 129.773438 " clip-rule="nonzero"/></clipPath></defs><path fill="#000000" d="M 164.453125 264.097656 C 142.464844 263.828125 120.15625 263.804688 98.804688 265.246094 C 77.449219 266.6875 56.910156 269.746094 44.222656 274.613281 C 42.675781 275.207031 41.1875 275.929688 41.960938 276.625 C 42.839844 277.414062 46.140625 277.773438 49.070312 278.007812 C 77.644531 280.265625 107.878906 280.222656 137.589844 280.742188 C 147.238281 280.914062 157.644531 281.230469 164.769531 283 C 151.917969 284.285156 139.070312 285.570312 126.214844 286.851562 C 123.761719 287.097656 120.816406 287.546875 121.117188 288.25 C 121.425781 288.972656 124.828125 289.214844 127.519531 289.273438 C 138.921875 289.53125 150.328125 289.792969 161.734375 290.050781 C 171.277344 290.273438 182.390625 290.753906 186.914062 293.039062 C 156.011719 294.394531 125.3125 296.09375 94.917969 298.121094 C 82.253906 298.96875 69.171875 299.9375 59.253906 302.230469 C 101.640625 302.0625 144.046875 302.253906 186.386719 302.800781 C 191.226562 302.863281 197.40625 303.242188 198.0625 304.539062 C 163.355469 305.34375 128.894531 306.941406 95.183594 309.316406 C 90.015625 309.683594 84.105469 310.25 82.433594 311.625 C 110.289062 312.238281 139.507812 310.84375 165.449219 313.65625 C 141.566406 314.675781 117.910156 316.082031 94.652344 317.867188 C 92 318.074219 89.257812 318.296875 87.226562 318.800781 C 85.199219 319.304688 84.132812 320.175781 85.558594 320.8125 C 87.109375 321.511719 90.621094 321.613281 93.625 321.640625 C 116.109375 321.839844 138.59375 322.035156 161.078125 322.21875 C 233.238281 322.820312 307.789062 323.246094 374.78125 315.960938 C 332.996094 312.742188 224.015625 310.644531 215.585938 308.875 C 220.382812 307.191406 228.4375 306.480469 236.070312 305.96875 C 265.402344 304.011719 296.101562 303.605469 324.75 301.003906 C 329.875 300.539062 335.484375 299.851562 337.277344 298.472656 C 316.980469 295.523438 290.65625 297.714844 269.921875 294.992188 C 265.386719 294.398438 260.71875 293.003906 263.355469 291.839844 C 264.859375 291.175781 268.035156 290.984375 270.867188 290.847656 C 285.59375 290.152344 300.316406 289.460938 315.042969 288.765625 C 293.945312 285.277344 267.101562 286.222656 242.90625 284.839844 C 239.871094 284.667969 236.402344 284.34375 235.421875 283.550781 C 233.863281 282.285156 239.707031 281.324219 244.46875 280.980469 C 281.191406 278.324219 321.617188 279.644531 356.148438 275.339844 C 359.894531 274.875 363.992188 274.171875 364.394531 273.058594 C 337.613281 270.035156 310.230469 267.402344 282.402344 265.179688 C 262.695312 263.605469 246.382812 262.847656 226.835938 264.519531 C 208.015625 266.132812 183.90625 264.339844 164.453125 264.097656 " fill-opacity="1" fill-rule="nonzero"/><g clip-path="url(#7a78dddfc4)"><path fill="#d9d9d9" d="M 351.886719 204.929688 C 351.886719 229.75 345.933594 253.1875 335.375 273.890625 L 62.824219 273.890625 C 52.273438 253.1875 46.3125 229.75 46.3125 204.929688 C 46.3125 120.78125 114.722656 52.5625 199.101562 52.5625 C 283.488281 52.5625 351.886719 120.78125 351.886719 204.929688 " fill-opacity="1" fill-rule="nonzero"/></g><path fill="#a6a6a6" d="M 304.652344 94.765625 C 287.949219 95.675781 265.460938 96.820312 236.324219 98.230469 C 223.671875 97.710938 211.011719 97.214844 198.40625 96.609375 C 191.988281 96.296875 185.582031 95.980469 179.183594 95.65625 C 227.773438 94.246094 272.484375 92.996094 303.042969 92.3125 L 304.652344 94.765625 " fill-opacity="1" fill-rule="nonzero"/><path fill="#000000" d="M 328.417969 121.988281 C 122.714844 124.011719 -5.359375 125 290.960938 120.292969 C 302.765625 120.425781 314.578125 120.550781 326.375 120.691406 L 328.417969 121.988281 " fill-opacity="1" fill-rule="nonzero"/><path fill="#000000" d="M 179.183594 173.707031 C 175.671875 173.445312 172.15625 173.195312 168.644531 172.945312 C 161.730469 172.460938 154.785156 172.042969 147.847656 171.617188 C 38.933594 176.898438 99.574219 175.660156 179.183594 173.707031 " fill-opacity="1" fill-rule="nonzero"/><path fill="#a6a6a6" d="M 53.550781 158.460938 C 58.117188 158.296875 62.675781 158.132812 67.246094 157.972656 C 84.160156 157.363281 101.148438 156.792969 118.125 156.210938 C 379.699219 151.875 242.558594 154.785156 53.488281 158.652344 L 53.550781 158.460938 " fill-opacity="1" fill-rule="nonzero"/><g clip-path="url(#d246e1c657)"><path fill="#000000" d="M 339.699219 232.132812 L 348.351562 232.320312 C 348.351562 232.320312 347.679688 236.152344 346.226562 237.714844 C 344.773438 239.242188 339.699219 239.429688 339.699219 239.429688 Z M 120.082031 252.457031 C 116.613281 252.457031 113.777344 256.8125 113.777344 262.171875 C 113.777344 267.53125 116.613281 271.886719 120.082031 271.886719 C 123.550781 271.886719 126.386719 267.53125 126.386719 262.171875 C 126.386719 256.8125 123.589844 252.457031 120.082031 252.457031 Z M 36.632812 258.152344 C 39.355469 258.152344 41.519531 261.539062 41.519531 265.707031 C 41.519531 269.875 39.316406 273.261719 36.632812 273.261719 C 33.910156 273.261719 31.746094 269.875 31.746094 265.707031 C 31.746094 261.539062 33.945312 258.152344 36.632812 258.152344 Z M 141.683594 250.78125 C 145.375 250.78125 148.398438 255.394531 148.398438 261.128906 C 148.398438 266.824219 145.375 271.476562 141.683594 271.476562 C 137.988281 271.476562 134.96875 266.859375 134.96875 261.128906 C 135.003906 255.433594 137.988281 250.78125 141.683594 250.78125 Z M 264.640625 244.042969 C 269.265625 244.042969 272.996094 249.8125 272.996094 256.921875 C 272.996094 264.03125 269.265625 269.800781 264.640625 269.800781 C 260.015625 269.800781 256.285156 264.03125 256.285156 256.921875 C 256.285156 249.8125 260.015625 244.042969 264.640625 244.042969 Z M 20.851562 259.378906 C 23.386719 259.378906 25.441406 262.542969 25.441406 266.488281 C 25.441406 270.398438 23.386719 273.597656 20.851562 273.597656 C 18.316406 273.597656 16.261719 270.433594 16.261719 266.488281 C 16.261719 262.542969 18.316406 259.378906 20.851562 259.378906 Z M 298.101562 242.519531 L 285.605469 242.703125 C 285.605469 242.703125 282.023438 234.441406 278.367188 229.9375 C 274.710938 225.433594 270.386719 223.421875 270.386719 223.421875 C 270.386719 223.421875 282.398438 223.421875 289.261719 226.101562 C 296.089844 228.78125 298.402344 231.015625 298.402344 231.015625 L 285.121094 231.6875 C 285.121094 231.6875 285.007812 236.375 287.730469 238.683594 C 290.417969 240.992188 298.101562 242.519531 298.101562 242.519531 Z M 203.871094 150.65625 C 186.449219 148.832031 169.699219 151.472656 169.699219 151.472656 C 169.699219 151.472656 180.257812 146.335938 203.871094 144.996094 Z M 169.699219 158.730469 L 176.972656 156.683594 L 169.699219 162.15625 Z M 169.699219 169.414062 L 188.054688 164.6875 L 169.699219 172.691406 Z M 169.699219 178.644531 L 202.042969 171.015625 L 169.699219 184.898438 Z M 169.699219 202.875 L 181.824219 200.71875 L 169.699219 207.640625 Z M 169.699219 225.507812 L 169.699219 220.855469 L 194.394531 217.503906 Z M 239.832031 248.027344 C 239.832031 248.027344 239.460938 250.96875 239.460938 252.863281 C 239.460938 254.800781 239.683594 256.960938 239.683594 256.960938 L 179.433594 258.113281 L 236.699219 254.167969 C 236.699219 254.167969 236.511719 251.972656 236.734375 250.257812 C 236.921875 248.546875 237.035156 248.324219 237.035156 248.324219 Z M 223.941406 179.539062 L 219.015625 179.539062 C 218.046875 179.539062 217.300781 180.320312 217.300781 181.25 L 217.300781 193.832031 C 217.300781 194.800781 218.082031 195.542969 219.015625 195.542969 L 219.800781 195.542969 C 219.910156 196.511719 220.136719 197.554688 220.582031 198.410156 C 221.628906 200.53125 230.355469 201.871094 232.820312 201.535156 C 235.28125 201.203125 234.3125 199.339844 234.3125 199.339844 C 234.3125 199.339844 228.828125 199.378906 225.171875 198.335938 C 223.195312 197.777344 222.1875 196.550781 221.664062 195.542969 L 223.976562 195.542969 C 224.949219 195.542969 225.695312 194.761719 225.695312 193.832031 L 225.695312 181.25 C 225.65625 180.320312 224.875 179.539062 223.941406 179.539062 Z M 169.289062 273.671875 C 166.082031 273.597656 162.871094 273.523438 159.699219 273.449219 C 161.378906 270.953125 162.574219 267.640625 162.945312 263.921875 L 166.15625 263.921875 C 166.453125 267.679688 167.574219 271.105469 169.289062 273.671875 Z M 258.859375 275.160156 C 244.121094 274.898438 229.199219 274.714844 214.351562 274.453125 C 216.515625 271.8125 218.007812 267.976562 218.417969 263.585938 L 252.777344 263.4375 C 253.859375 268.386719 256.023438 272.554688 258.859375 275.160156 Z M 318.84375 276.648438 C 307.542969 276.242188 295.902344 275.90625 284.039062 275.644531 C 287.171875 273.039062 289.597656 268.609375 290.679688 263.289062 L 311.832031 263.210938 C 312.875 269.355469 315.488281 274.304688 318.84375 276.648438 Z M 18.835938 277.355469 C 8.539062 277.765625 -1.71875 278.25 -12.050781 278.769531 C 112.285156 278.769531 236.660156 278.769531 361 278.769531 C 353.164062 278.214844 344.996094 277.765625 336.566406 277.355469 C 340.519531 275.421875 343.652344 270.023438 344.847656 263.101562 L 345.667969 263.101562 C 350.367188 263.210938 353.089844 261.945312 353.089844 261.089844 C 353.089844 260.234375 353.648438 248.398438 353.203125 239.949219 C 352.71875 231.5 352.34375 232.132812 351.1875 231.203125 C 350.03125 230.308594 337.570312 225.507812 337.570312 225.507812 C 337.570312 225.507812 336.414062 207.753906 335.109375 207.863281 L 330.78125 207.9375 L 300.640625 208.386719 L 330.78125 211.140625 L 330.820312 212.703125 L 300.828125 213.148438 L 330.894531 215.90625 L 330.929688 217.46875 L 301.125 217.914062 L 331.007812 220.667969 L 331.042969 222.269531 L 301.421875 222.714844 L 331.15625 225.433594 L 331.191406 227.035156 L 301.722656 227.441406 L 331.265625 230.160156 L 331.304688 231.796875 L 302.019531 232.207031 L 331.417969 234.886719 L 331.453125 236.523438 L 302.320312 236.933594 L 331.527344 239.613281 L 331.566406 241.289062 L 302.617188 241.699219 L 331.675781 244.339844 L 331.714844 245.941406 L 286.613281 246.796875 L 286.726562 257.070312 L 346.078125 260.347656 L 281.015625 260.53125 C 281.015625 260.53125 281.390625 243.039062 277.546875 235.742188 C 273.667969 228.410156 262.289062 223.011719 253.894531 231.351562 C 245.464844 239.6875 246.585938 260.347656 246.585938 260.347656 L 169.585938 261.316406 L 166.492188 249.292969 L 239.832031 244.492188 C 239.832031 244.492188 240.207031 241.511719 241.699219 237.046875 C 243.191406 232.578125 247.667969 228.78125 247.667969 228.78125 C 247.667969 228.78125 244.832031 229.230469 242.519531 231.460938 C 240.207031 233.734375 237.742188 237.9375 237.742188 237.9375 L 219.652344 239.054688 C 216.851562 237.9375 212.933594 235.890625 211.554688 232.765625 C 210.882812 231.238281 210.511719 229.675781 210.324219 228.261719 L 212.226562 228.261719 C 213.085938 228.261719 213.757812 227.554688 213.757812 226.734375 L 213.757812 182.964844 C 213.757812 182.105469 213.046875 181.4375 212.226562 181.4375 L 210.363281 181.4375 C 210.472656 176.261719 210.808594 162.601562 211.109375 151.773438 C 227.96875 155.457031 236.214844 167.332031 236.214844 167.332031 L 274.710938 169.042969 C 262.589844 148.347656 233.191406 144.363281 211.292969 144.738281 C 211.367188 142.652344 211.40625 140.902344 211.480469 139.5625 C 211.855469 129.773438 206.480469 130.070312 204.726562 129.960938 C 203.011719 129.847656 200.289062 132.640625 200.773438 134.277344 C 201.257812 135.914062 206.554688 135.058594 206.855469 141.945312 C 207.078125 147.640625 207.527344 172.839844 207.675781 181.398438 L 204.542969 181.398438 C 203.683594 181.398438 203.011719 182.105469 203.011719 182.925781 L 203.011719 226.734375 C 203.011719 227.59375 203.722656 228.261719 204.542969 228.261719 L 207.226562 228.261719 C 207.636719 231.015625 208.199219 233.957031 208.980469 235.183594 C 209.839844 236.523438 211.777344 238.164062 213.496094 239.429688 L 160.445312 242.742188 L 160.445312 238.796875 L 163.730469 236.597656 L 163.730469 155.941406 L 149.851562 154.75 L 6.898438 198.707031 L 149.851562 160.742188 L 149.851562 164.351562 L 66.738281 187.914062 L 149.890625 169.785156 L 149.890625 174.550781 L 83.898438 191.597656 L 149.890625 179.800781 L 149.890625 183.335938 L 25.476562 212.742188 L 149.890625 187.28125 L 149.890625 206.449219 L 25.625 228.632812 L 149.890625 210.878906 L 149.890625 223.535156 L 14.097656 241.996094 L 149.890625 228.707031 L 149.890625 235.035156 L 3.019531 250.816406 L 17.679688 256.4375 C 15.480469 258.484375 14.023438 262.207031 14.023438 266.414062 C 13.988281 271.4375 16.003906 275.683594 18.835938 277.355469 Z M 33.757812 276.796875 L 31.410156 276.871094 C 31.820312 276.539062 32.230469 276.164062 32.601562 275.71875 C 32.976562 276.128906 33.347656 276.5 33.757812 276.796875 Z M 56.105469 276.089844 C 53.566406 276.164062 50.992188 276.242188 48.457031 276.316406 C 50.433594 274.417969 51.890625 271.253906 52.226562 267.53125 L 52.859375 267.53125 C 53.046875 271.066406 54.277344 274.15625 56.105469 276.089844 Z M 114.488281 274.527344 C 105.757812 274.75 96.992188 274.976562 88.261719 275.199219 C 90.015625 272.925781 91.132812 269.503906 91.132812 265.707031 C 91.132812 260.457031 89.046875 255.992188 86.0625 254.167969 L 112.472656 253.273438 C 111.355469 255.804688 110.71875 258.894531 110.71875 262.171875 C 110.683594 267.160156 112.175781 271.585938 114.488281 274.527344 Z M 233.378906 171.164062 C 250.726562 172.058594 284.335938 172.09375 285.382812 175.183594 L 289.113281 185.644531 L 258.113281 184.863281 L 278.03125 188.621094 L 256.097656 189.476562 L 282.769531 192.753906 L 260.425781 194.949219 L 285.941406 198.894531 C 285.941406 198.894531 288.402344 198.894531 292.246094 199.003906 C 292.804688 198.894531 293.328125 198.78125 293.8125 198.632812 C 295.601562 198.113281 296.535156 197.03125 296.984375 196.101562 L 294.894531 196.101562 C 294.035156 196.101562 293.328125 195.394531 293.328125 194.539062 L 293.328125 183.1875 C 293.328125 182.332031 294.035156 181.625 294.894531 181.625 L 299.335938 181.625 C 300.191406 181.625 300.902344 182.332031 300.902344 183.1875 L 300.902344 194.539062 C 300.902344 195.394531 300.191406 196.101562 299.335938 196.101562 L 298.625 196.101562 C 298.511719 196.957031 298.328125 197.925781 297.917969 198.707031 C 297.84375 198.855469 297.691406 199.042969 297.542969 199.191406 C 302.46875 199.414062 308.4375 199.75 314.332031 200.308594 C 328.28125 201.648438 330.59375 204.253906 330.59375 204.253906 C 330.59375 204.253906 300.191406 200.792969 285.644531 200.605469 C 271.09375 200.421875 239.832031 201.164062 239.832031 201.164062 L 235.394531 180.804688 L 286.015625 183.1875 C 286.015625 183.1875 284.746094 178.945312 282.84375 177.046875 C 280.90625 175.109375 233.378906 171.164062 233.378906 171.164062 Z M 233.378906 171.164062 " fill-opacity="1" fill-rule="evenodd"/></g></svg>
