<svg width="219" height="48" viewBox="0 0 219 48" fill="none" xmlns="http://www.w3.org/2000/svg">
<path d="M69.1836 30L64.0664 18.8574V27.7051C64.0664 28.5189 64.1543 29.0267 64.3301 29.2285C64.571 29.502 64.9518 29.6387 65.4727 29.6387H65.9414V30H61.332V29.6387H61.8008C62.3607 29.6387 62.7578 29.4694 62.9922 29.1309C63.1354 28.9225 63.207 28.4473 63.207 27.7051V19.0527C63.207 18.4668 63.1419 18.0436 63.0117 17.7832C62.9206 17.5944 62.7513 17.4382 62.5039 17.3145C62.263 17.1842 61.8724 17.1191 61.332 17.1191V16.7578H65.082L69.8867 27.1191L74.6133 16.7578H78.3633V17.1191H77.9043C77.3379 17.1191 76.9375 17.2884 76.7031 17.627C76.5599 17.8353 76.4883 18.3105 76.4883 19.0527V27.7051C76.4883 28.5189 76.5794 29.0267 76.7617 29.2285C77.0026 29.502 77.3835 29.6387 77.9043 29.6387H78.3633V30H72.7383V29.6387H73.207C73.7734 29.6387 74.1706 29.4694 74.3984 29.1309C74.5417 28.9225 74.6133 28.4473 74.6133 27.7051V18.8574L69.5059 30H69.1836ZM94.2727 17.4805V22.7148H97.1828C97.938 22.7148 98.4426 22.6009 98.6965 22.373C99.035 22.0736 99.2238 21.5462 99.2629 20.791H99.6242V25.4004H99.2629C99.1717 24.7559 99.0806 24.3424 98.9895 24.1602C98.8723 23.9323 98.6802 23.7533 98.4133 23.623C98.1464 23.4928 97.7362 23.4277 97.1828 23.4277H94.2727V27.793C94.2727 28.3789 94.2987 28.737 94.3508 28.8672C94.4029 28.9909 94.494 29.0918 94.6242 29.1699C94.7544 29.2415 95.0018 29.2773 95.3664 29.2773H97.6125C98.3612 29.2773 98.9048 29.2253 99.2434 29.1211C99.5819 29.0169 99.9074 28.8118 100.22 28.5059C100.624 28.1022 101.037 27.4935 101.46 26.6797H101.851L100.708 30H90.5031V29.6387H90.9719C91.2844 29.6387 91.5806 29.5638 91.8605 29.4141C92.0689 29.3099 92.2089 29.1536 92.2805 28.9453C92.3586 28.737 92.3977 28.3105 92.3977 27.666V19.0625C92.3977 18.2227 92.313 17.7051 92.1437 17.5098C91.9094 17.2493 91.5187 17.1191 90.9719 17.1191H90.5031V16.7578H100.708L100.855 19.6582H100.474C100.337 18.9616 100.184 18.4831 100.015 18.2227C99.8521 17.9622 99.6079 17.7637 99.2824 17.627C99.022 17.5293 98.563 17.4805 97.9055 17.4805H94.2727ZM113.961 30V29.6387H114.459C115.019 29.6387 115.416 29.4596 115.651 29.1016C115.794 28.8867 115.866 28.4049 115.866 27.6562V19.1016C115.866 18.2747 115.774 17.7572 115.592 17.5488C115.338 17.2624 114.961 17.1191 114.459 17.1191H113.961V16.7578H119.352C121.331 16.7578 122.835 16.9824 123.864 17.4316C124.899 17.8809 125.729 18.6296 126.354 19.6777C126.985 20.7259 127.301 21.9368 127.301 23.3105C127.301 25.153 126.741 26.6927 125.621 27.9297C124.365 29.3099 122.451 30 119.879 30H113.961ZM117.741 29.043C118.567 29.2253 119.261 29.3164 119.821 29.3164C121.331 29.3164 122.584 28.7858 123.58 27.7246C124.577 26.6634 125.075 25.2246 125.075 23.4082C125.075 21.5788 124.577 20.1367 123.58 19.082C122.584 18.0273 121.305 17.5 119.743 17.5C119.157 17.5 118.489 17.5944 117.741 17.7832V29.043ZM145.545 29.6387V30H139.871V29.6387H140.339C140.886 29.6387 141.283 29.4792 141.531 29.1602C141.687 28.9518 141.765 28.4505 141.765 27.6562V19.1016C141.765 18.431 141.723 17.9883 141.638 17.7734C141.573 17.6107 141.44 17.4707 141.238 17.3535C140.951 17.1973 140.652 17.1191 140.339 17.1191H139.871V16.7578H145.545V17.1191H145.066C144.526 17.1191 144.132 17.2786 143.884 17.5977C143.722 17.806 143.64 18.3073 143.64 19.1016V27.6562C143.64 28.3268 143.683 28.7695 143.767 28.9844C143.832 29.1471 143.969 29.2871 144.177 29.4043C144.457 29.5605 144.754 29.6387 145.066 29.6387H145.545ZM169.374 16.4551L169.677 20.957H169.374C168.97 19.6094 168.394 18.6393 167.645 18.0469C166.897 17.4544 165.998 17.1582 164.95 17.1582C164.071 17.1582 163.277 17.3828 162.567 17.832C161.858 18.2747 161.298 18.9844 160.887 19.9609C160.484 20.9375 160.282 22.1517 160.282 23.6035C160.282 24.8014 160.474 25.8398 160.858 26.7188C161.242 27.5977 161.818 28.2715 162.587 28.7402C163.361 29.209 164.244 29.4434 165.233 29.4434C166.093 29.4434 166.851 29.2611 167.509 28.8965C168.166 28.5254 168.889 27.793 169.677 26.6992L169.979 26.8945C169.315 28.0729 168.54 28.9355 167.655 29.4824C166.77 30.0293 165.718 30.3027 164.501 30.3027C162.307 30.3027 160.608 29.4889 159.403 27.8613C158.505 26.6504 158.055 25.2246 158.055 23.584C158.055 22.2624 158.352 21.0482 158.944 19.9414C159.537 18.8346 160.35 17.9785 161.386 17.373C162.427 16.7611 163.563 16.4551 164.794 16.4551C165.751 16.4551 166.695 16.6895 167.626 17.1582C167.899 17.3014 168.095 17.373 168.212 17.373C168.387 17.373 168.54 17.3112 168.671 17.1875C168.84 17.0117 168.96 16.7676 169.032 16.4551H169.374ZM189.287 16.4551C191.006 16.4551 192.493 17.1094 193.75 18.418C195.013 19.7201 195.645 21.3477 195.645 23.3008C195.645 25.3125 195.01 26.9824 193.74 28.3105C192.471 29.6387 190.934 30.3027 189.131 30.3027C187.308 30.3027 185.775 29.6549 184.531 28.3594C183.294 27.0638 182.676 25.3874 182.676 23.3301C182.676 21.2272 183.392 19.5117 184.824 18.1836C186.068 17.0312 187.555 16.4551 189.287 16.4551ZM189.102 17.168C187.917 17.168 186.966 17.6074 186.25 18.4863C185.358 19.5801 184.912 21.1816 184.912 23.291C184.912 25.4525 185.374 27.1159 186.299 28.2812C187.008 29.1667 187.946 29.6094 189.111 29.6094C190.355 29.6094 191.38 29.1243 192.188 28.1543C193.001 27.1842 193.408 25.6543 193.408 23.5645C193.408 21.2988 192.962 19.6094 192.07 18.4961C191.354 17.6107 190.365 17.168 189.102 17.168ZM216.896 16.4551V21.0352H216.534C216.417 20.1562 216.206 19.4564 215.9 18.9355C215.6 18.4147 215.17 18.0013 214.611 17.6953C214.051 17.3893 213.471 17.2363 212.872 17.2363C212.195 17.2363 211.635 17.4447 211.193 17.8613C210.75 18.2715 210.529 18.7402 210.529 19.2676C210.529 19.6712 210.668 20.0391 210.948 20.3711C211.352 20.8594 212.312 21.5104 213.829 22.3242C215.066 22.9883 215.909 23.4993 216.359 23.8574C216.814 24.209 217.163 24.6257 217.404 25.1074C217.651 25.5892 217.775 26.0938 217.775 26.6211C217.775 27.6237 217.384 28.4896 216.603 29.2188C215.828 29.9414 214.829 30.3027 213.605 30.3027C213.221 30.3027 212.859 30.2734 212.521 30.2148C212.319 30.1823 211.899 30.0651 211.261 29.8633C210.629 29.6549 210.229 29.5508 210.06 29.5508C209.897 29.5508 209.767 29.5996 209.669 29.6973C209.578 29.7949 209.51 29.9967 209.464 30.3027H209.103V25.7617H209.464C209.633 26.7122 209.861 27.4251 210.148 27.9004C210.434 28.3691 210.87 28.7598 211.456 29.0723C212.049 29.3848 212.696 29.541 213.4 29.541C214.213 29.541 214.855 29.3262 215.323 28.8965C215.799 28.4668 216.036 27.959 216.036 27.373C216.036 27.0475 215.945 26.7188 215.763 26.3867C215.587 26.0547 215.31 25.7454 214.933 25.459C214.679 25.2637 213.986 24.8503 212.853 24.2188C211.72 23.5807 210.913 23.0729 210.431 22.6953C209.956 22.3177 209.594 21.901 209.347 21.4453C209.099 20.9896 208.976 20.4883 208.976 19.9414C208.976 18.9909 209.34 18.1738 210.07 17.4902C210.799 16.8001 211.726 16.4551 212.853 16.4551C213.556 16.4551 214.301 16.6276 215.089 16.9727C215.454 17.1354 215.711 17.2168 215.861 17.2168C216.03 17.2168 216.167 17.168 216.271 17.0703C216.381 16.9661 216.469 16.7611 216.534 16.4551H216.896Z" fill="white"/>
<path d="M5.98205 13.3018L23.9652 0.611952L41.9483 13.3018L43.9464 35.2205L23.9652 44.4495L3.98392 35.2205L5.98205 13.3018Z" stroke="white"/>
<path d="M9.34561 15.2437L23.9652 4.92738L38.5848 15.2437L40.2092 33.0628L23.9652 40.5655L7.72122 33.0628L9.34561 15.2437Z" stroke="white"/>
<path d="M12.6594 17.1569L23.9652 9.17897L35.271 17.1569L36.5272 30.937L23.9652 36.7391L11.4032 30.937L12.6594 17.1569Z" stroke="white"/>
<path d="M16.335 19.2789L23.9652 13.8947L31.5954 19.2789L32.4432 28.5789L23.9652 32.4947L15.4872 28.5789L16.335 19.2789Z" stroke="white"/>
</svg>
