<svg xmlns="http://www.w3.org/2000/svg" width="1024" viewBox="0 0 768 767.999994" height="1024" preserveAspectRatio="xMidYMid meet"><defs><clipPath id="5f4f79372a"><path d="M 0.417969 61.441406 L 767.582031 61.441406 L 767.582031 706.234375 L 0.417969 706.234375 Z M 0.417969 61.441406 " clip-rule="nonzero"/></clipPath><clipPath id="ef82a8c4b8"><path d="M 470 582 L 595 582 L 595 706.234375 L 470 706.234375 Z M 470 582 " clip-rule="nonzero"/></clipPath><clipPath id="de9140bc31"><path d="M 173 582 L 298 582 L 298 706.234375 L 173 706.234375 Z M 173 582 " clip-rule="nonzero"/></clipPath><clipPath id="4e5aeee94c"><path d="M 322 582 L 446 582 L 446 706.234375 L 322 706.234375 Z M 322 582 " clip-rule="nonzero"/></clipPath></defs><g clip-path="url(#5f4f79372a)"><path fill="#100f0d" d="M 276.660156 208.664062 L 491.335938 208.664062 C 496.445312 208.664062 500.667969 212.816406 500.667969 217.992188 C 500.667969 223.167969 496.445312 227.320312 491.335938 227.320312 L 276.660156 227.320312 C 271.484375 227.320312 267.332031 223.167969 267.332031 217.992188 C 267.332031 212.816406 271.484375 208.664062 276.660156 208.664062 Z M 319.160156 163.445312 C 319.296875 163.445312 319.433594 163.445312 319.570312 163.445312 L 448.429688 163.445312 C 453.605469 163.515625 457.761719 167.738281 457.691406 172.914062 C 457.625 177.953125 453.539062 182.105469 448.429688 182.105469 L 319.570312 182.105469 C 314.394531 182.171875 310.171875 178.019531 310.101562 172.84375 C 310.101562 167.804688 314.121094 163.582031 319.160156 163.445312 Z M 383.25 61.371094 C 378.550781 61.507812 373.921875 62.53125 369.699219 64.4375 L 0.417969 229.976562 L 0.417969 307.332031 L 50.066406 307.332031 L 50.066406 706.234375 L 122.804688 706.234375 L 122.804688 331.167969 L 645.125 331.167969 L 645.125 706.234375 L 718 706.234375 L 718 307.332031 L 767.582031 307.332031 L 767.582031 229.976562 L 398.300781 64.4375 C 393.535156 62.324219 388.425781 61.304688 383.25 61.441406 L 383.25 61.371094 " fill-opacity="1" fill-rule="nonzero"/></g><g clip-path="url(#ef82a8c4b8)"><path fill="#100f0d" d="M 480.03125 706.234375 L 585.394531 706.234375 C 590.503906 706.234375 594.65625 702.148438 594.65625 697.042969 L 594.65625 591.289062 C 594.65625 586.183594 590.503906 582.097656 585.394531 582.097656 L 480.03125 582.097656 C 474.925781 582.097656 470.769531 586.183594 470.769531 591.289062 L 470.769531 697.042969 C 470.769531 702.148438 474.925781 706.234375 480.03125 706.234375 " fill-opacity="1" fill-rule="nonzero"/></g><g clip-path="url(#de9140bc31)"><path fill="#100f0d" d="M 287.96875 706.234375 C 293.074219 706.234375 297.230469 702.148438 297.230469 697.042969 L 297.230469 591.289062 C 297.230469 586.183594 293.074219 582.097656 287.96875 582.097656 L 182.535156 582.097656 C 177.429688 582.097656 173.34375 586.183594 173.34375 591.289062 L 173.34375 697.042969 C 173.34375 702.148438 177.429688 706.234375 182.535156 706.234375 L 287.96875 706.234375 " fill-opacity="1" fill-rule="nonzero"/></g><g clip-path="url(#4e5aeee94c)"><path fill="#100f0d" d="M 322.023438 591.289062 L 322.023438 697.042969 C 322.023438 702.148438 326.175781 706.234375 331.285156 706.234375 L 436.714844 706.234375 C 441.753906 706.234375 445.910156 702.148438 445.910156 697.042969 L 445.910156 591.289062 C 445.910156 586.183594 441.753906 582.097656 436.714844 582.097656 L 331.285156 582.097656 C 326.175781 582.097656 322.023438 586.183594 322.023438 591.289062 " fill-opacity="1" fill-rule="nonzero"/></g><path fill="#100f0d" d="M 362.339844 554.382812 C 367.382812 554.382812 371.535156 550.296875 371.535156 545.191406 L 371.535156 439.4375 C 371.535156 434.332031 367.382812 430.246094 362.339844 430.246094 L 256.910156 430.246094 C 251.800781 430.246094 247.648438 434.332031 247.648438 439.4375 L 247.648438 545.191406 C 247.648438 550.296875 251.800781 554.382812 256.910156 554.382812 L 362.339844 554.382812 " fill-opacity="1" fill-rule="nonzero"/><path fill="#100f0d" d="M 405.589844 554.382812 L 511.019531 554.382812 C 516.128906 554.382812 520.285156 550.296875 520.285156 545.191406 L 520.285156 439.4375 C 520.285156 434.332031 516.128906 430.246094 511.019531 430.246094 L 405.589844 430.246094 C 400.550781 430.246094 396.394531 434.332031 396.394531 439.4375 L 396.394531 545.191406 C 396.394531 550.296875 400.550781 554.382812 405.589844 554.382812 " fill-opacity="1" fill-rule="nonzero"/></svg>
