<svg xmlns="http://www.w3.org/2000/svg" xmlns:xlink="http://www.w3.org/1999/xlink" width="404" zoomAndPan="magnify" viewBox="0 0 303 159.000002" height="212" preserveAspectRatio="xMidYMid meet" version="1.0"><defs><g/><clipPath id="d42f906c86"><path d="M 38.511719 47.789062 L 101.121094 47.789062 L 101.121094 110.398438 L 38.511719 110.398438 Z M 38.511719 47.789062 " clip-rule="nonzero"/></clipPath><clipPath id="7ac6c59bb9"><path d="M 38.511719 47.867188 L 101.121094 47.867188 L 101.121094 110.476562 L 38.511719 110.476562 Z M 38.511719 47.867188 " clip-rule="nonzero"/></clipPath></defs><g clip-path="url(#d42f906c86)"><path fill="#000000" d="M 101.121094 79.09375 C 101.121094 80.117188 101.070312 81.140625 100.96875 82.160156 C 100.867188 83.183594 100.71875 84.195312 100.519531 85.199219 C 100.316406 86.207031 100.070312 87.199219 99.769531 88.179688 C 99.472656 89.160156 99.128906 90.125 98.738281 91.074219 C 98.34375 92.019531 97.90625 92.945312 97.421875 93.851562 C 96.941406 94.753906 96.414062 95.632812 95.84375 96.484375 C 95.273438 97.335938 94.664062 98.160156 94.015625 98.953125 C 93.363281 99.746094 92.675781 100.503906 91.949219 101.226562 C 91.226562 101.953125 90.46875 102.640625 89.675781 103.292969 C 88.882812 103.941406 88.058594 104.550781 87.207031 105.121094 C 86.355469 105.691406 85.476562 106.21875 84.574219 106.699219 C 83.667969 107.183594 82.742188 107.621094 81.796875 108.015625 C 80.847656 108.40625 79.882812 108.75 78.902344 109.046875 C 77.921875 109.347656 76.929688 109.59375 75.921875 109.796875 C 74.917969 109.996094 73.90625 110.144531 72.882812 110.246094 C 71.863281 110.347656 70.839844 110.398438 69.816406 110.398438 C 68.789062 110.398438 67.769531 110.347656 66.746094 110.246094 C 65.726562 110.144531 64.714844 109.996094 63.710938 109.796875 C 62.703125 109.59375 61.710938 109.347656 60.730469 109.046875 C 59.75 108.75 58.785156 108.40625 57.835938 108.015625 C 56.890625 107.621094 55.964844 107.183594 55.058594 106.699219 C 54.15625 106.21875 53.277344 105.691406 52.425781 105.121094 C 51.574219 104.550781 50.75 103.941406 49.957031 103.292969 C 49.164062 102.640625 48.40625 101.953125 47.679688 101.226562 C 46.957031 100.503906 46.269531 99.746094 45.617188 98.953125 C 44.96875 98.160156 44.359375 97.335938 43.789062 96.484375 C 43.21875 95.632812 42.691406 94.753906 42.210938 93.851562 C 41.726562 92.945312 41.289062 92.019531 40.894531 91.074219 C 40.503906 90.125 40.160156 89.160156 39.859375 88.179688 C 39.5625 87.199219 39.316406 86.207031 39.113281 85.199219 C 38.914062 84.195312 38.765625 83.183594 38.664062 82.160156 C 38.5625 81.140625 38.511719 80.117188 38.511719 79.09375 C 38.511719 78.066406 38.5625 77.046875 38.664062 76.023438 C 38.765625 75.003906 38.914062 73.992188 39.113281 72.988281 C 39.316406 71.980469 39.5625 70.988281 39.859375 70.007812 C 40.160156 69.027344 40.503906 68.0625 40.894531 67.113281 C 41.289062 66.167969 41.726562 65.242188 42.210938 64.335938 C 42.691406 63.433594 43.21875 62.554688 43.789062 61.703125 C 44.359375 60.851562 44.96875 60.027344 45.617188 59.234375 C 46.269531 58.441406 46.957031 57.683594 47.679688 56.957031 C 48.40625 56.234375 49.164062 55.546875 49.957031 54.894531 C 50.75 54.246094 51.574219 53.636719 52.425781 53.066406 C 53.277344 52.496094 54.15625 51.96875 55.058594 51.488281 C 55.964844 51.003906 56.890625 50.566406 57.835938 50.171875 C 58.785156 49.78125 59.75 49.4375 60.730469 49.136719 C 61.710938 48.839844 62.703125 48.59375 63.710938 48.390625 C 64.714844 48.191406 65.726562 48.042969 66.746094 47.941406 C 67.769531 47.839844 68.789062 47.789062 69.816406 47.789062 C 70.839844 47.789062 71.863281 47.839844 72.882812 47.941406 C 73.90625 48.042969 74.917969 48.191406 75.921875 48.390625 C 76.929688 48.59375 77.921875 48.839844 78.902344 49.136719 C 79.882812 49.4375 80.847656 49.78125 81.796875 50.171875 C 82.742188 50.566406 83.667969 51.003906 84.574219 51.488281 C 85.476562 51.96875 86.355469 52.496094 87.207031 53.066406 C 88.058594 53.636719 88.882812 54.246094 89.675781 54.894531 C 90.46875 55.546875 91.226562 56.234375 91.949219 56.957031 C 92.675781 57.683594 93.363281 58.441406 94.015625 59.234375 C 94.664062 60.027344 95.273438 60.851562 95.84375 61.703125 C 96.414062 62.554688 96.941406 63.433594 97.421875 64.335938 C 97.90625 65.242188 98.34375 66.167969 98.738281 67.113281 C 99.128906 68.0625 99.472656 69.027344 99.769531 70.007812 C 100.070312 70.988281 100.316406 71.980469 100.519531 72.988281 C 100.71875 73.992188 100.867188 75.003906 100.96875 76.023438 C 101.070312 77.046875 101.121094 78.066406 101.121094 79.09375 Z M 101.121094 79.09375 " fill-opacity="1" fill-rule="nonzero"/></g><path stroke-linecap="round" transform="matrix(0.000000000000000377, 0.746771, -0.745312, 0.000000000000000377, 116.135119, 37.347149)" fill="none" stroke-linejoin="miter" d="M 1.998865 1.999951 L 109.78584 1.999951 " stroke="#000000" stroke-width="4" stroke-opacity="1" stroke-miterlimit="4"/><g clip-path="url(#7ac6c59bb9)"><path fill="#ffffff" d="M 69.773438 47.867188 C 52.726562 47.867188 38.554688 61.925781 38.546875 78.839844 C 38.542969 96.496094 52.363281 110.472656 69.828125 110.476562 C 87.054688 110.476562 101.058594 96.460938 101.078125 79.203125 C 101.097656 61.960938 87.019531 47.867188 69.773438 47.867188 Z M 94.964844 75.867188 C 94.953125 75.8125 94.949219 75.753906 94.9375 75.699219 C 94.847656 75.265625 94.46875 74.632812 94.730469 74.449219 C 95.105469 74.183594 95.617188 74.675781 96.074219 74.832031 C 96.390625 74.9375 96.671875 75.148438 96.980469 75.273438 C 97.429688 75.457031 97.714844 75.710938 97.5 76.199219 C 97.410156 78.378906 97.1875 80.5 96.710938 82.589844 C 96.667969 82.78125 96.570312 82.96875 96.566406 83.160156 C 96.550781 83.507812 96.289062 83.613281 96.058594 83.605469 C 95.714844 83.597656 95.847656 83.261719 95.847656 83.074219 C 95.835938 80.636719 95.476562 78.242188 94.964844 75.867188 Z M 55.269531 101 C 55.304688 100.925781 55.339844 100.851562 55.375 100.777344 C 56.746094 100.96875 58.121094 101.160156 59.714844 101.386719 C 58.664062 101.722656 57.832031 102.117188 56.960938 102.230469 C 56.097656 102.339844 55.839844 101.417969 55.269531 101 Z M 56.4375 103.972656 C 56.933594 104.75 57.46875 105.503906 58.101562 106.4375 C 56.796875 105.929688 55.757812 105.375 54.722656 104.820312 C 54.320312 104.605469 54.367188 104.371094 54.628906 104.09375 C 54.742188 103.972656 54.859375 103.847656 54.984375 103.738281 C 55.824219 103.019531 55.847656 103.039062 56.4375 103.972656 Z M 55.496094 100.398438 C 55.136719 100.332031 54.976562 100.140625 54.863281 99.820312 C 53.949219 97.257812 53.386719 94.613281 53.09375 91.914062 C 52.996094 91.046875 52.972656 90.167969 52.882812 89.296875 C 52.835938 88.824219 52.941406 88.582031 53.46875 88.503906 C 54.695312 88.328125 55.917969 88.128906 57.125 87.855469 C 57.75 87.710938 57.90625 88.019531 58.011719 88.488281 C 58.421875 90.351562 58.976562 92.171875 59.59375 93.976562 C 60.296875 96.023438 61.097656 98.035156 62.078125 99.96875 C 62.554688 100.910156 62.542969 100.917969 61.523438 101.109375 C 61.382812 101.136719 61.246094 101.160156 61.136719 101.175781 C 59.230469 100.941406 57.351562 100.75 55.496094 100.398438 Z M 43.746094 75.300781 C 43.804688 76.796875 43.859375 78.292969 44.140625 79.769531 C 44.371094 80.988281 44.613281 82.207031 44.839844 83.425781 C 44.875 83.605469 45.082031 83.808594 44.898438 83.972656 C 44.730469 84.121094 44.539062 83.972656 44.359375 83.890625 C 43.796875 83.636719 43.234375 83.386719 42.660156 83.15625 C 42.164062 82.960938 41.953125 82.625 42.085938 82.097656 C 42.226562 79.882812 42.460938 77.679688 42.945312 75.511719 C 42.972656 75.402344 43.042969 75.304688 43.070312 75.195312 C 43.128906 74.941406 43.285156 74.773438 43.542969 74.8125 C 43.820312 74.855469 43.742188 75.121094 43.746094 75.300781 Z M 44.097656 72.707031 C 44.035156 71.046875 44.953125 69.558594 45.632812 67.996094 C 45.757812 67.710938 45.933594 67.664062 46.234375 67.8125 C 48.730469 69.03125 51.382812 69.75 54.089844 70.3125 C 54.292969 70.355469 54.734375 70.234375 54.671875 70.722656 C 54.625 71.085938 54.589844 71.402344 54.082031 71.492188 C 51.628906 71.933594 49.171875 72.375 46.792969 73.140625 C 46.15625 73.347656 45.488281 73.5 44.886719 73.789062 C 44.121094 74.15625 44.03125 73.820312 44.097656 73.183594 C 44.109375 73.074219 44.097656 72.960938 44.097656 72.707031 Z M 84.285156 57.628906 C 82.894531 57.425781 81.546875 57.230469 80.203125 57.035156 C 80.203125 56.988281 80.207031 56.941406 80.207031 56.894531 C 80.953125 56.65625 81.691406 56.410156 82.4375 56.179688 C 83.046875 55.996094 83.808594 56.578125 84.285156 57.628906 Z M 83.117188 54.339844 C 82.640625 53.59375 82.125 52.871094 81.527344 51.988281 C 82.855469 52.457031 83.929688 53.042969 84.996094 53.648438 C 85.257812 53.796875 85.234375 54 85.039062 54.203125 C 84.941406 54.304688 84.855469 54.417969 84.753906 54.515625 C 83.867188 55.375 83.761719 55.355469 83.117188 54.339844 Z M 84.035156 57.972656 C 84.4375 58.039062 84.605469 58.21875 84.734375 58.574219 C 85.6875 61.210938 86.242188 63.9375 86.535156 66.71875 C 86.621094 67.53125 86.644531 68.351562 86.726562 69.164062 C 86.769531 69.582031 86.625 69.800781 86.21875 69.871094 C 84.890625 70.109375 83.558594 70.332031 82.234375 70.59375 C 81.6875 70.699219 81.695312 70.269531 81.628906 69.992188 C 81.179688 68.082031 80.621094 66.207031 79.984375 64.351562 C 79.28125 62.308594 78.480469 60.304688 77.5 58.375 C 77.011719 57.414062 77.042969 57.375 78.085938 57.308594 C 78.339844 57.292969 78.59375 57.285156 78.832031 57.273438 C 80.585938 57.433594 82.3125 57.679688 84.035156 57.972656 Z M 91.1875 68.488281 C 90.085938 68.828125 88.980469 69.15625 87.875 69.492188 C 87.203125 69.695312 87.089844 69.433594 87.0625 68.886719 C 86.9375 66.371094 86.582031 63.886719 85.96875 61.445312 C 85.71875 60.441406 85.402344 59.457031 85.113281 58.460938 C 86.292969 59.324219 87.152344 60.433594 87.996094 61.554688 C 89.394531 63.40625 90.5625 65.402344 91.632812 67.460938 C 91.957031 68.078125 91.824219 68.289062 91.1875 68.488281 Z M 92.265625 68.839844 C 92.894531 70.335938 93.519531 71.832031 93.964844 73.566406 C 91.742188 72.878906 89.675781 72.285156 87.546875 71.960938 C 87.363281 71.933594 87.253906 71.839844 87.1875 71.660156 C 86.839844 70.714844 87.210938 69.992188 88.199219 69.75 C 89.34375 69.46875 90.46875 69.117188 91.574219 68.703125 C 91.828125 68.605469 92.09375 68.433594 92.265625 68.839844 Z M 86.773438 74.316406 C 86.554688 78.273438 85.957031 82.164062 85 86.003906 C 84.847656 86.621094 84.398438 86.738281 83.9375 86.707031 C 83.433594 86.671875 83.621094 86.175781 83.621094 85.886719 C 83.632812 81.285156 83.085938 76.746094 82.109375 72.253906 C 82.007812 71.78125 82.035156 71.449219 82.710938 71.566406 C 83.921875 71.785156 85.148438 71.929688 86.367188 72.097656 C 86.746094 72.152344 86.789062 72.390625 86.777344 72.710938 C 86.757812 73.246094 86.773438 73.78125 86.773438 74.316406 Z M 84.105469 87.796875 C 83.917969 87.734375 83.585938 87.84375 83.644531 87.480469 C 83.703125 87.082031 84.039062 87.0625 84.351562 87.046875 C 84.546875 87.035156 84.6875 87.097656 84.632812 87.351562 C 84.527344 87.570312 84.539062 87.9375 84.105469 87.796875 Z M 84.277344 88.554688 C 84.109375 89.019531 83.949219 89.492188 83.785156 89.960938 C 83.726562 89.957031 83.671875 89.953125 83.617188 89.949219 C 83.617188 89.445312 83.617188 88.941406 83.617188 88.4375 C 83.613281 88.175781 83.734375 88.097656 83.988281 88.171875 C 84.191406 88.230469 84.378906 88.269531 84.277344 88.554688 Z M 72.402344 86.722656 C 71.804688 86.738281 71.898438 86.3125 71.917969 85.960938 C 72.0625 83.703125 72.09375 81.445312 72.25 79.183594 C 72.25 76.921875 72.261719 74.660156 72.238281 72.402344 C 72.234375 71.898438 72.367188 71.742188 72.894531 71.707031 C 75.03125 71.5625 77.179688 71.578125 79.304688 71.253906 C 79.414062 71.238281 79.527344 71.25 79.640625 71.246094 C 81.386719 71.222656 81.503906 71.289062 81.863281 72.972656 C 82.429688 75.640625 82.753906 78.34375 83.011719 81.058594 C 83.167969 82.722656 83.050781 84.394531 83.308594 86.042969 C 83.410156 86.691406 83.09375 86.832031 82.519531 86.925781 C 79.132812 87.472656 75.777344 86.625 72.402344 86.722656 Z M 76.875 87.257812 C 75.386719 87.472656 73.90625 87.664062 72.414062 87.589844 C 72.210938 87.578125 71.914062 87.671875 71.925781 87.304688 C 71.933594 87.011719 72.171875 87.035156 72.363281 87.042969 C 73.867188 87.109375 75.371094 87.183594 76.875 87.257812 Z M 71.617188 86.023438 C 71.628906 86.542969 71.425781 86.710938 70.914062 86.683594 C 70.097656 86.640625 69.273438 86.625 68.457031 86.667969 C 67.871094 86.703125 67.671875 86.535156 67.679688 85.921875 C 67.714844 83.660156 68.023438 74.613281 68 72.347656 C 67.996094 71.863281 68.15625 71.710938 68.632812 71.730469 C 69.421875 71.765625 70.21875 71.789062 71.003906 71.730469 C 71.703125 71.679688 71.9375 71.890625 71.90625 72.617188 C 71.746094 76.234375 71.867188 79.859375 71.65625 83.476562 C 71.605469 84.324219 71.601562 85.175781 71.617188 86.023438 Z M 66.613281 86.730469 C 64.132812 86.8125 61.652344 86.945312 59.175781 87.089844 C 58.308594 87.140625 57.988281 86.78125 57.808594 85.925781 C 56.925781 81.695312 56.539062 77.414062 56.320312 73.109375 C 56.238281 71.5 56.269531 71.605469 57.847656 71.382812 C 59.46875 71.15625 61.054688 71.351562 62.652344 71.4375 C 63.988281 71.507812 65.609375 71.640625 66.996094 71.707031 C 67.214844 71.71875 67.386719 71.898438 67.386719 72.121094 L 67.386719 85.871094 C 67.394531 86.464844 67.277344 86.710938 66.613281 86.730469 Z M 66.890625 87.585938 C 65.472656 87.527344 64.054688 87.457031 62.636719 87.386719 C 62.636719 87.335938 62.636719 87.289062 62.636719 87.238281 C 64.0625 87.171875 65.484375 87.101562 66.90625 87.046875 C 67.085938 87.039062 67.332031 86.988281 67.351562 87.28125 C 67.378906 87.640625 67.097656 87.597656 66.890625 87.585938 Z M 52.777344 87.261719 C 52.730469 86.980469 52.660156 86.601562 53.199219 86.6875 C 54.136719 86.835938 55.074219 86.957031 56.015625 87.09375 C 56.425781 87.152344 56.835938 87.214844 57.246094 87.277344 C 57.257812 87.328125 57.265625 87.378906 57.273438 87.429688 C 55.886719 87.695312 54.507812 88.035156 53.105469 88.191406 C 52.558594 88.253906 52.835938 87.59375 52.777344 87.261719 Z M 56.765625 86.8125 C 55.648438 86.558594 54.5 86.414062 53.359375 86.285156 C 52.804688 86.222656 52.746094 85.960938 52.800781 85.503906 C 52.867188 85 52.882812 84.488281 52.917969 83.980469 C 53.042969 80.046875 53.65625 76.1875 54.605469 72.371094 C 54.753906 71.765625 55.117188 71.699219 55.582031 71.726562 C 56.117188 71.761719 55.933594 72.230469 55.960938 72.507812 C 56.113281 73.96875 56.027344 75.4375 56.152344 76.90625 C 56.410156 79.992188 56.824219 83.050781 57.460938 86.074219 C 57.609375 86.769531 57.566406 86.996094 56.765625 86.8125 Z M 55.683594 70.253906 C 55.359375 70.214844 55.242188 70.050781 55.351562 69.734375 C 55.519531 69.273438 55.683594 68.8125 55.847656 68.351562 C 55.902344 68.367188 55.957031 68.382812 56.011719 68.398438 C 56.011719 68.871094 56.015625 69.34375 56.011719 69.816406 C 56.007812 70.039062 56.042969 70.292969 55.683594 70.253906 Z M 55.46875 70.566406 C 55.714844 70.589844 55.921875 70.632812 55.910156 70.941406 C 55.898438 71.324219 55.617188 71.289062 55.363281 71.289062 C 55.175781 71.289062 54.925781 71.335938 54.980469 71.015625 C 55.027344 70.753906 55.128906 70.53125 55.46875 70.566406 Z M 67.195312 71.308594 C 65.679688 71.34375 64.175781 71.191406 62.667969 70.992188 C 64.191406 70.980469 65.695312 70.800781 67.207031 70.742188 C 67.414062 70.734375 67.703125 70.671875 67.695312 71.03125 C 67.6875 71.378906 67.40625 71.304688 67.195312 71.308594 Z M 71.164062 87.589844 C 70.632812 87.59375 70.097656 87.59375 69.5625 87.59375 C 69.5625 87.589844 69.5625 87.589844 69.5625 87.589844 C 69.054688 87.589844 68.550781 87.59375 68.042969 87.585938 C 67.867188 87.585938 67.703125 87.542969 67.703125 87.3125 C 67.703125 87.085938 67.867188 87.039062 68.042969 87.039062 C 69.085938 87.035156 70.125 87.035156 71.167969 87.039062 C 71.34375 87.039062 71.515625 87.078125 71.507812 87.308594 C 71.5 87.519531 71.355469 87.589844 71.164062 87.589844 Z M 71.464844 88.636719 C 71.3125 91.316406 71.183594 93.996094 71.03125 96.671875 C 70.964844 97.769531 70.839844 98.867188 70.78125 99.964844 C 70.761719 100.355469 70.65625 100.535156 70.246094 100.503906 C 69.9375 100.476562 69.625 100.5 69.3125 100.5 C 67.886719 100.5 67.871094 100.5 67.851562 99.03125 C 67.832031 97.390625 67.695312 90.554688 67.671875 88.773438 C 67.664062 88.253906 67.773438 88.003906 68.363281 88.035156 C 69.207031 88.085938 70.054688 88.074219 70.902344 88.046875 C 71.355469 88.03125 71.488281 88.199219 71.464844 88.636719 Z M 68.449219 70.742188 C 68.984375 70.738281 69.519531 70.742188 70.054688 70.742188 C 70.054688 70.742188 70.054688 70.738281 70.054688 70.738281 C 70.503906 70.738281 70.953125 70.730469 71.40625 70.742188 C 71.613281 70.746094 71.890625 70.683594 71.882812 71.042969 C 71.875 71.3125 71.671875 71.339844 71.46875 71.355469 C 70.457031 71.429688 69.445312 71.410156 68.433594 71.335938 C 68.265625 71.324219 68.085938 71.300781 68.070312 71.074219 C 68.054688 70.800781 68.234375 70.742188 68.449219 70.742188 Z M 72.273438 70.992188 C 72.300781 70.699219 72.546875 70.734375 72.722656 70.761719 C 74.003906 70.945312 75.292969 70.894531 76.574219 71 C 75.296875 71.382812 74.003906 71.257812 72.722656 71.320312 C 72.5 71.332031 72.242188 71.339844 72.273438 70.992188 Z M 86.773438 71.621094 C 86.726562 71.910156 86.457031 71.703125 86.28125 71.675781 C 84.875 71.464844 83.46875 71.261719 81.855469 71.023438 C 83.457031 70.730469 84.855469 70.472656 86.253906 70.222656 C 86.429688 70.191406 86.710938 70.09375 86.75 70.367188 C 86.808594 70.777344 86.835938 71.214844 86.773438 71.621094 Z M 81.257812 70.070312 C 81.378906 70.535156 81.210938 70.777344 80.722656 70.773438 C 80.382812 70.769531 80.042969 70.773438 79.707031 70.773438 C 77.398438 70.667969 75.097656 70.378906 72.78125 70.445312 C 72.378906 70.457031 72.238281 70.308594 72.246094 69.90625 C 72.308594 66.089844 72.140625 62.273438 72.050781 58.457031 C 72.042969 57.96875 72.214844 57.84375 72.679688 57.820312 C 73.832031 57.761719 74.988281 57.664062 76.132812 57.527344 C 76.515625 57.480469 76.691406 57.601562 76.851562 57.914062 C 78.820312 61.785156 80.1875 65.875 81.257812 70.070312 Z M 72.46875 57.523438 C 72.222656 57.558594 72.015625 57.507812 72.003906 57.191406 C 71.992188 56.855469 72.214844 56.835938 72.453125 56.847656 C 73.652344 56.90625 74.851562 56.972656 76.046875 57.035156 C 74.882812 57.46875 73.65625 57.347656 72.46875 57.523438 Z M 75.679688 56.679688 C 74.527344 56.628906 73.371094 56.566406 72.21875 56.507812 C 72.011719 56.496094 71.929688 56.375 71.917969 56.179688 C 71.800781 54.441406 71.683594 52.707031 71.550781 50.785156 C 73.453125 52.4375 74.769531 54.28125 75.902344 56.269531 C 76.085938 56.585938 75.984375 56.691406 75.679688 56.679688 Z M 71.257812 57.535156 C 70.894531 57.535156 70.527344 57.535156 70.164062 57.535156 C 70.164062 57.535156 70.164062 57.539062 70.164062 57.539062 C 69.882812 57.539062 69.601562 57.546875 69.324219 57.535156 C 69.136719 57.527344 68.894531 57.5625 68.929688 57.25 C 68.953125 57.054688 68.980469 56.828125 69.246094 56.828125 C 69.945312 56.820312 70.644531 56.824219 71.347656 56.835938 C 71.5625 56.839844 71.601562 57.003906 71.613281 57.1875 C 71.628906 57.449219 71.488281 57.535156 71.257812 57.535156 Z M 69.550781 57.898438 C 69.632812 57.914062 69.71875 57.90625 69.804688 57.910156 C 71.707031 57.925781 71.726562 57.925781 71.761719 59.894531 C 71.792969 61.390625 71.894531 67.953125 71.925781 69.734375 C 71.9375 70.339844 71.683594 70.4375 71.164062 70.40625 C 70.347656 70.359375 69.527344 70.34375 68.710938 70.367188 C 68.25 70.382812 68.121094 70.210938 68.144531 69.777344 C 68.238281 67.914062 68.28125 66.046875 68.398438 64.183594 C 68.511719 62.296875 68.710938 60.410156 68.824219 58.523438 C 68.855469 57.984375 69.0625 57.820312 69.550781 57.898438 Z M 67.976562 57.53125 C 66.472656 57.429688 64.96875 57.3125 63.464844 57.203125 C 63.472656 57.140625 63.480469 57.074219 63.492188 57.007812 C 64.976562 56.945312 66.460938 56.871094 67.949219 56.820312 C 68.1875 56.8125 68.550781 56.675781 68.5625 57.15625 C 68.574219 57.617188 68.238281 57.546875 67.976562 57.53125 Z M 67.890625 57.847656 C 68.28125 57.847656 68.507812 57.898438 68.46875 58.414062 C 68.210938 62.191406 67.980469 65.96875 67.753906 69.75 C 67.730469 70.171875 67.667969 70.441406 67.152344 70.433594 C 64.722656 70.390625 62.304688 70.566406 60.289062 70.769531 C 58.835938 70.816406 57.820312 70.527344 56.78125 70.4375 C 56.179688 70.386719 56.40625 69.964844 56.382812 69.621094 C 56.082031 65.648438 58.269531 62.539062 59.910156 59.226562 C 60.660156 57.710938 61.539062 56.964844 63.351562 57.457031 C 64.808594 57.851562 66.367188 57.851562 67.890625 57.847656 Z M 56.910156 64.289062 C 56.714844 63.328125 57.039062 62.40625 57.191406 61.484375 C 57.378906 60.359375 57.742188 59.261719 57.988281 58.140625 C 58.089844 57.679688 58.285156 57.46875 58.773438 57.472656 C 59.359375 57.480469 59.929688 57.214844 60.664062 57.386719 C 59.222656 59.65625 58.023438 61.9375 56.910156 64.289062 Z M 58.34375 55.8125 C 58.222656 56.089844 57.980469 56.039062 57.765625 55.953125 C 57.253906 55.746094 56.695312 55.628906 56.207031 55.238281 C 57.195312 54.464844 58.199219 53.765625 59.523438 53.105469 C 59.066406 54.160156 58.710938 54.988281 58.34375 55.8125 Z M 56.214844 55.695312 C 56.617188 55.890625 57.042969 56.039062 57.453125 56.21875 C 57.691406 56.324219 58.082031 56.289062 58.027344 56.703125 C 57.976562 57.089844 57.699219 57.253906 57.328125 57.3125 C 56.21875 57.496094 55.113281 57.695312 54.003906 57.867188 C 53.707031 57.914062 53.433594 58.148438 52.964844 57.925781 C 53.828125 57.175781 54.628906 56.476562 55.433594 55.78125 C 55.664062 55.582031 55.917969 55.550781 56.214844 55.695312 Z M 57.433594 57.667969 C 57.507812 57.660156 57.585938 57.710938 57.691406 57.742188 C 56.894531 60.480469 56.46875 63.269531 56.136719 66.085938 C 55.988281 67.34375 55.378906 68.550781 54.980469 69.78125 C 54.890625 70.054688 54.714844 70.074219 54.449219 70.019531 C 51.742188 69.464844 49.074219 68.792969 46.5625 67.59375 C 46.105469 67.371094 46.023438 67.203125 46.277344 66.734375 C 47.835938 63.871094 49.761719 61.28125 51.980469 58.90625 C 52.113281 58.765625 52.277344 58.605469 52.453125 58.566406 C 54.101562 58.195312 55.75 57.84375 57.433594 57.667969 Z M 46.402344 65.679688 C 46.234375 65.972656 46.082031 66.273438 45.902344 66.558594 C 45.789062 66.742188 45.792969 67.105469 45.398438 66.9375 C 45.074219 66.796875 45.023438 66.554688 45.117188 66.246094 C 45.3125 65.601562 45.492188 64.949219 45.703125 64.308594 C 45.847656 63.855469 46.078125 63.421875 46.191406 62.960938 C 46.847656 60.289062 48.722656 59.171875 51.402344 58.941406 C 49.429688 61.023438 47.789062 63.261719 46.402344 65.679688 Z M 45.15625 67.230469 C 45.324219 67.300781 45.515625 67.371094 45.359375 67.644531 C 45.132812 68.039062 45.019531 68.496094 44.679688 68.875 C 44.484375 68.34375 44.789062 67.917969 44.8125 67.460938 C 44.824219 67.28125 44.949219 67.140625 45.15625 67.230469 Z M 44.09375 75.171875 C 44.089844 74.832031 44.050781 74.503906 44.476562 74.34375 C 47.515625 73.171875 50.683594 72.492188 53.894531 71.929688 C 54.289062 71.882812 54.363281 72.066406 54.261719 72.433594 C 53.449219 75.371094 52.988281 78.378906 52.691406 81.40625 C 52.558594 82.753906 52.515625 84.113281 52.46875 85.464844 C 52.453125 85.925781 52.367188 86.140625 51.839844 86.027344 C 49.894531 85.609375 47.96875 85.144531 46.070312 84.542969 C 45.660156 84.410156 45.402344 84.21875 45.292969 83.777344 C 44.59375 80.949219 44.117188 78.09375 44.09375 75.171875 Z M 51.949219 86.414062 C 52.609375 86.515625 52.46875 87.042969 52.445312 87.460938 C 52.421875 87.855469 52.671875 88.328125 51.949219 88.5 C 50.613281 88.820312 49.308594 89.269531 48 89.695312 C 47.683594 89.796875 47.472656 89.847656 47.316406 89.496094 C 46.675781 88.007812 46.074219 86.503906 45.628906 84.828125 C 47.777344 85.476562 49.832031 86.074219 51.949219 86.414062 Z M 49.242188 89.613281 C 50.046875 89.359375 50.867188 89.160156 51.667969 88.90625 C 52.226562 88.730469 52.480469 88.757812 52.523438 89.480469 C 52.707031 92.464844 53.136719 95.414062 53.996094 98.289062 C 54.167969 98.875 54.359375 99.453125 54.539062 100.035156 C 51.953125 97.582031 49.96875 94.757812 48.371094 91.664062 C 47.585938 90.148438 47.601562 90.128906 49.242188 89.613281 Z M 58.351562 88.375 C 58.234375 87.910156 58.285156 87.730469 58.828125 87.621094 C 59.972656 87.394531 61.089844 87.660156 62.195312 87.761719 C 63.710938 87.898438 65.234375 87.8125 66.75 88.003906 C 67.28125 88.070312 67.390625 88.234375 67.386719 88.714844 C 67.363281 90.582031 67.53125 97.980469 67.558594 99.816406 C 67.5625 100.296875 67.488281 100.511719 66.933594 100.535156 C 65.867188 100.582031 64.800781 100.707031 63.738281 100.835938 C 63.1875 100.902344 62.882812 100.734375 62.625 100.21875 C 60.730469 96.4375 59.40625 92.457031 58.351562 88.375 Z M 67.171875 100.894531 C 67.40625 100.878906 67.554688 100.945312 67.570312 101.199219 C 67.589844 101.488281 67.398438 101.523438 67.1875 101.515625 C 65.953125 101.460938 64.722656 101.398438 63.488281 101.339844 C 64.707031 100.988281 65.941406 100.96875 67.171875 100.894531 Z M 67.203125 101.855469 C 67.5 101.855469 67.675781 101.984375 67.699219 102.300781 C 67.8125 103.960938 67.929688 105.617188 68.039062 107.277344 C 68.042969 107.316406 67.984375 107.359375 67.894531 107.492188 C 66.0625 105.863281 64.6875 103.925781 63.574219 101.855469 C 64.804688 101.855469 66.003906 101.851562 67.203125 101.855469 Z M 68.328125 100.835938 C 68.996094 100.824219 69.667969 100.820312 70.335938 100.816406 C 70.53125 100.8125 70.652344 100.90625 70.644531 101.117188 C 70.632812 101.324219 70.601562 101.523438 70.335938 101.53125 C 70.003906 101.539062 69.667969 101.53125 69.332031 101.53125 C 69.332031 101.53125 69.332031 101.527344 69.332031 101.523438 C 69.027344 101.523438 68.71875 101.527344 68.410156 101.523438 C 68.210938 101.523438 68.011719 101.507812 68.003906 101.230469 C 68 101 68.085938 100.84375 68.328125 100.835938 Z M 70.886719 102.414062 C 70.917969 102.046875 71.070312 101.929688 71.40625 101.917969 C 73.542969 101.832031 75.675781 101.738281 78.039062 101.636719 C 75.898438 104.535156 73.621094 106.941406 70.570312 108.511719 C 70.429688 108.582031 70.265625 108.738281 70.125 108.578125 C 70.058594 108.5 70.09375 108.3125 70.117188 108.183594 C 70.488281 106.277344 70.730469 104.351562 70.886719 102.414062 Z M 71.054688 101.199219 C 71.074219 100.824219 71.332031 100.824219 71.59375 100.84375 C 72.6875 100.925781 73.777344 101.019531 74.871094 101.101562 C 75.203125 101.128906 75.539062 101.148438 75.871094 101.171875 C 74.429688 101.566406 72.96875 101.515625 71.511719 101.527344 C 71.289062 101.527344 71.042969 101.550781 71.054688 101.199219 Z M 77.746094 101.113281 C 75.804688 100.746094 73.835938 100.578125 71.863281 100.523438 C 71.132812 100.503906 71.097656 100.277344 71.148438 99.640625 C 71.382812 96.597656 71.550781 93.550781 71.738281 90.507812 C 71.757812 90.195312 71.746094 89.882812 71.761719 89.574219 C 71.832031 88.097656 71.835938 88.144531 73.265625 88.015625 C 75.398438 87.824219 77.539062 87.828125 79.675781 87.605469 C 80.710938 87.5 81.792969 87.828125 82.851562 87.96875 C 83.175781 88.011719 83.210938 88.246094 83.195312 88.535156 C 83.171875 89.015625 83.1875 89.496094 83.1875 89.976562 C 83.339844 91.292969 82.929688 92.472656 82.414062 93.65625 C 81.351562 96.089844 80.164062 98.453125 78.707031 100.679688 C 78.460938 101.054688 78.234375 101.203125 77.746094 101.113281 Z M 82.714844 94.046875 C 82.890625 95.015625 82.566406 95.9375 82.417969 96.863281 C 82.25 97.9375 81.875 98.976562 81.667969 100.046875 C 81.550781 100.648438 81.269531 100.917969 80.675781 100.949219 C 80.117188 100.980469 79.558594 101.058594 78.847656 101.128906 C 80.359375 98.792969 81.578125 96.453125 82.714844 94.046875 Z M 82.007812 102.488281 C 82.453125 102.703125 83.195312 102.726562 83.273438 103.144531 C 83.34375 103.503906 82.625 103.746094 82.238281 104.011719 C 81.578125 104.464844 80.882812 104.863281 80.203125 105.285156 C 80.171875 105.238281 80.140625 105.195312 80.109375 105.148438 C 80.449219 104.378906 80.824219 103.625 81.121094 102.835938 C 81.3125 102.335938 81.570312 102.277344 82.007812 102.488281 Z M 82.128906 102.164062 C 81.910156 102.058594 81.511719 102.105469 81.582031 101.667969 C 81.648438 101.269531 81.894531 101.152344 82.28125 101.09375 C 83.71875 100.871094 85.152344 100.597656 86.585938 100.347656 C 86.617188 100.386719 86.652344 100.429688 86.683594 100.46875 C 85.808594 101.214844 84.929688 101.953125 84.0625 102.703125 C 83.847656 102.886719 83.664062 102.816406 83.445312 102.71875 C 83.011719 102.519531 82.558594 102.367188 82.128906 102.164062 Z M 81.894531 100.746094 C 82.71875 97.839844 83.152344 94.996094 83.492188 92.125 C 83.632812 90.949219 84.238281 89.832031 84.601562 88.679688 C 84.730469 88.269531 85.019531 88.347656 85.28125 88.402344 C 87.960938 88.933594 90.589844 89.632812 93.078125 90.800781 C 93.527344 91.011719 93.558594 91.238281 93.332031 91.652344 C 91.773438 94.511719 89.875 97.117188 87.628906 99.472656 C 87.476562 99.632812 87.328125 99.78125 87.082031 99.835938 C 85.414062 100.210938 83.742188 100.566406 81.894531 100.746094 Z M 92.179688 94.335938 C 92.699219 93.5 93.1875 92.644531 93.691406 91.796875 C 93.8125 91.59375 93.871094 91.28125 94.238281 91.46875 C 94.511719 91.609375 94.570312 91.839844 94.496094 92.109375 C 93.941406 94.1875 93.183594 96.183594 92.144531 98.066406 C 92.039062 98.25 91.890625 98.371094 91.703125 98.441406 C 90.628906 98.839844 89.550781 99.234375 88.375 99.402344 C 89.730469 97.761719 91.066406 96.132812 92.179688 94.335938 Z M 94.445312 91.164062 C 94.257812 91.085938 94.109375 90.984375 94.25 90.722656 C 94.464844 90.316406 94.652344 89.894531 94.949219 89.289062 C 95.078125 90.015625 94.839844 90.453125 94.785156 90.917969 C 94.769531 91.066406 94.675781 91.261719 94.445312 91.164062 Z M 93.949219 90.441406 C 93.800781 90.746094 93.601562 90.691406 93.335938 90.558594 C 90.839844 89.332031 88.183594 88.621094 85.472656 88.082031 C 85.230469 88.035156 84.855469 88.0625 84.941406 87.609375 C 85 87.3125 84.976562 86.945312 85.382812 86.886719 C 88.824219 86.386719 92.1875 85.570312 95.457031 84.363281 C 95.800781 86.640625 94.871094 88.539062 93.949219 90.441406 Z M 94.4375 84.324219 C 91.726562 85.257812 88.945312 85.871094 86.136719 86.394531 C 85.238281 86.558594 85.222656 86.515625 85.445312 85.628906 C 86.480469 81.507812 87 77.316406 87.136719 73.074219 C 87.15625 72.488281 87.203125 72.261719 87.910156 72.40625 C 89.832031 72.804688 91.726562 73.277344 93.59375 73.875 C 93.996094 74.003906 94.203125 74.21875 94.304688 74.601562 C 94.996094 77.257812 95.382812 79.960938 95.535156 82.878906 C 95.800781 83.675781 95.261719 84.035156 94.4375 84.324219 Z M 97.859375 75.90625 C 99.539062 76.523438 100.648438 78.015625 100.617188 79.496094 C 100.601562 80.269531 100.167969 80.804688 99.679688 81.320312 C 98.941406 82.101562 98.054688 82.664062 96.996094 83.179688 C 97.480469 80.714844 97.9375 78.351562 97.859375 75.90625 Z M 96.636719 65.113281 C 98.808594 68.875 100.105469 72.84375 100.398438 77.148438 C 99.660156 76.519531 98.945312 75.929688 98.144531 75.46875 C 97.824219 75.28125 97.851562 75.019531 97.855469 74.742188 C 97.90625 71.789062 97.351562 68.925781 96.496094 66.117188 C 96.367188 65.695312 96.375 65.695312 96.636719 65.113281 Z M 97.394531 72.914062 C 97.425781 73.421875 97.460938 73.929688 97.488281 74.328125 C 97.621094 75 97.414062 75.101562 96.945312 74.820312 C 96.921875 74.808594 96.898438 74.789062 96.871094 74.78125 C 95.019531 74.285156 93.882812 73.179688 93.570312 71.210938 C 93.449219 70.453125 93.046875 69.726562 92.707031 69.019531 C 92.476562 68.539062 92.5 68.292969 93.035156 68.070312 C 93.972656 67.679688 94.835938 67.144531 95.589844 66.457031 C 95.960938 66.117188 96.085938 66.148438 96.238281 66.648438 C 96.847656 68.699219 97.257812 70.78125 97.394531 72.914062 Z M 96.230469 63.734375 C 95.847656 63.183594 95.46875 62.628906 95.089844 62.078125 C 95.789062 62.410156 96.164062 62.96875 96.230469 63.734375 Z M 93.246094 59.050781 C 93.734375 59.667969 94.222656 60.28125 94.710938 60.894531 C 93.757812 60.652344 93.660156 59.726562 93.003906 59.242188 C 93.085938 59.179688 93.164062 59.117188 93.246094 59.050781 Z M 94.191406 61.722656 C 94.742188 62.828125 95.273438 63.941406 95.722656 65.09375 C 95.882812 65.507812 95.835938 65.769531 95.527344 66.058594 C 94.691406 66.839844 93.707031 67.375 92.691406 67.871094 C 92.191406 68.113281 92.121094 67.699219 91.984375 67.421875 C 90.828125 65.058594 89.449219 62.832031 87.832031 60.757812 C 87.230469 59.980469 86.585938 59.238281 85.832031 58.320312 C 88.417969 58.871094 90.734375 59.515625 92.9375 60.535156 C 93.5 60.796875 93.910156 61.160156 94.191406 61.722656 Z M 92.195312 59.226562 C 92.402344 59.441406 92.597656 59.675781 92.796875 59.898438 C 90.695312 59.175781 88.617188 58.496094 86.472656 58.113281 C 85.1875 57.882812 84.515625 57.171875 84.050781 56.066406 C 83.898438 55.703125 83.921875 55.503906 84.269531 55.316406 C 84.492188 55.199219 84.765625 55.070312 84.875 54.871094 C 85.519531 53.695312 86.179688 54.320312 86.882812 54.789062 C 88.8125 56.082031 90.585938 57.554688 92.195312 59.226562 Z M 85.695312 52.816406 C 87.152344 53.367188 90.574219 56.324219 91.445312 57.8125 C 91.164062 57.804688 91.050781 57.605469 90.90625 57.476562 C 89.453125 56.179688 87.921875 54.988281 86.253906 53.988281 C 85.769531 53.699219 85.578125 53.355469 85.695312 52.816406 Z M 85.296875 53.246094 C 83.507812 52.164062 81.308594 51.855469 79.789062 50.273438 C 81.828125 50.894531 84.0625 51.144531 85.296875 53.246094 Z M 79.34375 50.636719 C 77.949219 50.320312 76.59375 49.921875 75.222656 49.582031 C 76.652344 49.726562 78.167969 49.507812 79.34375 50.636719 Z M 80.339844 51.53125 C 81.445312 52.03125 82.007812 53.257812 82.660156 54.277344 C 82.890625 54.636719 83.4375 55.179688 83.171875 55.398438 C 82.726562 55.769531 82.371094 55.097656 82.027344 54.828125 C 79.40625 52.78125 76.566406 51.132812 73.410156 50.058594 C 73.203125 49.988281 73 49.898438 72.796875 49.816406 C 75.421875 49.984375 77.976562 50.457031 80.339844 51.53125 Z M 82.59375 55.757812 C 80.664062 56.355469 78.945312 57.101562 77 56.734375 C 76.679688 56.675781 76.492188 56.519531 76.355469 56.269531 C 75.066406 53.96875 73.550781 51.847656 71.484375 50.167969 C 71.433594 50.128906 71.445312 50.015625 71.402344 49.828125 C 75.597656 50.902344 79.191406 52.9375 82.59375 55.757812 Z M 70.109375 49.761719 C 70.546875 49.832031 71.058594 50.117188 71.113281 50.742188 C 71.214844 51.917969 71.339844 53.09375 71.449219 54.265625 C 71.480469 54.574219 71.476562 54.886719 71.511719 55.191406 C 71.65625 56.523438 71.660156 56.523438 70.371094 56.503906 C 68.976562 56.480469 68.976562 56.480469 69.15625 55.089844 C 69.351562 53.585938 69.523438 52.078125 69.769531 50.585938 C 69.816406 50.304688 69.734375 49.703125 70.109375 49.761719 Z M 68.722656 55.960938 C 68.691406 56.484375 68.375 56.523438 67.972656 56.515625 C 65.886719 56.464844 63.808594 56.65625 61.550781 56.804688 C 63.703125 53.773438 66.152344 51.273438 69.585938 49.59375 C 69.175781 51.832031 68.855469 53.886719 68.722656 55.960938 Z M 68.074219 49.890625 C 67.203125 50.550781 66.382812 51.132812 65.605469 51.769531 C 64.070312 53.03125 62.742188 54.503906 61.605469 56.132812 C 61.203125 56.707031 60.792969 56.777344 60.183594 56.621094 C 58.5625 56.210938 58.597656 56.242188 59.21875 54.683594 C 59.828125 53.167969 60.800781 52.144531 62.382812 51.574219 C 64.121094 50.949219 65.855469 50.335938 67.644531 49.871094 C 67.746094 49.84375 67.863281 49.878906 68.074219 49.890625 Z M 63.171875 50.007812 C 64.140625 49.914062 65.09375 49.625 66.085938 49.746094 C 64.605469 50.355469 63.054688 50.71875 61.683594 51.539062 C 61.585938 51.597656 61.375 51.585938 61.296875 51.515625 C 61.171875 51.398438 61.304688 51.261719 61.394531 51.160156 C 61.875 50.609375 62.355469 50.089844 63.171875 50.007812 Z M 61.558594 49.929688 C 59.386719 50.546875 57.265625 51.316406 55.1875 52.191406 C 57.082031 50.757812 59.277344 50.21875 61.558594 49.929688 Z M 55.015625 52.789062 C 56.984375 51.828125 59.007812 51.027344 61.1875 50.574219 C 60.679688 51.429688 60.210938 52.257812 59.261719 52.726562 C 58.179688 53.257812 57.183594 53.953125 56.21875 54.679688 C 55.671875 55.089844 55.066406 54.839844 54.558594 54.027344 C 54.167969 53.402344 54.425781 53.074219 55.015625 52.789062 Z M 53.917969 53.4375 C 54.105469 54.078125 54.464844 54.605469 55.011719 54.984375 C 55.277344 55.171875 55.339844 55.300781 55.050781 55.546875 C 54.050781 56.410156 53.078125 57.308594 52.082031 58.175781 C 51.683594 58.519531 51.136719 58.503906 50.664062 58.660156 C 49.820312 58.941406 48.96875 59.179688 47.917969 59.5 C 49.550781 56.929688 51.164062 54.652344 53.917969 53.4375 Z M 49.277344 56.726562 C 48.128906 58.097656 47.738281 60.203125 45.378906 60.574219 C 46.59375 59.0625 47.839844 57.800781 49.277344 56.726562 Z M 44.378906 61.9375 C 45.074219 61.28125 45.898438 60.800781 47 60.390625 C 46.039062 62.296875 45.335938 64.070312 44.839844 65.921875 C 44.699219 66.453125 44.515625 66.320312 44.222656 66.070312 C 42.824219 64.886719 42.859375 63.371094 44.378906 61.9375 Z M 42.746094 64.398438 C 43.125 65.40625 43.683594 66.117188 44.414062 66.695312 C 44.660156 66.890625 44.511719 67.183594 44.472656 67.414062 C 44.078125 69.679688 43.695312 71.945312 42.90625 74.117188 C 42.792969 74.425781 42.6875 74.707031 42.335938 74.886719 C 41.132812 75.496094 40 76.214844 39 77.488281 C 39.277344 72.742188 40.445312 68.511719 42.746094 64.398438 Z M 39.042969 78.667969 C 39.382812 76.792969 41.050781 76.128906 42.566406 75.175781 C 42.335938 76.523438 42.097656 77.695312 41.953125 78.878906 C 41.808594 80.046875 41.757812 81.222656 41.65625 82.566406 C 40.125 81.578125 38.683594 80.636719 39.042969 78.667969 Z M 43.027344 93.03125 C 42.75 93.15625 42.71875 92.84375 42.640625 92.695312 C 40.664062 89.09375 39.441406 85.261719 39.085938 80.917969 C 39.832031 81.785156 40.515625 82.359375 41.296875 82.8125 C 41.613281 82.996094 41.6875 83.265625 41.695312 83.589844 C 41.746094 86.609375 42.234375 89.558594 43.136719 92.4375 C 43.207031 92.660156 43.285156 92.914062 43.027344 93.03125 Z M 43.390625 91.773438 C 42.785156 89.757812 42.335938 87.710938 42.246094 85.605469 C 42.214844 84.875 41.9375 84.160156 42.117188 83.367188 C 43.058594 83.761719 43.929688 84.136719 44.808594 84.492188 C 45.105469 84.609375 45.246094 84.820312 45.328125 85.105469 C 45.761719 86.59375 46.292969 88.046875 46.929688 89.457031 C 47.128906 89.898438 47.054688 90.105469 46.625 90.289062 C 45.664062 90.703125 44.765625 91.230469 43.984375 91.933594 C 43.691406 92.203125 43.546875 92.296875 43.390625 91.773438 Z M 45.578125 96.933594 C 44.882812 95.746094 44.371094 94.476562 43.859375 93.207031 C 43.71875 92.855469 43.789062 92.617188 44.035156 92.375 C 44.871094 91.550781 45.886719 91.007812 46.933594 90.515625 C 47.453125 90.269531 47.496094 90.730469 47.628906 90.996094 C 48.871094 93.507812 50.347656 95.867188 52.097656 98.050781 C 52.589844 98.660156 53.097656 99.257812 53.765625 100.0625 C 50.980469 99.472656 48.503906 98.78125 46.179688 97.609375 C 45.875 97.453125 45.730469 97.195312 45.578125 96.933594 Z M 46.898438 98.472656 C 48.574219 99.03125 50.234375 99.621094 51.953125 100.011719 C 52.335938 100.097656 52.714844 100.242188 53.101562 100.273438 C 54.441406 100.382812 55.117188 101.222656 55.570312 102.375 C 55.6875 102.664062 55.714844 102.925781 55.421875 102.996094 C 54.667969 103.171875 54.429688 104.566406 53.613281 104.105469 C 51.046875 102.667969 48.832031 100.75 46.898438 98.472656 Z M 53.890625 105.652344 C 51.558594 104.273438 49.648438 102.507812 47.925781 100.417969 C 48.226562 100.359375 48.320312 100.5625 48.445312 100.675781 C 49.957031 102.070312 51.578125 103.328125 53.339844 104.394531 C 53.816406 104.679688 53.992188 105.035156 53.890625 105.652344 Z M 54.261719 104.890625 C 56.082031 106.242188 58.269531 106.507812 59.867188 108.011719 C 58.167969 108.195312 54.617188 106.320312 54.261719 104.890625 Z M 60.011719 107.625 C 61.507812 108.015625 62.820312 108.359375 64.128906 108.703125 C 62.746094 108.640625 61.300781 108.839844 60.011719 107.625 Z M 60.519531 107.375 C 58.300781 106.789062 57.511719 104.894531 56.421875 103.246094 C 56.359375 103.148438 56.3125 103.039062 56.398438 102.9375 C 56.507812 102.8125 56.648438 102.828125 56.78125 102.90625 C 56.851562 102.949219 56.921875 103.003906 56.984375 103.058594 C 59.859375 105.476562 63.070312 107.304688 66.617188 108.585938 C 64.523438 108.46875 62.53125 107.910156 60.519531 107.375 Z M 65.734375 107.792969 C 62.742188 106.703125 60.046875 105.085938 57.566406 103.09375 C 57.070312 102.699219 57.152344 102.523438 57.695312 102.375 C 59.261719 101.945312 60.796875 101.34375 62.480469 101.632812 C 62.734375 101.675781 62.980469 101.664062 63.125 101.929688 C 64.433594 104.328125 66.074219 106.460938 68.121094 108.277344 C 68.152344 108.304688 68.140625 108.378906 68.15625 108.484375 C 67.289062 108.421875 66.515625 108.078125 65.734375 107.792969 Z M 69.472656 108.597656 C 69.085938 108.554688 68.613281 108.316406 68.539062 107.871094 C 68.222656 106.035156 68.152344 104.171875 68.011719 102.316406 C 67.988281 101.972656 68.1875 101.886719 68.488281 101.898438 C 68.769531 101.914062 69.050781 101.902344 69.332031 101.902344 C 70.5625 101.972656 70.5625 101.972656 70.449219 103.257812 C 70.308594 104.828125 70.121094 106.394531 69.789062 107.9375 C 69.738281 108.179688 69.863281 108.644531 69.472656 108.597656 Z M 70.09375 110.15625 C 69.941406 110.160156 69.65625 110.289062 69.683594 109.933594 C 69.703125 109.644531 69.875 109.554688 70.144531 109.605469 C 70.441406 109.660156 70.730469 109.742188 71.054688 109.996094 C 70.695312 110.222656 70.386719 110.152344 70.09375 110.15625 Z M 78.257812 101.929688 C 78.507812 101.582031 78.777344 101.453125 79.164062 101.714844 C 79.230469 101.761719 79.324219 101.769531 79.40625 101.789062 C 81.035156 102.175781 81 102.160156 80.378906 103.679688 C 79.789062 105.121094 78.925781 106.183594 77.390625 106.742188 C 75.527344 107.417969 73.699219 108.175781 71.710938 108.414062 C 74.339844 106.664062 76.445312 104.445312 78.257812 101.929688 Z M 73.039062 108.773438 C 74.847656 108.15625 76.644531 107.515625 78.410156 106.78125 C 77.167969 109.015625 74.925781 108.386719 73.039062 108.773438 Z M 78.269531 108.40625 C 80.296875 107.785156 82.296875 107.074219 84.261719 106.277344 C 82.484375 107.617188 80.421875 108.140625 78.269531 108.40625 Z M 84.648438 105.566406 C 82.605469 106.566406 80.503906 107.398438 78.210938 107.953125 C 78.960938 106.6875 79.878906 105.804688 81.101562 105.191406 C 81.925781 104.78125 82.652344 104.183594 83.417969 103.664062 C 83.945312 103.308594 84.597656 103.597656 85.054688 104.378906 C 85.386719 104.941406 85.238281 105.277344 84.648438 105.566406 Z M 87.53125 103.871094 C 87.273438 104.046875 87 104.195312 86.75 104.378906 C 86.125 104.851562 85.617188 105.070312 85.21875 104.085938 C 85.0625 103.703125 84.609375 103.445312 84.3125 103.152344 C 86.265625 100.980469 88.492188 99.320312 91.449219 99.058594 C 91.105469 100.167969 88.824219 103 87.53125 103.871094 Z M 90.277344 101.664062 C 91.460938 100.300781 91.875 98.179688 94.039062 97.828125 C 93.761719 98.5625 91.597656 100.84375 90.277344 101.664062 Z M 95.980469 95.445312 C 95.242188 96.710938 94.058594 97.34375 92.769531 97.875 C 93.578125 96.058594 94.285156 94.253906 94.785156 92.371094 C 94.878906 92.023438 94.996094 92.050781 95.242188 92.207031 C 96.390625 92.941406 96.664062 94.277344 95.980469 95.445312 Z M 95.347656 91.835938 C 95.089844 91.632812 95.054688 91.4375 95.105469 91.117188 C 95.476562 88.761719 95.949219 86.429688 96.71875 84.167969 C 96.804688 83.910156 96.894531 83.671875 97.195312 83.53125 C 98.441406 82.933594 99.566406 82.160156 100.628906 80.890625 C 100.296875 85.671875 99.144531 89.929688 96.816406 94.054688 C 96.523438 93.023438 96.011719 92.367188 95.347656 91.835938 Z M 95.347656 91.835938 " fill-opacity="1" fill-rule="nonzero"/></g><g fill="#050a30" fill-opacity="0.4"><g transform="translate(128.615087, 82.910401)"><g><path d="M 0.175781 0 L 2.511719 0 L 4.707031 -3.125 L 6.902344 0 L 9.238281 0 L 5.796875 -4.609375 L 9.140625 -8.835938 L 6.910156 -8.835938 L 4.707031 -5.9375 L 2.507812 -8.835938 L 0.273438 -8.835938 L 3.621094 -4.609375 Z M 0.175781 0 "/></g></g></g><g fill="#050a30" fill-opacity="0.4"><g transform="translate(140.50798, 82.910401)"><g><path d="M 7.054688 0 L 8.933594 0 L 5.679688 -8.835938 L 3.4375 -8.835938 L 0.183594 0 L 2.058594 0 L 2.703125 -1.820312 L 6.414062 -1.820312 Z M 3.242188 -3.355469 L 4.5625 -7.105469 L 5.875 -3.355469 Z M 3.242188 -3.355469 "/></g></g></g><g fill="#050a30" fill-opacity="0.4"><g transform="translate(152.101355, 82.910401)"><g><path d="M 5.183594 -4.609375 L 8.609375 -8.835938 L 6.371094 -8.835938 L 3.59375 -5.363281 L 2.976562 -5.363281 L 2.976562 -8.835938 L 1.144531 -8.835938 L 1.144531 0 L 2.976562 0 L 2.976562 -3.753906 L 3.605469 -3.753906 L 6.371094 0 L 8.710938 0 Z M 5.183594 -4.609375 "/></g></g></g><g fill="#050a30" fill-opacity="0.4"><g transform="translate(163.462443, 82.910401)"><g><path d="M 7.054688 0 L 8.933594 0 L 5.679688 -8.835938 L 3.4375 -8.835938 L 0.183594 0 L 2.058594 0 L 2.703125 -1.820312 L 6.414062 -1.820312 Z M 3.242188 -3.355469 L 4.5625 -7.105469 L 5.875 -3.355469 Z M 3.242188 -3.355469 "/></g></g></g><g fill="#050a30" fill-opacity="0.4"><g transform="translate(175.055818, 82.910401)"><g/></g></g><g fill="#050a30" fill-opacity="0.4"><g transform="translate(180.787057, 82.910401)"><g><path d="M 4.085938 0.121094 C 6.011719 0.121094 7.378906 -0.835938 7.378906 -2.519531 C 7.378906 -4.308594 5.808594 -4.816406 4.46875 -5.222656 C 3.464844 -5.519531 2.597656 -5.730469 2.597656 -6.46875 C 2.597656 -7.148438 3.226562 -7.457031 3.96875 -7.457031 C 4.800781 -7.457031 5.390625 -7.074219 5.667969 -6.222656 L 7.332031 -6.632812 C 6.976562 -8.328125 5.410156 -8.957031 3.859375 -8.957031 C 2.085938 -8.957031 0.738281 -8.027344 0.738281 -6.402344 C 0.738281 -4.75 2.128906 -4.28125 3.421875 -3.875 C 4.5 -3.546875 5.476562 -3.289062 5.484375 -2.421875 C 5.492188 -1.707031 4.898438 -1.375 4.113281 -1.375 C 3.191406 -1.375 2.507812 -1.847656 2.25 -2.859375 L 0.433594 -2.445312 C 0.703125 -0.789062 2.183594 0.121094 4.085938 0.121094 Z M 4.085938 0.121094 "/></g></g></g><g fill="#050a30" fill-opacity="0.4"><g transform="translate(191.194558, 82.910401)"><g><path d="M 6.265625 -7.21875 L 6.265625 -8.835938 L 1.144531 -8.835938 L 1.144531 0 L 6.265625 0 L 6.265625 -1.621094 L 2.988281 -1.621094 L 2.988281 -3.621094 L 5.894531 -3.621094 L 5.894531 -5.214844 L 2.988281 -5.214844 L 2.988281 -7.21875 Z M 6.265625 -7.21875 "/></g></g></g><g fill="#050a30" fill-opacity="0.4"><g transform="translate(200.685147, 82.910401)"><g><path d="M 5.808594 0 L 7.980469 0 L 5.625 -3.429688 C 5.839844 -3.492188 6.023438 -3.5625 6.1875 -3.65625 C 7.078125 -4.125 7.441406 -5.007812 7.441406 -6.113281 C 7.441406 -7.164062 7.085938 -8.003906 6.222656 -8.460938 C 5.765625 -8.695312 5.171875 -8.835938 4.046875 -8.835938 L 1.144531 -8.835938 L 1.144531 0 L 2.976562 0 L 2.976562 -3.257812 L 3.753906 -3.257812 Z M 2.976562 -7.300781 L 3.789062 -7.300781 C 4.5 -7.300781 4.898438 -7.257812 5.179688 -7.042969 C 5.441406 -6.835938 5.59375 -6.492188 5.59375 -5.996094 C 5.59375 -5.476562 5.441406 -5.128906 5.140625 -4.921875 C 4.871094 -4.730469 4.488281 -4.703125 3.789062 -4.703125 L 2.976562 -4.703125 Z M 2.976562 -7.300781 "/></g></g></g><g fill="#050a30" fill-opacity="0.4"><g transform="translate(211.471639, 82.910401)"><g><path d="M 6.761719 -8.835938 L 4.445312 -2.140625 L 2.128906 -8.835938 L 0.183594 -8.835938 L 3.429688 0 L 5.449219 0 L 8.710938 -8.835938 Z M 6.761719 -8.835938 "/></g></g></g><g fill="#050a30" fill-opacity="0.4"><g transform="translate(222.844955, 82.910401)"><g><path d="M 1.144531 0 L 2.976562 0 L 2.976562 -8.835938 L 1.144531 -8.835938 Z M 1.144531 0 "/></g></g></g><g fill="#050a30" fill-opacity="0.4"><g transform="translate(229.438092, 82.910401)"><g><path d="M 5.054688 0.121094 C 7.023438 0.121094 8.601562 -0.894531 9.230469 -2.566406 L 7.519531 -3.191406 C 7.128906 -2.164062 6.195312 -1.566406 5.054688 -1.566406 C 3.535156 -1.566406 2.367188 -2.636719 2.367188 -4.421875 C 2.367188 -6.207031 3.535156 -7.269531 5.054688 -7.269531 C 6.195312 -7.269531 7.128906 -6.675781 7.519531 -5.648438 L 9.230469 -6.273438 C 8.601562 -7.949219 7.023438 -8.957031 5.054688 -8.957031 C 2.457031 -8.957031 0.539062 -7.195312 0.539062 -4.421875 C 0.539062 -1.644531 2.457031 0.121094 5.054688 0.121094 Z M 5.054688 0.121094 "/></g></g></g><g fill="#050a30" fill-opacity="0.4"><g transform="translate(241.508263, 82.910401)"><g><path d="M 6.265625 -7.21875 L 6.265625 -8.835938 L 1.144531 -8.835938 L 1.144531 0 L 6.265625 0 L 6.265625 -1.621094 L 2.988281 -1.621094 L 2.988281 -3.621094 L 5.894531 -3.621094 L 5.894531 -5.214844 L 2.988281 -5.214844 L 2.988281 -7.21875 Z M 6.265625 -7.21875 "/></g></g></g><g fill="#050a30" fill-opacity="0.4"><g transform="translate(250.998851, 82.910401)"><g><path d="M 4.085938 0.121094 C 6.011719 0.121094 7.378906 -0.835938 7.378906 -2.519531 C 7.378906 -4.308594 5.808594 -4.816406 4.46875 -5.222656 C 3.464844 -5.519531 2.597656 -5.730469 2.597656 -6.46875 C 2.597656 -7.148438 3.226562 -7.457031 3.96875 -7.457031 C 4.800781 -7.457031 5.390625 -7.074219 5.667969 -6.222656 L 7.332031 -6.632812 C 6.976562 -8.328125 5.410156 -8.957031 3.859375 -8.957031 C 2.085938 -8.957031 0.738281 -8.027344 0.738281 -6.402344 C 0.738281 -4.75 2.128906 -4.28125 3.421875 -3.875 C 4.5 -3.546875 5.476562 -3.289062 5.484375 -2.421875 C 5.492188 -1.707031 4.898438 -1.375 4.113281 -1.375 C 3.191406 -1.375 2.507812 -1.847656 2.25 -2.859375 L 0.433594 -2.445312 C 0.703125 -0.789062 2.183594 0.121094 4.085938 0.121094 Z M 4.085938 0.121094 "/></g></g></g><g fill="#050a30" fill-opacity="1"><g transform="translate(128.061707, 82.357029)"><g><path d="M 0.175781 0 L 2.511719 0 L 4.707031 -3.125 L 6.902344 0 L 9.238281 0 L 5.796875 -4.609375 L 9.140625 -8.835938 L 6.910156 -8.835938 L 4.707031 -5.9375 L 2.507812 -8.835938 L 0.273438 -8.835938 L 3.621094 -4.609375 Z M 0.175781 0 "/></g></g></g><g fill="#050a30" fill-opacity="1"><g transform="translate(139.954601, 82.357029)"><g><path d="M 7.054688 0 L 8.933594 0 L 5.679688 -8.835938 L 3.4375 -8.835938 L 0.183594 0 L 2.058594 0 L 2.703125 -1.820312 L 6.414062 -1.820312 Z M 3.242188 -3.355469 L 4.5625 -7.105469 L 5.875 -3.355469 Z M 3.242188 -3.355469 "/></g></g></g><g fill="#050a30" fill-opacity="1"><g transform="translate(151.547975, 82.357029)"><g><path d="M 5.183594 -4.609375 L 8.609375 -8.835938 L 6.371094 -8.835938 L 3.59375 -5.363281 L 2.976562 -5.363281 L 2.976562 -8.835938 L 1.144531 -8.835938 L 1.144531 0 L 2.976562 0 L 2.976562 -3.753906 L 3.605469 -3.753906 L 6.371094 0 L 8.710938 0 Z M 5.183594 -4.609375 "/></g></g></g><g fill="#050a30" fill-opacity="1"><g transform="translate(162.909063, 82.357029)"><g><path d="M 7.054688 0 L 8.933594 0 L 5.679688 -8.835938 L 3.4375 -8.835938 L 0.183594 0 L 2.058594 0 L 2.703125 -1.820312 L 6.414062 -1.820312 Z M 3.242188 -3.355469 L 4.5625 -7.105469 L 5.875 -3.355469 Z M 3.242188 -3.355469 "/></g></g></g><g fill="#050a30" fill-opacity="1"><g transform="translate(174.502439, 82.357029)"><g/></g></g><g fill="#050a30" fill-opacity="1"><g transform="translate(180.233677, 82.357029)"><g><path d="M 4.085938 0.121094 C 6.011719 0.121094 7.378906 -0.835938 7.378906 -2.519531 C 7.378906 -4.308594 5.808594 -4.816406 4.46875 -5.222656 C 3.464844 -5.519531 2.597656 -5.730469 2.597656 -6.46875 C 2.597656 -7.148438 3.226562 -7.457031 3.96875 -7.457031 C 4.800781 -7.457031 5.390625 -7.074219 5.667969 -6.222656 L 7.332031 -6.632812 C 6.976562 -8.328125 5.410156 -8.957031 3.859375 -8.957031 C 2.085938 -8.957031 0.738281 -8.027344 0.738281 -6.402344 C 0.738281 -4.75 2.128906 -4.28125 3.421875 -3.875 C 4.5 -3.546875 5.476562 -3.289062 5.484375 -2.421875 C 5.492188 -1.707031 4.898438 -1.375 4.113281 -1.375 C 3.191406 -1.375 2.507812 -1.847656 2.25 -2.859375 L 0.433594 -2.445312 C 0.703125 -0.789062 2.183594 0.121094 4.085938 0.121094 Z M 4.085938 0.121094 "/></g></g></g><g fill="#050a30" fill-opacity="1"><g transform="translate(190.641179, 82.357029)"><g><path d="M 6.265625 -7.21875 L 6.265625 -8.835938 L 1.144531 -8.835938 L 1.144531 0 L 6.265625 0 L 6.265625 -1.621094 L 2.988281 -1.621094 L 2.988281 -3.621094 L 5.894531 -3.621094 L 5.894531 -5.214844 L 2.988281 -5.214844 L 2.988281 -7.21875 Z M 6.265625 -7.21875 "/></g></g></g><g fill="#050a30" fill-opacity="1"><g transform="translate(200.131767, 82.357029)"><g><path d="M 5.808594 0 L 7.980469 0 L 5.625 -3.429688 C 5.839844 -3.492188 6.023438 -3.5625 6.1875 -3.65625 C 7.078125 -4.125 7.441406 -5.007812 7.441406 -6.113281 C 7.441406 -7.164062 7.085938 -8.003906 6.222656 -8.460938 C 5.765625 -8.695312 5.171875 -8.835938 4.046875 -8.835938 L 1.144531 -8.835938 L 1.144531 0 L 2.976562 0 L 2.976562 -3.257812 L 3.753906 -3.257812 Z M 2.976562 -7.300781 L 3.789062 -7.300781 C 4.5 -7.300781 4.898438 -7.257812 5.179688 -7.042969 C 5.441406 -6.835938 5.59375 -6.492188 5.59375 -5.996094 C 5.59375 -5.476562 5.441406 -5.128906 5.140625 -4.921875 C 4.871094 -4.730469 4.488281 -4.703125 3.789062 -4.703125 L 2.976562 -4.703125 Z M 2.976562 -7.300781 "/></g></g></g><g fill="#050a30" fill-opacity="1"><g transform="translate(210.918259, 82.357029)"><g><path d="M 6.761719 -8.835938 L 4.445312 -2.140625 L 2.128906 -8.835938 L 0.183594 -8.835938 L 3.429688 0 L 5.449219 0 L 8.710938 -8.835938 Z M 6.761719 -8.835938 "/></g></g></g><g fill="#050a30" fill-opacity="1"><g transform="translate(222.291576, 82.357029)"><g><path d="M 1.144531 0 L 2.976562 0 L 2.976562 -8.835938 L 1.144531 -8.835938 Z M 1.144531 0 "/></g></g></g><g fill="#050a30" fill-opacity="1"><g transform="translate(228.884713, 82.357029)"><g><path d="M 5.054688 0.121094 C 7.023438 0.121094 8.601562 -0.894531 9.230469 -2.566406 L 7.519531 -3.191406 C 7.128906 -2.164062 6.195312 -1.566406 5.054688 -1.566406 C 3.535156 -1.566406 2.367188 -2.636719 2.367188 -4.421875 C 2.367188 -6.207031 3.535156 -7.269531 5.054688 -7.269531 C 6.195312 -7.269531 7.128906 -6.675781 7.519531 -5.648438 L 9.230469 -6.273438 C 8.601562 -7.949219 7.023438 -8.957031 5.054688 -8.957031 C 2.457031 -8.957031 0.539062 -7.195312 0.539062 -4.421875 C 0.539062 -1.644531 2.457031 0.121094 5.054688 0.121094 Z M 5.054688 0.121094 "/></g></g></g><g fill="#050a30" fill-opacity="1"><g transform="translate(240.954883, 82.357029)"><g><path d="M 6.265625 -7.21875 L 6.265625 -8.835938 L 1.144531 -8.835938 L 1.144531 0 L 6.265625 0 L 6.265625 -1.621094 L 2.988281 -1.621094 L 2.988281 -3.621094 L 5.894531 -3.621094 L 5.894531 -5.214844 L 2.988281 -5.214844 L 2.988281 -7.21875 Z M 6.265625 -7.21875 "/></g></g></g><g fill="#050a30" fill-opacity="1"><g transform="translate(250.445471, 82.357029)"><g><path d="M 4.085938 0.121094 C 6.011719 0.121094 7.378906 -0.835938 7.378906 -2.519531 C 7.378906 -4.308594 5.808594 -4.816406 4.46875 -5.222656 C 3.464844 -5.519531 2.597656 -5.730469 2.597656 -6.46875 C 2.597656 -7.148438 3.226562 -7.457031 3.96875 -7.457031 C 4.800781 -7.457031 5.390625 -7.074219 5.667969 -6.222656 L 7.332031 -6.632812 C 6.976562 -8.328125 5.410156 -8.957031 3.859375 -8.957031 C 2.085938 -8.957031 0.738281 -8.027344 0.738281 -6.402344 C 0.738281 -4.75 2.128906 -4.28125 3.421875 -3.875 C 4.5 -3.546875 5.476562 -3.289062 5.484375 -2.421875 C 5.492188 -1.707031 4.898438 -1.375 4.113281 -1.375 C 3.191406 -1.375 2.507812 -1.847656 2.25 -2.859375 L 0.433594 -2.445312 C 0.703125 -0.789062 2.183594 0.121094 4.085938 0.121094 Z M 4.085938 0.121094 "/></g></g></g></svg>