<svg xmlns="http://www.w3.org/2000/svg" xmlns:xlink="http://www.w3.org/1999/xlink" width="358" zoomAndPan="magnify" viewBox="0 0 268.5 124.499996" height="166" preserveAspectRatio="xMidYMid meet" version="1.0"><defs><g/><clipPath id="036f9b46cf"><path d="M 37.832031 47.097656 L 67.953125 47.097656 L 67.953125 77.21875 L 37.832031 77.21875 Z M 37.832031 47.097656 " clip-rule="nonzero"/></clipPath><clipPath id="134f46f4ad"><path d="M 38.855469 48.121094 L 49 48.121094 L 49 52 L 38.855469 52 Z M 38.855469 48.121094 " clip-rule="nonzero"/></clipPath><clipPath id="f03b634f9d"><path d="M 38.855469 50 L 51 50 L 51 54 L 38.855469 54 Z M 38.855469 50 " clip-rule="nonzero"/></clipPath><clipPath id="8e81971779"><path d="M 38.855469 52 L 49 52 L 49 56 L 38.855469 56 Z M 38.855469 52 " clip-rule="nonzero"/></clipPath><clipPath id="f23c24afbb"><path d="M 38.855469 54 L 51 54 L 51 58 L 38.855469 58 Z M 38.855469 54 " clip-rule="nonzero"/></clipPath><clipPath id="e06857b01a"><path d="M 38.855469 72 L 49 72 L 49 76.089844 L 38.855469 76.089844 Z M 38.855469 72 " clip-rule="nonzero"/></clipPath><clipPath id="9605b84094"><path d="M 38.855469 70 L 51 70 L 51 75 L 38.855469 75 Z M 38.855469 70 " clip-rule="nonzero"/></clipPath><clipPath id="7f918da6c0"><path d="M 38.855469 68 L 49 68 L 49 73 L 38.855469 73 Z M 38.855469 68 " clip-rule="nonzero"/></clipPath><clipPath id="71af687b88"><path d="M 38.855469 66 L 51 66 L 51 70 L 38.855469 70 Z M 38.855469 66 " clip-rule="nonzero"/></clipPath><clipPath id="170c8d75d1"><path d="M 57 48.121094 L 66.824219 48.121094 L 66.824219 52 L 57 52 Z M 57 48.121094 " clip-rule="nonzero"/></clipPath><clipPath id="50b2dc5ca2"><path d="M 54 50 L 66.824219 50 L 66.824219 54 L 54 54 Z M 54 50 " clip-rule="nonzero"/></clipPath><clipPath id="b9b0d3620b"><path d="M 57 52 L 66.824219 52 L 66.824219 56 L 57 56 Z M 57 52 " clip-rule="nonzero"/></clipPath><clipPath id="fc630b6550"><path d="M 55 54 L 66.824219 54 L 66.824219 58 L 55 58 Z M 55 54 " clip-rule="nonzero"/></clipPath><clipPath id="061e5e67a2"><path d="M 57 72 L 66.824219 72 L 66.824219 76.089844 L 57 76.089844 Z M 57 72 " clip-rule="nonzero"/></clipPath><clipPath id="8f6e880e39"><path d="M 54 70 L 66.824219 70 L 66.824219 75 L 54 75 Z M 54 70 " clip-rule="nonzero"/></clipPath><clipPath id="178ca6604e"><path d="M 57 68 L 66.824219 68 L 66.824219 73 L 57 73 Z M 57 68 " clip-rule="nonzero"/></clipPath><clipPath id="a5eef3e99f"><path d="M 55 66 L 66.824219 66 L 66.824219 70 L 55 70 Z M 55 66 " clip-rule="nonzero"/></clipPath><clipPath id="f374430e02"><path d="M 38.855469 61 L 48 61 L 48 64 L 38.855469 64 Z M 38.855469 61 " clip-rule="nonzero"/></clipPath><clipPath id="2e008f3db5"><path d="M 58 61 L 66.824219 61 L 66.824219 64 L 58 64 Z M 58 61 " clip-rule="nonzero"/></clipPath></defs><path stroke-linecap="round" transform="matrix(0.000000000000000181, 0.358135, -0.358584, 0.000000000000000181, 81.304599, 37.522635)" fill="none" stroke-linejoin="miter" d="M 1.99826 2.004166 L 135.186208 2.004166 " stroke="#000000" stroke-width="4" stroke-opacity="1" stroke-miterlimit="4"/><g clip-path="url(#036f9b46cf)"><path fill="#000000" d="M 67.953125 62.160156 C 67.953125 63.148438 67.855469 64.128906 67.664062 65.097656 C 67.472656 66.066406 67.1875 67.007812 66.808594 67.921875 C 66.429688 68.835938 65.964844 69.703125 65.414062 70.527344 C 64.867188 71.347656 64.242188 72.109375 63.542969 72.808594 C 62.84375 73.507812 62.082031 74.132812 61.261719 74.683594 C 60.4375 75.230469 59.570312 75.695312 58.65625 76.074219 C 57.742188 76.453125 56.800781 76.738281 55.832031 76.929688 C 54.863281 77.125 53.882812 77.21875 52.894531 77.21875 C 51.902344 77.21875 50.925781 77.125 49.953125 76.929688 C 48.984375 76.738281 48.042969 76.453125 47.128906 76.074219 C 46.214844 75.695312 45.347656 75.230469 44.527344 74.683594 C 43.703125 74.132812 42.941406 73.507812 42.242188 72.808594 C 41.542969 72.109375 40.921875 71.347656 40.371094 70.527344 C 39.820312 69.703125 39.359375 68.835938 38.980469 67.921875 C 38.601562 67.007812 38.316406 66.066406 38.121094 65.097656 C 37.929688 64.128906 37.832031 63.148438 37.832031 62.160156 C 37.832031 61.171875 37.929688 60.191406 38.121094 59.222656 C 38.316406 58.25 38.601562 57.308594 38.980469 56.398438 C 39.359375 55.484375 39.820312 54.613281 40.371094 53.792969 C 40.921875 52.96875 41.542969 52.210938 42.242188 51.511719 C 42.941406 50.8125 43.703125 50.1875 44.527344 49.636719 C 45.347656 49.089844 46.214844 48.625 47.128906 48.246094 C 48.042969 47.867188 48.984375 47.582031 49.953125 47.390625 C 50.925781 47.195312 51.902344 47.097656 52.894531 47.097656 C 53.882812 47.097656 54.863281 47.195312 55.832031 47.390625 C 56.800781 47.582031 57.742188 47.867188 58.65625 48.246094 C 59.570312 48.625 60.4375 49.089844 61.261719 49.636719 C 62.082031 50.1875 62.84375 50.8125 63.542969 51.511719 C 64.242188 52.210938 64.867188 52.96875 65.414062 53.792969 C 65.964844 54.613281 66.429688 55.484375 66.808594 56.398438 C 67.1875 57.308594 67.472656 58.25 67.664062 59.222656 C 67.855469 60.191406 67.953125 61.171875 67.953125 62.160156 Z M 67.953125 62.160156 " fill-opacity="1" fill-rule="nonzero"/></g><g clip-path="url(#134f46f4ad)"><path fill="#ffffff" d="M 39.292969 51.398438 L 40.753906 51.398438 C 40.863281 51.398438 40.972656 51.355469 41.0625 51.289062 L 42.789062 49.652344 L 46.371094 49.652344 C 46.546875 50.042969 46.917969 50.304688 47.375 50.304688 C 47.988281 50.304688 48.46875 49.824219 48.46875 49.214844 C 48.46875 48.601562 47.988281 48.121094 47.375 48.121094 C 46.9375 48.121094 46.546875 48.382812 46.371094 48.777344 L 42.632812 48.777344 C 42.523438 48.777344 42.417969 48.820312 42.328125 48.886719 L 40.582031 50.523438 L 39.292969 50.523438 C 39.050781 50.523438 38.855469 50.722656 38.855469 50.960938 C 38.855469 51.203125 39.050781 51.398438 39.292969 51.398438 Z M 47.375 48.996094 C 47.507812 48.996094 47.59375 49.082031 47.59375 49.214844 C 47.59375 49.34375 47.507812 49.433594 47.375 49.433594 C 47.246094 49.433594 47.15625 49.34375 47.15625 49.214844 C 47.15625 49.082031 47.246094 48.996094 47.375 48.996094 Z M 47.375 48.996094 " fill-opacity="1" fill-rule="nonzero"/></g><g clip-path="url(#f03b634f9d)"><path fill="#ffffff" d="M 39.292969 53.367188 L 40.753906 53.367188 C 40.863281 53.367188 40.972656 53.320312 41.0625 53.257812 L 42.789062 51.617188 L 48.773438 51.617188 C 48.949219 52.011719 49.320312 52.273438 49.78125 52.273438 C 50.390625 52.273438 50.871094 51.792969 50.871094 51.179688 C 50.871094 50.570312 50.390625 50.085938 49.78125 50.085938 C 49.34375 50.085938 48.949219 50.351562 48.773438 50.742188 L 42.632812 50.742188 C 42.523438 50.742188 42.417969 50.785156 42.328125 50.851562 L 40.582031 52.492188 L 39.292969 52.492188 C 39.050781 52.492188 38.855469 52.6875 38.855469 52.929688 C 38.855469 53.167969 39.050781 53.367188 39.292969 53.367188 Z M 49.78125 50.960938 C 49.910156 50.960938 50 51.050781 50 51.179688 C 50 51.3125 49.910156 51.398438 49.78125 51.398438 C 49.648438 51.398438 49.5625 51.3125 49.5625 51.179688 C 49.5625 51.050781 49.648438 50.960938 49.78125 50.960938 Z M 49.78125 50.960938 " fill-opacity="1" fill-rule="nonzero"/></g><g clip-path="url(#8e81971779)"><path fill="#ffffff" d="M 39.292969 55.332031 L 40.753906 55.332031 C 40.863281 55.332031 40.972656 55.289062 41.0625 55.222656 L 42.789062 53.582031 L 45.933594 53.582031 C 46.109375 53.976562 46.480469 54.238281 46.9375 54.238281 C 47.550781 54.238281 48.03125 53.757812 48.03125 53.148438 C 48.03125 52.535156 47.550781 52.054688 46.9375 52.054688 C 46.503906 52.054688 46.109375 52.316406 45.933594 52.710938 L 42.632812 52.710938 C 42.523438 52.710938 42.417969 52.753906 42.328125 52.820312 L 40.582031 54.457031 L 39.292969 54.457031 C 39.050781 54.457031 38.855469 54.65625 38.855469 54.894531 C 38.855469 55.136719 39.050781 55.332031 39.292969 55.332031 Z M 46.9375 52.929688 C 47.070312 52.929688 47.15625 53.015625 47.15625 53.148438 C 47.15625 53.277344 47.070312 53.367188 46.9375 53.367188 C 46.808594 53.367188 46.722656 53.277344 46.722656 53.148438 C 46.722656 53.015625 46.808594 52.929688 46.9375 52.929688 Z M 46.9375 52.929688 " fill-opacity="1" fill-rule="nonzero"/></g><g clip-path="url(#f23c24afbb)"><path fill="#ffffff" d="M 39.292969 57.082031 L 40.972656 57.082031 C 41.082031 57.082031 41.191406 57.035156 41.28125 56.972656 L 43.007812 55.332031 L 44.535156 55.332031 L 46.261719 56.972656 C 46.347656 57.035156 46.457031 57.082031 46.566406 57.082031 L 48.140625 57.082031 C 48.316406 57.472656 48.6875 57.734375 49.144531 57.734375 C 49.757812 57.734375 50.238281 57.253906 50.238281 56.644531 C 50.238281 56.03125 49.757812 55.550781 49.144531 55.550781 C 48.710938 55.550781 48.316406 55.8125 48.140625 56.207031 L 46.742188 56.207031 L 45.015625 54.566406 C 44.929688 54.5 44.820312 54.457031 44.710938 54.457031 L 42.851562 54.457031 C 42.742188 54.457031 42.632812 54.5 42.546875 54.566406 L 40.800781 56.207031 L 39.292969 56.207031 C 39.050781 56.207031 38.855469 56.402344 38.855469 56.644531 C 38.855469 56.882812 39.050781 57.082031 39.292969 57.082031 Z M 49.125 56.425781 C 49.253906 56.425781 49.34375 56.511719 49.34375 56.644531 C 49.34375 56.773438 49.253906 56.863281 49.125 56.863281 C 48.992188 56.863281 48.90625 56.773438 48.90625 56.644531 C 48.90625 56.511719 48.992188 56.425781 49.125 56.425781 Z M 49.125 56.425781 " fill-opacity="1" fill-rule="nonzero"/></g><g clip-path="url(#e06857b01a)"><path fill="#ffffff" d="M 39.292969 73.6875 L 40.582031 73.6875 L 42.308594 75.324219 C 42.394531 75.390625 42.503906 75.433594 42.613281 75.433594 L 46.371094 75.433594 C 46.546875 75.828125 46.917969 76.089844 47.375 76.089844 C 47.988281 76.089844 48.46875 75.609375 48.46875 75 C 48.46875 74.386719 47.988281 73.90625 47.375 73.90625 C 46.9375 73.90625 46.546875 74.167969 46.371094 74.5625 L 42.789062 74.5625 L 41.0625 72.921875 C 40.972656 72.855469 40.863281 72.8125 40.753906 72.8125 L 39.292969 72.8125 C 39.050781 72.8125 38.855469 73.007812 38.855469 73.25 C 38.855469 73.492188 39.050781 73.6875 39.292969 73.6875 Z M 47.375 74.78125 C 47.507812 74.78125 47.59375 74.867188 47.59375 75 C 47.59375 75.128906 47.507812 75.214844 47.375 75.214844 C 47.246094 75.214844 47.15625 75.128906 47.15625 75 C 47.15625 74.867188 47.246094 74.78125 47.375 74.78125 Z M 47.375 74.78125 " fill-opacity="1" fill-rule="nonzero"/></g><g clip-path="url(#9605b84094)"><path fill="#ffffff" d="M 39.292969 71.71875 L 40.582031 71.71875 L 42.308594 73.359375 C 42.394531 73.425781 42.503906 73.46875 42.613281 73.46875 L 48.773438 73.46875 C 48.949219 73.863281 49.320312 74.125 49.78125 74.125 C 50.390625 74.125 50.871094 73.644531 50.871094 73.03125 C 50.871094 72.417969 50.390625 71.9375 49.78125 71.9375 C 49.34375 71.9375 48.949219 72.203125 48.773438 72.59375 L 42.789062 72.59375 L 41.0625 70.957031 C 40.972656 70.890625 40.863281 70.847656 40.753906 70.847656 L 39.292969 70.847656 C 39.050781 70.847656 38.855469 71.042969 38.855469 71.285156 C 38.855469 71.523438 39.050781 71.71875 39.292969 71.71875 Z M 49.78125 72.8125 C 49.910156 72.8125 50 72.902344 50 73.03125 C 50 73.164062 49.910156 73.25 49.78125 73.25 C 49.648438 73.25 49.5625 73.164062 49.5625 73.03125 C 49.5625 72.902344 49.648438 72.8125 49.78125 72.8125 Z M 49.78125 72.8125 " fill-opacity="1" fill-rule="nonzero"/></g><g clip-path="url(#7f918da6c0)"><path fill="#ffffff" d="M 39.292969 69.753906 L 40.582031 69.753906 L 42.308594 71.394531 C 42.394531 71.457031 42.503906 71.5 42.613281 71.5 L 45.933594 71.5 C 46.109375 71.894531 46.480469 72.15625 46.9375 72.15625 C 47.550781 72.15625 48.03125 71.675781 48.03125 71.066406 C 48.03125 70.453125 47.550781 69.972656 46.9375 69.972656 C 46.503906 69.972656 46.109375 70.234375 45.933594 70.628906 L 42.789062 70.628906 L 41.0625 68.988281 C 40.972656 68.921875 40.863281 68.878906 40.753906 68.878906 L 39.292969 68.878906 C 39.050781 68.878906 38.855469 69.078125 38.855469 69.316406 C 38.855469 69.558594 39.050781 69.753906 39.292969 69.753906 Z M 46.9375 70.847656 C 47.070312 70.847656 47.15625 70.933594 47.15625 71.066406 C 47.15625 71.195312 47.070312 71.285156 46.9375 71.285156 C 46.808594 71.285156 46.722656 71.195312 46.722656 71.066406 C 46.722656 70.933594 46.808594 70.847656 46.9375 70.847656 Z M 46.9375 70.847656 " fill-opacity="1" fill-rule="nonzero"/></g><g clip-path="url(#71af687b88)"><path fill="#ffffff" d="M 39.292969 68.003906 L 40.800781 68.003906 L 42.523438 69.644531 C 42.613281 69.710938 42.722656 69.753906 42.832031 69.753906 L 44.6875 69.753906 C 44.796875 69.753906 44.90625 69.710938 44.996094 69.644531 L 46.722656 68.003906 L 48.121094 68.003906 C 48.292969 68.398438 48.664062 68.660156 49.125 68.660156 C 49.734375 68.660156 50.21875 68.179688 50.21875 67.570312 C 50.21875 66.957031 49.734375 66.476562 49.125 66.476562 C 48.6875 66.476562 48.292969 66.738281 48.121094 67.132812 L 46.546875 67.132812 C 46.4375 67.132812 46.328125 67.175781 46.238281 67.242188 L 44.535156 68.878906 L 43.007812 68.878906 L 41.28125 67.242188 C 41.191406 67.175781 41.082031 67.132812 40.972656 67.132812 L 39.292969 67.132812 C 39.050781 67.132812 38.855469 67.328125 38.855469 67.570312 C 38.855469 67.808594 39.050781 68.003906 39.292969 68.003906 Z M 49.125 67.351562 C 49.253906 67.351562 49.34375 67.4375 49.34375 67.570312 C 49.34375 67.699219 49.253906 67.789062 49.125 67.789062 C 48.992188 67.789062 48.90625 67.699219 48.90625 67.570312 C 48.90625 67.4375 48.992188 67.351562 49.125 67.351562 Z M 49.125 67.351562 " fill-opacity="1" fill-rule="nonzero"/></g><g clip-path="url(#170c8d75d1)"><path fill="#ffffff" d="M 66.386719 50.523438 L 65.097656 50.523438 L 63.371094 48.886719 C 63.285156 48.820312 63.175781 48.777344 63.066406 48.777344 L 59.308594 48.777344 C 59.132812 48.382812 58.738281 48.121094 58.300781 48.121094 C 57.691406 48.121094 57.210938 48.601562 57.210938 49.214844 C 57.210938 49.824219 57.691406 50.304688 58.300781 50.304688 C 58.738281 50.304688 59.132812 50.042969 59.308594 49.652344 L 62.890625 49.652344 L 64.617188 51.289062 C 64.703125 51.355469 64.8125 51.398438 64.921875 51.398438 L 66.386719 51.398438 C 66.628906 51.398438 66.824219 51.203125 66.824219 50.960938 C 66.824219 50.722656 66.628906 50.523438 66.386719 50.523438 Z M 58.300781 49.433594 C 58.171875 49.433594 58.082031 49.34375 58.082031 49.214844 C 58.082031 49.082031 58.171875 48.996094 58.300781 48.996094 C 58.433594 48.996094 58.519531 49.082031 58.519531 49.214844 C 58.519531 49.34375 58.433594 49.433594 58.300781 49.433594 Z M 58.300781 49.433594 " fill-opacity="1" fill-rule="nonzero"/></g><g clip-path="url(#50b2dc5ca2)"><path fill="#ffffff" d="M 66.386719 52.492188 L 65.097656 52.492188 L 63.371094 50.851562 C 63.285156 50.785156 63.175781 50.742188 63.066406 50.742188 L 56.902344 50.742188 C 56.730469 50.351562 56.335938 50.085938 55.898438 50.085938 C 55.285156 50.085938 54.804688 50.570312 54.804688 51.179688 C 54.804688 51.792969 55.285156 52.273438 55.898438 52.273438 C 56.335938 52.273438 56.730469 52.011719 56.902344 51.617188 L 62.890625 51.617188 L 64.617188 53.257812 C 64.703125 53.320312 64.8125 53.367188 64.921875 53.367188 L 66.386719 53.367188 C 66.628906 53.367188 66.824219 53.167969 66.824219 52.929688 C 66.824219 52.6875 66.628906 52.492188 66.386719 52.492188 Z M 55.898438 51.398438 C 55.765625 51.398438 55.679688 51.3125 55.679688 51.179688 C 55.679688 51.050781 55.765625 50.960938 55.898438 50.960938 C 56.03125 50.960938 56.117188 51.050781 56.117188 51.179688 C 56.117188 51.3125 56.03125 51.398438 55.898438 51.398438 Z M 55.898438 51.398438 " fill-opacity="1" fill-rule="nonzero"/></g><g clip-path="url(#b9b0d3620b)"><path fill="#ffffff" d="M 66.386719 54.457031 L 65.097656 54.457031 L 63.371094 52.820312 C 63.285156 52.753906 63.175781 52.710938 63.066406 52.710938 L 59.742188 52.710938 C 59.570312 52.316406 59.199219 52.054688 58.738281 52.054688 C 58.128906 52.054688 57.644531 52.535156 57.644531 53.148438 C 57.644531 53.757812 58.128906 54.238281 58.738281 54.238281 C 59.175781 54.238281 59.570312 53.976562 59.742188 53.582031 L 62.890625 53.582031 L 64.617188 55.222656 C 64.703125 55.289062 64.8125 55.332031 64.921875 55.332031 L 66.386719 55.332031 C 66.628906 55.332031 66.824219 55.136719 66.824219 54.894531 C 66.824219 54.65625 66.628906 54.457031 66.386719 54.457031 Z M 58.738281 53.367188 C 58.609375 53.367188 58.519531 53.277344 58.519531 53.148438 C 58.519531 53.015625 58.609375 52.929688 58.738281 52.929688 C 58.871094 52.929688 58.957031 53.015625 58.957031 53.148438 C 58.957031 53.277344 58.871094 53.367188 58.738281 53.367188 Z M 58.738281 53.367188 " fill-opacity="1" fill-rule="nonzero"/></g><g clip-path="url(#fc630b6550)"><path fill="#ffffff" d="M 66.386719 56.207031 L 64.878906 56.207031 L 63.152344 54.566406 C 63.066406 54.5 62.957031 54.457031 62.847656 54.457031 L 60.988281 54.457031 C 60.878906 54.457031 60.769531 54.5 60.683594 54.566406 L 58.9375 56.207031 L 57.539062 56.207031 C 57.363281 55.8125 56.992188 55.550781 56.53125 55.550781 C 55.921875 55.550781 55.4375 56.03125 55.4375 56.644531 C 55.4375 57.253906 55.921875 57.734375 56.53125 57.734375 C 56.96875 57.734375 57.363281 57.472656 57.539062 57.082031 L 59.109375 57.082031 C 59.21875 57.082031 59.328125 57.035156 59.417969 56.972656 L 61.144531 55.332031 L 62.648438 55.332031 L 64.375 56.972656 C 64.464844 57.035156 64.574219 57.082031 64.683594 57.082031 L 66.363281 57.082031 C 66.605469 57.082031 66.800781 56.882812 66.800781 56.644531 C 66.800781 56.402344 66.628906 56.207031 66.386719 56.207031 Z M 56.554688 56.863281 C 56.421875 56.863281 56.335938 56.773438 56.335938 56.644531 C 56.335938 56.511719 56.421875 56.425781 56.554688 56.425781 C 56.683594 56.425781 56.773438 56.511719 56.773438 56.644531 C 56.773438 56.773438 56.683594 56.863281 56.554688 56.863281 Z M 56.554688 56.863281 " fill-opacity="1" fill-rule="nonzero"/></g><g clip-path="url(#061e5e67a2)"><path fill="#ffffff" d="M 66.386719 72.8125 L 64.921875 72.8125 C 64.8125 72.8125 64.703125 72.855469 64.617188 72.921875 L 62.890625 74.5625 L 59.308594 74.5625 C 59.132812 74.167969 58.761719 73.90625 58.300781 73.90625 C 57.691406 73.90625 57.210938 74.386719 57.210938 75 C 57.210938 75.609375 57.691406 76.089844 58.300781 76.089844 C 58.738281 76.089844 59.132812 75.828125 59.308594 75.433594 L 63.066406 75.433594 C 63.175781 75.433594 63.285156 75.390625 63.371094 75.324219 L 65.097656 73.6875 L 66.386719 73.6875 C 66.628906 73.6875 66.824219 73.492188 66.824219 73.25 C 66.824219 73.007812 66.628906 72.8125 66.386719 72.8125 Z M 58.300781 75.214844 C 58.171875 75.214844 58.082031 75.128906 58.082031 75 C 58.082031 74.867188 58.171875 74.78125 58.300781 74.78125 C 58.433594 74.78125 58.519531 74.867188 58.519531 75 C 58.519531 75.128906 58.433594 75.214844 58.300781 75.214844 Z M 58.300781 75.214844 " fill-opacity="1" fill-rule="nonzero"/></g><g clip-path="url(#8f6e880e39)"><path fill="#ffffff" d="M 66.386719 70.847656 L 64.921875 70.847656 C 64.8125 70.847656 64.703125 70.890625 64.617188 70.957031 L 62.890625 72.59375 L 56.902344 72.59375 C 56.730469 72.203125 56.355469 71.9375 55.898438 71.9375 C 55.285156 71.9375 54.804688 72.417969 54.804688 73.03125 C 54.804688 73.644531 55.285156 74.125 55.898438 74.125 C 56.335938 74.125 56.730469 73.863281 56.902344 73.46875 L 63.066406 73.46875 C 63.175781 73.46875 63.285156 73.425781 63.371094 73.359375 L 65.097656 71.71875 L 66.386719 71.71875 C 66.628906 71.71875 66.824219 71.523438 66.824219 71.285156 C 66.824219 71.042969 66.628906 70.847656 66.386719 70.847656 Z M 55.898438 73.25 C 55.765625 73.25 55.679688 73.164062 55.679688 73.03125 C 55.679688 72.902344 55.765625 72.8125 55.898438 72.8125 C 56.03125 72.8125 56.117188 72.902344 56.117188 73.03125 C 56.117188 73.164062 56.03125 73.25 55.898438 73.25 Z M 55.898438 73.25 " fill-opacity="1" fill-rule="nonzero"/></g><g clip-path="url(#178ca6604e)"><path fill="#ffffff" d="M 66.386719 68.878906 L 64.921875 68.878906 C 64.8125 68.878906 64.703125 68.921875 64.617188 68.988281 L 62.890625 70.628906 L 59.742188 70.628906 C 59.570312 70.234375 59.199219 69.972656 58.738281 69.972656 C 58.128906 69.972656 57.644531 70.453125 57.644531 71.066406 C 57.644531 71.675781 58.128906 72.15625 58.738281 72.15625 C 59.175781 72.15625 59.570312 71.894531 59.742188 71.5 L 63.066406 71.5 C 63.175781 71.5 63.285156 71.457031 63.371094 71.394531 L 65.097656 69.753906 L 66.386719 69.753906 C 66.628906 69.753906 66.824219 69.558594 66.824219 69.316406 C 66.824219 69.078125 66.628906 68.878906 66.386719 68.878906 Z M 58.738281 71.285156 C 58.609375 71.285156 58.519531 71.195312 58.519531 71.066406 C 58.519531 70.933594 58.609375 70.847656 58.738281 70.847656 C 58.871094 70.847656 58.957031 70.933594 58.957031 71.066406 C 58.957031 71.195312 58.871094 71.285156 58.738281 71.285156 Z M 58.738281 71.285156 " fill-opacity="1" fill-rule="nonzero"/></g><g clip-path="url(#a5eef3e99f)"><path fill="#ffffff" d="M 66.386719 67.132812 L 64.703125 67.132812 C 64.59375 67.132812 64.484375 67.175781 64.398438 67.242188 L 62.671875 68.878906 L 61.144531 68.878906 L 59.417969 67.242188 C 59.328125 67.175781 59.21875 67.132812 59.109375 67.132812 L 57.539062 67.132812 C 57.363281 66.738281 56.992188 66.476562 56.53125 66.476562 C 55.921875 66.476562 55.4375 66.957031 55.4375 67.570312 C 55.4375 68.179688 55.921875 68.660156 56.53125 68.660156 C 56.96875 68.660156 57.363281 68.398438 57.539062 68.003906 L 58.9375 68.003906 L 60.660156 69.644531 C 60.75 69.710938 60.859375 69.753906 60.96875 69.753906 L 62.824219 69.753906 C 62.933594 69.753906 63.042969 69.710938 63.132812 69.644531 L 64.855469 68.003906 L 66.363281 68.003906 C 66.605469 68.003906 66.800781 67.808594 66.800781 67.570312 C 66.800781 67.328125 66.628906 67.132812 66.386719 67.132812 Z M 56.554688 67.789062 C 56.421875 67.789062 56.335938 67.699219 56.335938 67.570312 C 56.335938 67.4375 56.421875 67.351562 56.554688 67.351562 C 56.683594 67.351562 56.773438 67.4375 56.773438 67.570312 C 56.773438 67.699219 56.683594 67.789062 56.554688 67.789062 Z M 56.554688 67.789062 " fill-opacity="1" fill-rule="nonzero"/></g><g clip-path="url(#f374430e02)"><path fill="#ffffff" d="M 39.292969 62.542969 L 45.058594 62.542969 C 45.234375 62.9375 45.605469 63.199219 46.066406 63.199219 C 46.675781 63.199219 47.15625 62.71875 47.15625 62.105469 C 47.15625 61.492188 46.675781 61.011719 46.066406 61.011719 C 45.628906 61.011719 45.234375 61.277344 45.058594 61.667969 L 39.292969 61.667969 C 39.050781 61.667969 38.855469 61.867188 38.855469 62.105469 C 38.855469 62.347656 39.050781 62.542969 39.292969 62.542969 Z M 46.066406 61.886719 C 46.195312 61.886719 46.285156 61.976562 46.285156 62.105469 C 46.285156 62.238281 46.195312 62.324219 46.066406 62.324219 C 45.933594 62.324219 45.847656 62.238281 45.847656 62.105469 C 45.847656 61.976562 45.933594 61.886719 46.066406 61.886719 Z M 46.066406 61.886719 " fill-opacity="1" fill-rule="nonzero"/></g><g clip-path="url(#2e008f3db5)"><path fill="#ffffff" d="M 66.386719 61.667969 L 60.617188 61.667969 C 60.441406 61.277344 60.070312 61.011719 59.613281 61.011719 C 59 61.011719 58.519531 61.492188 58.519531 62.105469 C 58.519531 62.71875 59 63.199219 59.613281 63.199219 C 60.050781 63.199219 60.441406 62.9375 60.617188 62.542969 L 66.386719 62.542969 C 66.628906 62.542969 66.824219 62.347656 66.824219 62.105469 C 66.824219 61.867188 66.628906 61.667969 66.386719 61.667969 Z M 59.613281 62.324219 C 59.480469 62.324219 59.394531 62.238281 59.394531 62.105469 C 59.394531 61.976562 59.480469 61.886719 59.613281 61.886719 C 59.742188 61.886719 59.832031 61.976562 59.832031 62.105469 C 59.832031 62.238281 59.742188 62.324219 59.613281 62.324219 Z M 59.613281 62.324219 " fill-opacity="1" fill-rule="nonzero"/></g><g fill="#050a30" fill-opacity="0.4"><g transform="translate(94.05755, 66.039872)"><g><path d="M 0.179688 0 L 2.523438 0 L 4.726562 -3.136719 L 6.929688 0 L 9.277344 0 L 5.820312 -4.628906 L 9.179688 -8.871094 L 6.9375 -8.871094 L 4.726562 -5.960938 L 2.515625 -8.871094 L 0.277344 -8.871094 L 3.632812 -4.628906 Z M 0.179688 0 "/></g></g></g><g fill="#050a30" fill-opacity="0.4"><g transform="translate(105.999567, 66.039872)"><g><path d="M 7.085938 0 L 8.96875 0 L 5.703125 -8.871094 L 3.449219 -8.871094 L 0.183594 0 L 2.070312 0 L 2.714844 -1.828125 L 6.441406 -1.828125 Z M 3.253906 -3.371094 L 4.578125 -7.132812 L 5.898438 -3.371094 Z M 3.253906 -3.371094 "/></g></g></g><g fill="#050a30" fill-opacity="0.4"><g transform="translate(117.640827, 66.039872)"><g><path d="M 5.207031 -4.628906 L 8.644531 -8.871094 L 6.398438 -8.871094 L 3.609375 -5.382812 L 2.988281 -5.382812 L 2.988281 -8.871094 L 1.148438 -8.871094 L 1.148438 0 L 2.988281 0 L 2.988281 -3.769531 L 3.621094 -3.769531 L 6.398438 0 L 8.75 0 Z M 5.207031 -4.628906 "/></g></g></g><g fill="#050a30" fill-opacity="0.4"><g transform="translate(129.048842, 66.039872)"><g><path d="M 7.085938 0 L 8.96875 0 L 5.703125 -8.871094 L 3.449219 -8.871094 L 0.183594 0 L 2.070312 0 L 2.714844 -1.828125 L 6.441406 -1.828125 Z M 3.253906 -3.371094 L 4.578125 -7.132812 L 5.898438 -3.371094 Z M 3.253906 -3.371094 "/></g></g></g><g fill="#050a30" fill-opacity="0.4"><g transform="translate(140.690104, 66.039872)"><g/></g></g><g fill="#050a30" fill-opacity="0.4"><g transform="translate(146.445016, 66.039872)"><g><path d="M 4.101562 0.121094 C 6.035156 0.121094 7.410156 -0.839844 7.410156 -2.53125 C 7.410156 -4.328125 5.832031 -4.835938 4.488281 -5.242188 C 3.480469 -5.542969 2.609375 -5.753906 2.609375 -6.496094 C 2.609375 -7.175781 3.242188 -7.488281 3.984375 -7.488281 C 4.820312 -7.488281 5.414062 -7.101562 5.691406 -6.25 L 7.359375 -6.660156 C 7.003906 -8.363281 5.433594 -8.992188 3.875 -8.992188 C 2.09375 -8.992188 0.742188 -8.0625 0.742188 -6.425781 C 0.742188 -4.769531 2.136719 -4.296875 3.4375 -3.890625 C 4.519531 -3.5625 5.5 -3.304688 5.507812 -2.429688 C 5.511719 -1.710938 4.917969 -1.382812 4.132812 -1.382812 C 3.203125 -1.382812 2.515625 -1.855469 2.257812 -2.875 L 0.4375 -2.457031 C 0.707031 -0.792969 2.191406 0.121094 4.101562 0.121094 Z M 4.101562 0.121094 "/></g></g></g><g fill="#050a30" fill-opacity="0.4"><g transform="translate(156.895505, 66.039872)"><g><path d="M 6.292969 -7.25 L 6.292969 -8.871094 L 1.148438 -8.871094 L 1.148438 0 L 6.292969 0 L 6.292969 -1.625 L 3.003906 -1.625 L 3.003906 -3.632812 L 5.917969 -3.632812 L 5.917969 -5.238281 L 3.003906 -5.238281 L 3.003906 -7.25 Z M 6.292969 -7.25 "/></g></g></g><g fill="#050a30" fill-opacity="0.4"><g transform="translate(166.425294, 66.039872)"><g><path d="M 5.832031 0 L 8.011719 0 L 5.648438 -3.445312 C 5.863281 -3.503906 6.046875 -3.578125 6.210938 -3.671875 C 7.109375 -4.144531 7.472656 -5.027344 7.472656 -6.140625 C 7.472656 -7.195312 7.117188 -8.035156 6.25 -8.496094 C 5.789062 -8.730469 5.195312 -8.871094 4.0625 -8.871094 L 1.148438 -8.871094 L 1.148438 0 L 2.988281 0 L 2.988281 -3.273438 L 3.769531 -3.273438 Z M 2.988281 -7.332031 L 3.804688 -7.332031 C 4.519531 -7.332031 4.917969 -7.289062 5.199219 -7.074219 C 5.464844 -6.863281 5.617188 -6.519531 5.617188 -6.023438 C 5.617188 -5.5 5.464844 -5.152344 5.164062 -4.941406 C 4.894531 -4.75 4.507812 -4.722656 3.804688 -4.722656 L 2.988281 -4.722656 Z M 2.988281 -7.332031 "/></g></g></g><g fill="#050a30" fill-opacity="0.4"><g transform="translate(177.25634, 66.039872)"><g><path d="M 6.789062 -8.871094 L 4.464844 -2.148438 L 2.136719 -8.871094 L 0.183594 -8.871094 L 3.445312 0 L 5.46875 0 L 8.75 -8.871094 Z M 6.789062 -8.871094 "/></g></g></g><g fill="#050a30" fill-opacity="0.4"><g transform="translate(188.676634, 66.039872)"><g><path d="M 1.148438 0 L 2.988281 0 L 2.988281 -8.871094 L 1.148438 -8.871094 Z M 1.148438 0 "/></g></g></g><g fill="#050a30" fill-opacity="0.4"><g transform="translate(195.297004, 66.039872)"><g><path d="M 5.078125 0.121094 C 7.054688 0.121094 8.636719 -0.894531 9.269531 -2.578125 L 7.550781 -3.203125 C 7.160156 -2.171875 6.21875 -1.570312 5.078125 -1.570312 C 3.546875 -1.570312 2.375 -2.644531 2.375 -4.4375 C 2.375 -6.230469 3.546875 -7.300781 5.078125 -7.300781 C 6.21875 -7.300781 7.160156 -6.703125 7.550781 -5.671875 L 9.269531 -6.296875 C 8.636719 -7.980469 7.054688 -8.992188 5.078125 -8.992188 C 2.46875 -8.992188 0.539062 -7.226562 0.539062 -4.4375 C 0.539062 -1.652344 2.46875 0.121094 5.078125 0.121094 Z M 5.078125 0.121094 "/></g></g></g><g fill="#050a30" fill-opacity="0.4"><g transform="translate(207.41703, 66.039872)"><g><path d="M 6.292969 -7.25 L 6.292969 -8.871094 L 1.148438 -8.871094 L 1.148438 0 L 6.292969 0 L 6.292969 -1.625 L 3.003906 -1.625 L 3.003906 -3.632812 L 5.917969 -3.632812 L 5.917969 -5.238281 L 3.003906 -5.238281 L 3.003906 -7.25 Z M 6.292969 -7.25 "/></g></g></g><g fill="#050a30" fill-opacity="0.4"><g transform="translate(216.946819, 66.039872)"><g><path d="M 4.101562 0.121094 C 6.035156 0.121094 7.410156 -0.839844 7.410156 -2.53125 C 7.410156 -4.328125 5.832031 -4.835938 4.488281 -5.242188 C 3.480469 -5.542969 2.609375 -5.753906 2.609375 -6.496094 C 2.609375 -7.175781 3.242188 -7.488281 3.984375 -7.488281 C 4.820312 -7.488281 5.414062 -7.101562 5.691406 -6.25 L 7.359375 -6.660156 C 7.003906 -8.363281 5.433594 -8.992188 3.875 -8.992188 C 2.09375 -8.992188 0.742188 -8.0625 0.742188 -6.425781 C 0.742188 -4.769531 2.136719 -4.296875 3.4375 -3.890625 C 4.519531 -3.5625 5.5 -3.304688 5.507812 -2.429688 C 5.511719 -1.710938 4.917969 -1.382812 4.132812 -1.382812 C 3.203125 -1.382812 2.515625 -1.855469 2.257812 -2.875 L 0.4375 -2.457031 C 0.707031 -0.792969 2.191406 0.121094 4.101562 0.121094 Z M 4.101562 0.121094 "/></g></g></g><g fill="#050a30" fill-opacity="1"><g transform="translate(93.501889, 65.484212)"><g><path d="M 0.179688 0 L 2.523438 0 L 4.726562 -3.136719 L 6.929688 0 L 9.277344 0 L 5.820312 -4.628906 L 9.179688 -8.871094 L 6.9375 -8.871094 L 4.726562 -5.960938 L 2.515625 -8.871094 L 0.277344 -8.871094 L 3.632812 -4.628906 Z M 0.179688 0 "/></g></g></g><g fill="#050a30" fill-opacity="1"><g transform="translate(105.443906, 65.484212)"><g><path d="M 7.085938 0 L 8.96875 0 L 5.703125 -8.871094 L 3.449219 -8.871094 L 0.183594 0 L 2.070312 0 L 2.714844 -1.828125 L 6.441406 -1.828125 Z M 3.253906 -3.371094 L 4.578125 -7.132812 L 5.898438 -3.371094 Z M 3.253906 -3.371094 "/></g></g></g><g fill="#050a30" fill-opacity="1"><g transform="translate(117.085167, 65.484212)"><g><path d="M 5.207031 -4.628906 L 8.644531 -8.871094 L 6.398438 -8.871094 L 3.609375 -5.382812 L 2.988281 -5.382812 L 2.988281 -8.871094 L 1.148438 -8.871094 L 1.148438 0 L 2.988281 0 L 2.988281 -3.769531 L 3.621094 -3.769531 L 6.398438 0 L 8.75 0 Z M 5.207031 -4.628906 "/></g></g></g><g fill="#050a30" fill-opacity="1"><g transform="translate(128.493182, 65.484212)"><g><path d="M 7.085938 0 L 8.96875 0 L 5.703125 -8.871094 L 3.449219 -8.871094 L 0.183594 0 L 2.070312 0 L 2.714844 -1.828125 L 6.441406 -1.828125 Z M 3.253906 -3.371094 L 4.578125 -7.132812 L 5.898438 -3.371094 Z M 3.253906 -3.371094 "/></g></g></g><g fill="#050a30" fill-opacity="1"><g transform="translate(140.134444, 65.484212)"><g/></g></g><g fill="#050a30" fill-opacity="1"><g transform="translate(145.889356, 65.484212)"><g><path d="M 4.101562 0.121094 C 6.035156 0.121094 7.410156 -0.839844 7.410156 -2.53125 C 7.410156 -4.328125 5.832031 -4.835938 4.488281 -5.242188 C 3.480469 -5.542969 2.609375 -5.753906 2.609375 -6.496094 C 2.609375 -7.175781 3.242188 -7.488281 3.984375 -7.488281 C 4.820312 -7.488281 5.414062 -7.101562 5.691406 -6.25 L 7.359375 -6.660156 C 7.003906 -8.363281 5.433594 -8.992188 3.875 -8.992188 C 2.09375 -8.992188 0.742188 -8.0625 0.742188 -6.425781 C 0.742188 -4.769531 2.136719 -4.296875 3.4375 -3.890625 C 4.519531 -3.5625 5.5 -3.304688 5.507812 -2.429688 C 5.511719 -1.710938 4.917969 -1.382812 4.132812 -1.382812 C 3.203125 -1.382812 2.515625 -1.855469 2.257812 -2.875 L 0.4375 -2.457031 C 0.707031 -0.792969 2.191406 0.121094 4.101562 0.121094 Z M 4.101562 0.121094 "/></g></g></g><g fill="#050a30" fill-opacity="1"><g transform="translate(156.339845, 65.484212)"><g><path d="M 6.292969 -7.25 L 6.292969 -8.871094 L 1.148438 -8.871094 L 1.148438 0 L 6.292969 0 L 6.292969 -1.625 L 3.003906 -1.625 L 3.003906 -3.632812 L 5.917969 -3.632812 L 5.917969 -5.238281 L 3.003906 -5.238281 L 3.003906 -7.25 Z M 6.292969 -7.25 "/></g></g></g><g fill="#050a30" fill-opacity="1"><g transform="translate(165.869634, 65.484212)"><g><path d="M 5.832031 0 L 8.011719 0 L 5.648438 -3.445312 C 5.863281 -3.503906 6.046875 -3.578125 6.210938 -3.671875 C 7.109375 -4.144531 7.472656 -5.027344 7.472656 -6.140625 C 7.472656 -7.195312 7.117188 -8.035156 6.25 -8.496094 C 5.789062 -8.730469 5.195312 -8.871094 4.0625 -8.871094 L 1.148438 -8.871094 L 1.148438 0 L 2.988281 0 L 2.988281 -3.273438 L 3.769531 -3.273438 Z M 2.988281 -7.332031 L 3.804688 -7.332031 C 4.519531 -7.332031 4.917969 -7.289062 5.199219 -7.074219 C 5.464844 -6.863281 5.617188 -6.519531 5.617188 -6.023438 C 5.617188 -5.5 5.464844 -5.152344 5.164062 -4.941406 C 4.894531 -4.75 4.507812 -4.722656 3.804688 -4.722656 L 2.988281 -4.722656 Z M 2.988281 -7.332031 "/></g></g></g><g fill="#050a30" fill-opacity="1"><g transform="translate(176.70068, 65.484212)"><g><path d="M 6.789062 -8.871094 L 4.464844 -2.148438 L 2.136719 -8.871094 L 0.183594 -8.871094 L 3.445312 0 L 5.46875 0 L 8.75 -8.871094 Z M 6.789062 -8.871094 "/></g></g></g><g fill="#050a30" fill-opacity="1"><g transform="translate(188.120974, 65.484212)"><g><path d="M 1.148438 0 L 2.988281 0 L 2.988281 -8.871094 L 1.148438 -8.871094 Z M 1.148438 0 "/></g></g></g><g fill="#050a30" fill-opacity="1"><g transform="translate(194.741344, 65.484212)"><g><path d="M 5.078125 0.121094 C 7.054688 0.121094 8.636719 -0.894531 9.269531 -2.578125 L 7.550781 -3.203125 C 7.160156 -2.171875 6.21875 -1.570312 5.078125 -1.570312 C 3.546875 -1.570312 2.375 -2.644531 2.375 -4.4375 C 2.375 -6.230469 3.546875 -7.300781 5.078125 -7.300781 C 6.21875 -7.300781 7.160156 -6.703125 7.550781 -5.671875 L 9.269531 -6.296875 C 8.636719 -7.980469 7.054688 -8.992188 5.078125 -8.992188 C 2.46875 -8.992188 0.539062 -7.226562 0.539062 -4.4375 C 0.539062 -1.652344 2.46875 0.121094 5.078125 0.121094 Z M 5.078125 0.121094 "/></g></g></g><g fill="#050a30" fill-opacity="1"><g transform="translate(206.86137, 65.484212)"><g><path d="M 6.292969 -7.25 L 6.292969 -8.871094 L 1.148438 -8.871094 L 1.148438 0 L 6.292969 0 L 6.292969 -1.625 L 3.003906 -1.625 L 3.003906 -3.632812 L 5.917969 -3.632812 L 5.917969 -5.238281 L 3.003906 -5.238281 L 3.003906 -7.25 Z M 6.292969 -7.25 "/></g></g></g><g fill="#050a30" fill-opacity="1"><g transform="translate(216.391159, 65.484212)"><g><path d="M 4.101562 0.121094 C 6.035156 0.121094 7.410156 -0.839844 7.410156 -2.53125 C 7.410156 -4.328125 5.832031 -4.835938 4.488281 -5.242188 C 3.480469 -5.542969 2.609375 -5.753906 2.609375 -6.496094 C 2.609375 -7.175781 3.242188 -7.488281 3.984375 -7.488281 C 4.820312 -7.488281 5.414062 -7.101562 5.691406 -6.25 L 7.359375 -6.660156 C 7.003906 -8.363281 5.433594 -8.992188 3.875 -8.992188 C 2.09375 -8.992188 0.742188 -8.0625 0.742188 -6.425781 C 0.742188 -4.769531 2.136719 -4.296875 3.4375 -3.890625 C 4.519531 -3.5625 5.5 -3.304688 5.507812 -2.429688 C 5.511719 -1.710938 4.917969 -1.382812 4.132812 -1.382812 C 3.203125 -1.382812 2.515625 -1.855469 2.257812 -2.875 L 0.4375 -2.457031 C 0.707031 -0.792969 2.191406 0.121094 4.101562 0.121094 Z M 4.101562 0.121094 "/></g></g></g></svg>